<?xml version="1.0" standalone="yes"?>

<svg version="1.1" viewBox="0.0 0.0 957.2624671916011 389.65879265091866" fill="none" stroke="none" stroke-linecap="square" stroke-miterlimit="10" xmlns="http://www.w3.org/2000/svg" xmlns:xlink="http://www.w3.org/1999/xlink"><clipPath id="p.0"><path d="m0 0l957.26245 0l0 389.65878l-957.26245 0l0 -389.65878z" clip-rule="nonzero"></path></clipPath><g clip-path="url(#p.0)"><path fill="#000000" fill-opacity="0.0" d="m0 0l957.26245 0l0 389.65878l-957.26245 0z" fill-rule="evenodd"></path><path fill="#6d9eeb" d="m378.76904 71.30971l0 0c0 -18.508057 34.237854 -33.511806 76.47241 -33.511806l0 0c42.23459 0 76.47247 15.00375 76.47247 33.511806l0 0c0 18.508064 -34.237885 33.511818 -76.47247 33.511818l0 0c-42.23456 0 -76.47241 -15.003754 -76.47241 -33.511818z" fill-rule="evenodd"></path><path stroke="#000000" stroke-width="1.0" stroke-linejoin="round" stroke-linecap="butt" d="m378.76904 71.30971l0 0c0 -18.508057 34.237854 -33.511806 76.47241 -33.511806l0 0c42.23459 0 76.47247 15.00375 76.47247 33.511806l0 0c0 18.508064 -34.237885 33.511818 -76.47247 33.511818l0 0c-42.23456 0 -76.47241 -15.003754 -76.47241 -33.511818z" fill-rule="evenodd"></path><path fill="#000000" d="m426.3167 63.98471q-1.5625 -0.453125 -2.28125 -1.109375q-0.71875 -0.65625 -0.71875 -1.609375q0 -1.09375 0.875 -1.8125q0.875 -0.71875 2.265625 -0.71875q0.953125 0 1.703125 0.375q0.75 0.359375 1.15625 1.015625q0.40625 0.640625 0.40625 1.421875l-1.21875 0q0 -0.84375 -0.546875 -1.3125q-0.53125 -0.484375 -1.5 -0.484375q-0.890625 0 -1.40625 0.390625q-0.5 0.390625 -0.5 1.09375q0 0.578125 0.46875 0.96875q0.484375 0.390625 1.640625 0.71875q1.15625 0.3125 1.796875 0.703125q0.65625 0.390625 0.96875 0.921875q0.3125 0.515625 0.3125 1.21875q0 1.125 -0.875 1.796875q-0.875 0.671875 -2.34375 0.671875q-0.953125 0 -1.78125 -0.359375q-0.8125 -0.375 -1.265625 -1.0q-0.4375 -0.640625 -0.4375 -1.4375l1.21875 0q0 0.828125 0.609375 1.3125q0.625 0.484375 1.65625 0.484375q0.96875 0 1.484375 -0.390625q0.515625 -0.390625 0.515625 -1.0625q0 -0.6875 -0.484375 -1.0625q-0.46875 -0.375 -1.71875 -0.734375zm9.235199 3.453125q-0.6875 0.796875 -2.015625 0.796875q-1.09375 0 -1.671875 -0.640625q-0.5625 -0.640625 -0.578125 -1.890625l0 -4.46875l1.171875 0l0 4.4375q0 1.5625 1.28125 1.5625q1.34375 0 1.78125 -1.0l0 -5.0l1.171875 0l0 6.875l-1.109375 0l-0.03125 -0.671875zm8.909912 -2.6875q0 1.5625 -0.71875 2.53125q-0.71875 0.953125 -1.9375 0.953125q-1.25 0 -1.96875 -0.796875l0 3.3125l-1.171875 0l0 -9.515625l1.078125 0l0.046875 0.765625q0.71875 -0.890625 2.0 -0.890625q1.234375 0 1.953125 0.9375q0.71875 0.9375 0.71875 2.59375l0 0.109375zm-1.171875 -0.125q0 -1.171875 -0.5 -1.84375q-0.484375 -0.671875 -1.359375 -0.671875q-1.0625 0 -1.59375 0.953125l0 3.28125q0.53125 0.9375 1.609375 0.9375q0.84375 0 1.34375 -0.671875q0.5 -0.671875 0.5 -1.984375zm5.696289 3.609375q-1.390625 0 -2.265625 -0.90625q-0.875 -0.921875 -0.875 -2.46875l0 -0.203125q0 -1.03125 0.390625 -1.828125q0.390625 -0.8125 1.09375 -1.265625q0.703125 -0.453125 1.515625 -0.453125q1.34375 0 2.078125 0.890625q0.75 0.875 0.75 2.515625l0 0.5l-4.65625 0q0.03125 1.015625 0.59375 1.640625q0.5625 0.625 1.4375 0.625q0.625 0 1.046875 -0.25q0.4375 -0.265625 0.765625 -0.6875l0.71875 0.5625q-0.859375 1.328125 -2.59375 1.328125zm-0.140625 -6.15625q-0.71875 0 -1.203125 0.515625q-0.46875 0.515625 -0.59375 1.453125l3.453125 0l0 -0.09375q-0.0625 -0.890625 -0.5 -1.375q-0.421875 -0.5 -1.15625 -0.5zm7.6704407 0.21875q-0.265625 -0.046875 -0.578125 -0.046875q-1.15625 0 -1.5625 0.984375l0 4.875l-1.171875 0l0 -6.875l1.140625 0l0.015625 0.796875q0.578125 -0.921875 1.640625 -0.921875q0.34375 0 0.515625 0.09375l0 1.09375zm3.4630737 4.21875l1.703125 -5.28125l1.203125 0l-2.46875 6.875l-0.890625 0l-2.5 -6.875l1.203125 0l1.75 5.28125zm5.4714355 1.59375l-1.1875 0l0 -6.875l1.1875 0l0 6.875zm-1.28125 -8.6875q0 -0.28125 0.171875 -0.484375q0.1875 -0.203125 0.53125 -0.203125q0.34375 0 0.515625 0.203125q0.171875 0.203125 0.171875 0.484375q0 0.28125 -0.171875 0.46875q-0.171875 0.1875 -0.515625 0.1875q-0.34375 0 -0.53125 -0.1875q-0.171875 -0.1875 -0.171875 -0.46875zm7.234436 6.859375q0 -0.46875 -0.359375 -0.734375q-0.359375 -0.265625 -1.25 -0.453125q-0.890625 -0.1875 -1.421875 -0.453125q-0.515625 -0.265625 -0.765625 -0.625q-0.25 -0.375 -0.25 -0.890625q0 -0.84375 0.703125 -1.421875q0.71875 -0.59375 1.828125 -0.59375q1.171875 0 1.890625 0.609375q0.734375 0.59375 0.734375 1.546875l-1.1875 0q0 -0.484375 -0.40625 -0.828125q-0.40625 -0.359375 -1.03125 -0.359375q-0.640625 0 -1.0 0.28125q-0.359375 0.28125 -0.359375 0.734375q0 0.421875 0.328125 0.640625q0.34375 0.203125 1.21875 0.40625q0.875 0.203125 1.421875 0.484375q0.546875 0.265625 0.8125 0.65625q0.265625 0.375 0.265625 0.921875q0 0.921875 -0.734375 1.484375q-0.734375 0.546875 -1.90625 0.546875q-0.828125 0 -1.46875 -0.28125q-0.625 -0.296875 -0.984375 -0.8125q-0.359375 -0.53125 -0.359375 -1.140625l1.171875 0q0.03125 0.578125 0.46875 0.9375q0.4375 0.34375 1.171875 0.34375q0.65625 0 1.0625 -0.265625q0.40625 -0.28125 0.40625 -0.734375zm5.7160645 1.953125q-1.390625 0 -2.265625 -0.90625q-0.875 -0.921875 -0.875 -2.46875l0 -0.203125q0 -1.03125 0.390625 -1.828125q0.390625 -0.8125 1.09375 -1.265625q0.703125 -0.453125 1.515625 -0.453125q1.34375 0 2.078125 0.890625q0.75 0.875 0.75 2.515625l0 0.5l-4.65625 0q0.03125 1.015625 0.59375 1.640625q0.5625 0.625 1.4375 0.625q0.625 0 1.046875 -0.25q0.4375 -0.265625 0.765625 -0.6875l0.71875 0.5625q-0.859375 1.328125 -2.59375 1.328125zm-0.140625 -6.15625q-0.71875 0 -1.203125 0.515625q-0.46875 0.515625 -0.59375 1.453125l3.453125 0l0 -0.09375q-0.0625 -0.890625 -0.5 -1.375q-0.421875 -0.5 -1.15625 -0.5zm4.07666 2.546875q0 -1.59375 0.734375 -2.546875q0.75 -0.96875 1.96875 -0.96875q1.203125 0 1.90625 0.828125l0 -3.578125l1.1875 0l0 9.75l-1.09375 0l-0.046875 -0.734375q-0.703125 0.859375 -1.96875 0.859375q-1.1875 0 -1.9375 -0.96875q-0.75 -0.984375 -0.75 -2.5625l0 -0.078125zm1.171875 0.125q0 1.171875 0.484375 1.828125q0.484375 0.65625 1.328125 0.65625q1.109375 0 1.625 -1.0l0 -3.15625q-0.515625 -0.96875 -1.609375 -0.96875q-0.859375 0 -1.34375 0.671875q-0.484375 0.65625 -0.484375 1.96875z" fill-rule="nonzero"></path><path fill="#000000" d="m431.8322 83.10971l4.375 0l0 1.0l-5.59375 0l0 -9.25l1.21875 0l0 8.25zm8.609192 1.125q-1.390625 0 -2.265625 -0.90625q-0.875 -0.921875 -0.875 -2.46875l0 -0.203125q0 -1.03125 0.390625 -1.828125q0.390625 -0.8125 1.09375 -1.265625q0.703125 -0.453125 1.515625 -0.453125q1.34375 0 2.078125 0.890625q0.75 0.875 0.75 2.515625l0 0.5l-4.65625 0q0.03125 1.015625 0.59375 1.640625q0.5625 0.625 1.4375 0.625q0.625 0 1.046875 -0.25q0.4375 -0.265625 0.765625 -0.6875l0.71875 0.5625q-0.859375 1.328125 -2.59375 1.328125zm-0.140625 -6.15625q-0.71875 0 -1.203125 0.515625q-0.46875 0.515625 -0.59375 1.453125l3.453125 0l0 -0.09375q-0.0625 -0.890625 -0.5 -1.375q-0.421875 -0.5 -1.15625 -0.5zm8.592285 6.03125q-0.09375 -0.203125 -0.15625 -0.71875q-0.828125 0.84375 -1.953125 0.84375q-1.015625 0 -1.671875 -0.5625q-0.65625 -0.578125 -0.65625 -1.46875q0 -1.078125 0.8125 -1.671875q0.828125 -0.59375 2.296875 -0.59375l1.140625 0l0 -0.53125q0 -0.609375 -0.375 -0.96875q-0.359375 -0.375 -1.078125 -0.375q-0.625 0 -1.046875 0.3125q-0.421875 0.3125 -0.421875 0.765625l-1.1875 0q0 -0.515625 0.359375 -0.984375q0.375 -0.484375 1.0 -0.765625q0.625 -0.28125 1.375 -0.28125q1.1875 0 1.859375 0.59375q0.671875 0.59375 0.703125 1.640625l0 3.15625q0 0.953125 0.234375 1.5l0 0.109375l-1.234375 0zm-1.9375 -0.890625q0.546875 0 1.03125 -0.28125q0.5 -0.296875 0.71875 -0.75l0 -1.40625l-0.90625 0q-2.171875 0 -2.171875 1.265625q0 0.546875 0.375 0.859375q0.375 0.3125 0.953125 0.3125zm8.265411 -4.921875q-0.265625 -0.046875 -0.578125 -0.046875q-1.15625 0 -1.5625 0.984375l0 4.875l-1.171875 0l0 -6.875l1.140625 0l0.015625 0.796875q0.578125 -0.921875 1.640625 -0.921875q0.34375 0 0.515625 0.09375l0 1.09375zm2.3068237 -1.0625l0.03125 0.875q0.796875 -1.0 2.0625 -1.0q2.171875 0 2.203125 2.46875l0 4.53125l-1.1875 0l0 -4.546875q0 -0.734375 -0.34375 -1.09375q-0.328125 -0.359375 -1.03125 -0.359375q-0.5625 0 -1.0 0.3125q-0.4375 0.296875 -0.671875 0.796875l0 4.890625l-1.171875 0l0 -6.875l1.109375 0zm7.5257874 6.875l-1.1875 0l0 -6.875l1.1875 0l0 6.875zm-1.28125 -8.6875q0 -0.28125 0.171875 -0.484375q0.1875 -0.203125 0.53125 -0.203125q0.34375 0 0.515625 0.203125q0.171875 0.203125 0.171875 0.484375q0 0.28125 -0.171875 0.46875q-0.171875 0.1875 -0.515625 0.1875q-0.34375 0 -0.53125 -0.1875q-0.171875 -0.1875 -0.171875 -0.46875zm4.3437805 1.8125l0.03125 0.875q0.796875 -1.0 2.0625 -1.0q2.171875 0 2.203125 2.46875l0 4.53125l-1.1875 0l0 -4.546875q0 -0.734375 -0.34375 -1.09375q-0.328125 -0.359375 -1.03125 -0.359375q-0.5625 0 -1.0 0.3125q-0.4375 0.296875 -0.671875 0.796875l0 4.890625l-1.171875 0l0 -6.875l1.109375 0zm5.9632874 3.390625q0 -1.609375 0.734375 -2.5625q0.75 -0.953125 1.96875 -0.953125q1.265625 0 1.96875 0.890625l0.0625 -0.765625l1.0625 0l0 6.703125q0 1.34375 -0.796875 2.109375q-0.78125 0.765625 -2.109375 0.765625q-0.75 0 -1.46875 -0.328125q-0.703125 -0.3125 -1.078125 -0.859375l0.609375 -0.703125q0.765625 0.9375 1.859375 0.9375q0.84375 0 1.328125 -0.484375q0.484375 -0.484375 0.484375 -1.359375l0 -0.59375q-0.703125 0.8125 -1.921875 0.8125q-1.21875 0 -1.96875 -0.96875q-0.734375 -0.96875 -0.734375 -2.640625zm1.1875 0.125q0 1.15625 0.46875 1.828125q0.484375 0.65625 1.328125 0.65625q1.109375 0 1.640625 -1.0l0 -3.140625q-0.546875 -0.984375 -1.625 -0.984375q-0.859375 0 -1.34375 0.671875q-0.46875 0.65625 -0.46875 1.96875z" fill-rule="nonzero"></path><path fill="#93c47d" d="m177.74016 207.07349l0 0c0 -18.508057 34.237885 -33.51181 76.47244 -33.51181l0 0c42.234573 0 76.47243 15.003754 76.47243 33.51181l0 0c0 18.508072 -34.237854 33.51181 -76.47243 33.51181l0 0c-42.23456 0 -76.47244 -15.003738 -76.47244 -33.51181z" fill-rule="evenodd"></path><path stroke="#000000" stroke-width="1.0" stroke-linejoin="round" stroke-linecap="butt" d="m177.74016 207.07349l0 0c0 -18.508057 34.237885 -33.51181 76.47244 -33.51181l0 0c42.234573 0 76.47243 15.003754 76.47243 33.51181l0 0c0 18.508072 -34.237854 33.51181 -76.47243 33.51181l0 0c-42.23456 0 -76.47244 -15.003738 -76.47244 -33.51181z" fill-rule="evenodd"></path><path fill="#000000" d="m214.63841 208.32411l-2.671875 0l0 4.609375l-1.515625 0l0 -11.375l3.765625 0q1.921875 0 2.953125 0.875q1.046875 0.875 1.046875 2.546875q0 1.0625 -0.578125 1.859375q-0.578125 0.78125 -1.59375 1.171875l2.671875 4.828125l0 0.09375l-1.609375 0l-2.46875 -4.609375zm-2.671875 -1.21875l2.296875 0q1.125 0 1.78125 -0.578125q0.65625 -0.578125 0.65625 -1.546875q0 -1.0625 -0.625 -1.625q-0.625 -0.5625 -1.8125 -0.5625l-2.296875 0l0 4.3125zm11.6328125 5.984375q-1.71875 0 -2.796875 -1.125q-1.078125 -1.140625 -1.078125 -3.03125l0 -0.265625q0 -1.25 0.46875 -2.234375q0.484375 -1.0 1.34375 -1.546875q0.875 -0.5625 1.875 -0.5625q1.65625 0 2.5625 1.09375q0.921875 1.078125 0.921875 3.09375l0 0.609375l-5.734375 0q0.03125 1.25 0.734375 2.015625q0.703125 0.765625 1.78125 0.765625q0.765625 0 1.296875 -0.3125q0.53125 -0.3125 0.921875 -0.828125l0.890625 0.6875q-1.0625 1.640625 -3.1875 1.640625zm-0.1875 -7.578125q-0.875 0 -1.46875 0.640625q-0.59375 0.625 -0.734375 1.78125l4.234375 0l0 -0.109375q-0.0625 -1.109375 -0.59375 -1.703125q-0.53125 -0.609375 -1.4375 -0.609375zm4.8046875 3.125q0 -1.984375 0.90625 -3.140625q0.921875 -1.171875 2.4375 -1.171875q1.546875 0 2.40625 1.09375l0.078125 -0.9375l1.3125 0l0 8.25q0 1.640625 -0.96875 2.578125q-0.96875 0.953125 -2.609375 0.953125q-0.921875 0 -1.796875 -0.390625q-0.875 -0.390625 -1.328125 -1.0625l0.75 -0.875q0.921875 1.15625 2.265625 1.15625q1.0625 0 1.640625 -0.59375q0.59375 -0.59375 0.59375 -1.6875l0 -0.71875q-0.859375 1.0 -2.359375 1.0q-1.484375 0 -2.40625 -1.1875q-0.921875 -1.203125 -0.921875 -3.265625zm1.453125 0.15625q0 1.4375 0.578125 2.25q0.59375 0.8125 1.65625 0.8125q1.359375 0 2.0 -1.234375l0 -3.859375q-0.65625 -1.21875 -1.984375 -1.21875q-1.0625 0 -1.65625 0.828125q-0.59375 0.8125 -0.59375 2.421875zm11.9609375 -3.015625q-0.328125 -0.0625 -0.71875 -0.0625q-1.421875 0 -1.921875 1.21875l0 6.0l-1.453125 0l0 -8.453125l1.40625 0l0.03125 0.96875q0.703125 -1.125 2.015625 -1.125q0.421875 0 0.640625 0.109375l0 1.34375zm4.8359375 7.3125q-1.71875 0 -2.796875 -1.125q-1.078125 -1.140625 -1.078125 -3.03125l0 -0.265625q0 -1.25 0.46875 -2.234375q0.484375 -1.0 1.34375 -1.546875q0.875 -0.5625 1.875 -0.5625q1.65625 0 2.5625 1.09375q0.921875 1.078125 0.921875 3.09375l0 0.609375l-5.734375 0q0.03125 1.25 0.734375 2.015625q0.703125 0.765625 1.78125 0.765625q0.765625 0 1.296875 -0.3125q0.53125 -0.3125 0.921875 -0.828125l0.890625 0.6875q-1.0625 1.640625 -3.1875 1.640625zm-0.1875 -7.578125q-0.875 0 -1.46875 0.640625q-0.59375 0.625 -0.734375 1.78125l4.234375 0l0 -0.109375q-0.0625 -1.109375 -0.59375 -1.703125q-0.53125 -0.609375 -1.4375 -0.609375zm10.070328 5.171875q0 -0.578125 -0.43751526 -0.90625q-0.4375 -0.328125 -1.546875 -0.5625q-1.09375 -0.234375 -1.734375 -0.5625q-0.640625 -0.328125 -0.953125 -0.78125q-0.3125 -0.453125 -0.3125 -1.078125q0 -1.03125 0.875 -1.75q0.890625 -0.71875 2.25 -0.71875q1.4375 0 2.3281403 0.75q0.90625 0.734375 0.90625 1.890625l-1.453125 0q0 -0.59375 -0.51564026 -1.015625q-0.5 -0.4375 -1.265625 -0.4375q-0.78125 0 -1.234375 0.34375q-0.4375 0.34375 -0.4375 0.890625q0 0.53125 0.40625 0.796875q0.421875 0.265625 1.5 0.515625q1.078125 0.234375 1.7500153 0.578125q0.671875 0.328125 1.0 0.796875q0.328125 0.46875 0.328125 1.15625q0 1.125 -0.90625 1.8125q-0.90626526 0.6875 -2.3593903 0.6875q-1.015625 0 -1.796875 -0.359375q-0.78125 -0.359375 -1.21875 -1.0q-0.4375 -0.65625 -0.4375 -1.40625l1.4375 0q0.046875 0.734375 0.578125 1.15625q0.546875 0.421875 1.4375 0.421875q0.828125 0 1.3125 -0.328125q0.50001526 -0.328125 0.50001526 -0.890625zm8.25 0q0 -0.578125 -0.4375 -0.90625q-0.4375 -0.328125 -1.546875 -0.5625q-1.09375 -0.234375 -1.734375 -0.5625q-0.640625 -0.328125 -0.953125 -0.78125q-0.3125 -0.453125 -0.3125 -1.078125q0 -1.03125 0.875 -1.75q0.890625 -0.71875 2.25 -0.71875q1.4375 0 2.328125 0.75q0.90625 0.734375 0.90625 1.890625l-1.453125 0q0 -0.59375 -0.515625 -1.015625q-0.5 -0.4375 -1.265625 -0.4375q-0.78125 0 -1.234375 0.34375q-0.4375 0.34375 -0.4375 0.890625q0 0.53125 0.40625 0.796875q0.421875 0.265625 1.5 0.515625q1.078125 0.234375 1.75 0.578125q0.671875 0.328125 1.0 0.796875q0.328125 0.46875 0.328125 1.15625q0 1.125 -0.90625 1.8125q-0.90625 0.6875 -2.359375 0.6875q-1.015625 0 -1.796875 -0.359375q-0.78125 -0.359375 -1.21875 -1.0q-0.4375 -0.65625 -0.4375 -1.40625l1.4375 0q0.046875 0.734375 0.578125 1.15625q0.546875 0.421875 1.4375 0.421875q0.828125 0 1.3125 -0.328125q0.5 -0.328125 0.5 -0.890625zm4.90625 2.25l-1.453125 0l0 -8.453125l1.453125 0l0 8.453125zm-1.5625 -10.703125q0 -0.34375 0.203125 -0.578125q0.21875 -0.25 0.640625 -0.25q0.421875 0 0.640625 0.25q0.21875 0.234375 0.21875 0.59375q0 0.34375 -0.21875 0.578125q-0.21875 0.234375 -0.640625 0.234375q-0.421875 0 -0.640625 -0.234375q-0.203125 -0.234375 -0.203125 -0.59375zm3.4921875 6.390625q0 -1.234375 0.484375 -2.21875q0.484375 -1.0 1.359375 -1.53125q0.875 -0.546875 1.984375 -0.546875q1.734375 0 2.796875 1.203125q1.0625 1.1875 1.0625 3.171875l0 0.09375q0 1.234375 -0.46875 2.21875q-0.46875 0.984375 -1.359375 1.53125q-0.875 0.546875 -2.015625 0.546875q-1.71875 0 -2.78125 -1.1875q-1.0625 -1.203125 -1.0625 -3.171875l0 -0.109375zm1.453125 0.171875q0 1.40625 0.640625 2.265625q0.65625 0.84375 1.75 0.84375q1.109375 0 1.75 -0.859375q0.65625 -0.859375 0.65625 -2.421875q0 -1.390625 -0.671875 -2.25q-0.65625 -0.859375 -1.75 -0.859375q-1.0625 0 -1.71875 0.859375q-0.65625 0.84375 -0.65625 2.421875zm9.421875 -4.3125l0.046875 1.0625q0.96875 -1.21875 2.53125 -1.21875q2.671875 0 2.703125 3.015625l0 5.59375l-1.453125 0l0 -5.59375q0 -0.921875 -0.421875 -1.359375q-0.40625 -0.4375 -1.265625 -0.4375q-0.703125 0 -1.234375 0.375q-0.53125 0.375 -0.828125 0.984375l0 6.03125l-1.453125 0l0 -8.453125l1.375 0z" fill-rule="nonzero"></path><path fill="#8e7cc3" d="m579.10236 207.07349l0 0c0 -18.508057 34.237854 -33.51181 76.47247 -33.51181l0 0c42.23456 0 76.47241 15.003754 76.47241 33.51181l0 0c0 18.508072 -34.237854 33.51181 -76.47241 33.51181l0 0c-42.23462 0 -76.47247 -15.003738 -76.47247 -33.51181z" fill-rule="evenodd"></path><path stroke="#000000" stroke-width="1.0" stroke-linejoin="round" stroke-linecap="butt" d="m579.10236 207.07349l0 0c0 -18.508057 34.237854 -33.51181 76.47247 -33.51181l0 0c42.23456 0 76.47241 15.003754 76.47241 33.51181l0 0c0 18.508072 -34.237854 33.51181 -76.47241 33.51181l0 0c-42.23462 0 -76.47247 -15.003738 -76.47247 -33.51181z" fill-rule="evenodd"></path><path fill="#000000" d="m623.0652 208.93599q-0.171875 1.46875 -1.09375 2.265625q-0.90625 0.796875 -2.40625 0.796875q-1.640625 0 -2.640625 -1.171875q-0.984375 -1.171875 -0.984375 -3.140625l0 -0.890625q0 -1.28125 0.453125 -2.265625q0.46875 -0.984375 1.3125 -1.5q0.84375 -0.53125 1.953125 -0.53125q1.484375 0 2.359375 0.828125q0.890625 0.828125 1.046875 2.28125l-1.234375 0q-0.15625 -1.109375 -0.6875 -1.59375q-0.53125 -0.5 -1.484375 -0.5q-1.15625 0 -1.828125 0.859375q-0.65625 0.859375 -0.65625 2.453125l0 0.890625q0 1.515625 0.625 2.40625q0.625 0.875 1.765625 0.875q1.015625 0 1.546875 -0.453125q0.546875 -0.46875 0.71875 -1.609375l1.234375 0zm2.9718628 2.9375l-1.1875 0l0 -9.75l1.1875 0l0 9.75zm6.187561 0q-0.09375 -0.203125 -0.15625 -0.71875q-0.828125 0.84375 -1.953125 0.84375q-1.015625 0 -1.671875 -0.5625q-0.65625 -0.578125 -0.65625 -1.46875q0 -1.078125 0.8125 -1.671875q0.828125 -0.59375 2.296875 -0.59375l1.140625 0l0 -0.53125q0 -0.609375 -0.375 -0.96875q-0.359375 -0.375 -1.078125 -0.375q-0.625 0 -1.046875 0.3125q-0.421875 0.3125 -0.421875 0.765625l-1.1875 0q0 -0.515625 0.359375 -0.984375q0.375 -0.484375 1.0 -0.765625q0.625 -0.28125 1.375 -0.28125q1.1875 0 1.859375 0.59375q0.671875 0.59375 0.703125 1.640625l0 3.15625q0 0.953125 0.234375 1.5l0 0.109375l-1.234375 0zm-1.9375 -0.890625q0.546875 0 1.03125 -0.28125q0.5 -0.296875 0.71875 -0.75l0 -1.40625l-0.90625 0q-2.171875 0 -2.171875 1.265625q0 0.546875 0.375 0.859375q0.375 0.3125 0.953125 0.3125zm8.952881 -0.9375q0 -0.46875 -0.359375 -0.734375q-0.359375 -0.265625 -1.25 -0.453125q-0.890625 -0.1875 -1.421875 -0.453125q-0.515625 -0.265625 -0.765625 -0.625q-0.25 -0.375 -0.25 -0.890625q0 -0.84375 0.703125 -1.421875q0.71875 -0.59375 1.828125 -0.59375q1.171875 0 1.890625 0.609375q0.734375 0.59375 0.734375 1.546875l-1.1875 0q0 -0.484375 -0.40625 -0.828125q-0.40625 -0.359375 -1.03125 -0.359375q-0.640625 0 -1.0 0.28125q-0.359375 0.28125 -0.359375 0.734375q0 0.421875 0.328125 0.640625q0.34375 0.203125 1.21875 0.40625q0.875 0.203125 1.421875 0.484375q0.546875 0.265625 0.8125 0.65625q0.265625 0.375 0.265625 0.921875q0 0.921875 -0.734375 1.484375q-0.734375 0.546875 -1.90625 0.546875q-0.828125 0 -1.46875 -0.28125q-0.625 -0.296875 -0.984375 -0.8125q-0.359375 -0.53125 -0.359375 -1.140625l1.171875 0q0.03125 0.578125 0.46875 0.9375q0.4375 0.34375 1.171875 0.34375q0.65625 0 1.0625 -0.265625q0.40625 -0.28125 0.40625 -0.734375zm6.8723145 0q0 -0.46875 -0.359375 -0.734375q-0.359375 -0.265625 -1.25 -0.453125q-0.890625 -0.1875 -1.421875 -0.453125q-0.515625 -0.265625 -0.765625 -0.625q-0.25 -0.375 -0.25 -0.890625q0 -0.84375 0.703125 -1.421875q0.71875 -0.59375 1.828125 -0.59375q1.171875 0 1.890625 0.609375q0.734375 0.59375 0.734375 1.546875l-1.1875 0q0 -0.484375 -0.40625 -0.828125q-0.40625 -0.359375 -1.03125 -0.359375q-0.640625 0 -1.0 0.28125q-0.359375 0.28125 -0.359375 0.734375q0 0.421875 0.328125 0.640625q0.34375 0.203125 1.21875 0.40625q0.875 0.203125 1.421875 0.484375q0.546875 0.265625 0.8125 0.65625q0.265625 0.375 0.265625 0.921875q0 0.921875 -0.734375 1.484375q-0.734375 0.546875 -1.90625 0.546875q-0.828125 0 -1.46875 -0.28125q-0.625 -0.296875 -0.984375 -0.8125q-0.359375 -0.53125 -0.359375 -1.140625l1.171875 0q0.03125 0.578125 0.46875 0.9375q0.4375 0.34375 1.171875 0.34375q0.65625 0 1.0625 -0.265625q0.40625 -0.28125 0.40625 -0.734375zm4.1535645 1.828125l-1.1875 0l0 -6.875l1.1875 0l0 6.875zm-1.28125 -8.6875q0 -0.28125 0.171875 -0.484375q0.1875 -0.203125 0.53125 -0.203125q0.34375 0 0.515625 0.203125q0.171875 0.203125 0.171875 0.484375q0 0.28125 -0.171875 0.46875q-0.171875 0.1875 -0.515625 0.1875q-0.34375 0 -0.53125 -0.1875q-0.171875 -0.1875 -0.171875 -0.46875zm3.812561 8.6875l0 -5.953125l-1.09375 0l0 -0.921875l1.09375 0l0 -0.703125q0 -1.09375 0.578125 -1.703125q0.59375 -0.609375 1.671875 -0.609375q0.40625 0 0.8125 0.109375l-0.0625 0.953125q-0.296875 -0.046875 -0.640625 -0.046875q-0.5625 0 -0.875 0.328125q-0.3125 0.328125 -0.3125 0.953125l0 0.71875l1.46875 0l0 0.921875l-1.46875 0l0 5.953125l-1.171875 0zm5.3302 0l-1.1875 0l0 -6.875l1.1875 0l0 6.875zm-1.28125 -8.6875q0 -0.28125 0.171875 -0.484375q0.1875 -0.203125 0.53125 -0.203125q0.34375 0 0.515625 0.203125q0.171875 0.203125 0.171875 0.484375q0 0.28125 -0.171875 0.46875q-0.171875 0.1875 -0.515625 0.1875q-0.34375 0 -0.53125 -0.1875q-0.171875 -0.1875 -0.171875 -0.46875zm5.984436 7.859375q0.625 0 1.09375 -0.375q0.484375 -0.390625 0.53125 -0.96875l1.109375 0q-0.03125 0.59375 -0.40625 1.125q-0.375 0.53125 -1.0 0.859375q-0.625 0.3125 -1.328125 0.3125q-1.40625 0 -2.234375 -0.9375q-0.828125 -0.9375 -0.828125 -2.5625l0 -0.1875q0 -1.015625 0.375 -1.78125q0.375 -0.78125 1.0625 -1.21875q0.6875 -0.4375 1.625 -0.4375q1.15625 0 1.921875 0.703125q0.765625 0.6875 0.8125 1.796875l-1.109375 0q-0.046875 -0.671875 -0.515625 -1.09375q-0.453125 -0.4375 -1.109375 -0.4375q-0.890625 0 -1.390625 0.65625q-0.484375 0.640625 -0.484375 1.859375l0 0.21875q0 1.1875 0.484375 1.828125q0.484375 0.640625 1.390625 0.640625zm8.460815 0.828125q-0.09375 -0.203125 -0.15625 -0.71875q-0.828125 0.84375 -1.953125 0.84375q-1.015625 0 -1.671875 -0.5625q-0.65625 -0.578125 -0.65625 -1.46875q0 -1.078125 0.8125 -1.671875q0.828125 -0.59375 2.296875 -0.59375l1.140625 0l0 -0.53125q0 -0.609375 -0.375 -0.96875q-0.359375 -0.375 -1.078125 -0.375q-0.625 0 -1.046875 0.3125q-0.421875 0.3125 -0.421875 0.765625l-1.1875 0q0 -0.515625 0.359375 -0.984375q0.375 -0.484375 1.0 -0.765625q0.625 -0.28125 1.375 -0.28125q1.1875 0 1.859375 0.59375q0.671875 0.59375 0.703125 1.640625l0 3.15625q0 0.953125 0.234375 1.5l0 0.109375l-1.234375 0zm-1.9375 -0.890625q0.546875 0 1.03125 -0.28125q0.5 -0.296875 0.71875 -0.75l0 -1.40625l-0.90625 0q-2.171875 0 -2.171875 1.265625q0 0.546875 0.375 0.859375q0.375 0.3125 0.953125 0.3125zm6.546631 -7.640625l0 1.65625l1.28125 0l0 0.921875l-1.28125 0l0 4.25q0 0.421875 0.171875 0.625q0.171875 0.203125 0.578125 0.203125q0.203125 0 0.5625 -0.078125l0 0.953125q-0.46875 0.125 -0.90625 0.125q-0.78125 0 -1.1875 -0.46875q-0.390625 -0.484375 -0.390625 -1.359375l0 -4.25l-1.25 0l0 -0.921875l1.25 0l0 -1.65625l1.171875 0zm4.04126 8.53125l-1.1875 0l0 -6.875l1.1875 0l0 6.875zm-1.28125 -8.6875q0 -0.28125 0.171875 -0.484375q0.1875 -0.203125 0.53125 -0.203125q0.34375 0 0.515625 0.203125q0.171875 0.203125 0.171875 0.484375q0 0.28125 -0.171875 0.46875q-0.171875 0.1875 -0.515625 0.1875q-0.34375 0 -0.53125 -0.1875q-0.171875 -0.1875 -0.171875 -0.46875zm2.921936 5.1875q0 -1.0 0.390625 -1.8125q0.40625 -0.8125 1.109375 -1.25q0.703125 -0.4375 1.609375 -0.4375q1.40625 0 2.265625 0.984375q0.875 0.96875 0.875 2.578125l0 0.078125q0 1.0 -0.390625 1.796875q-0.375 0.796875 -1.09375 1.25q-0.703125 0.4375 -1.640625 0.4375q-1.390625 0 -2.265625 -0.96875q-0.859375 -0.96875 -0.859375 -2.578125l0 -0.078125zm1.1875 0.140625q0 1.140625 0.515625 1.84375q0.53125 0.6875 1.421875 0.6875q0.90625 0 1.421875 -0.703125q0.53125 -0.703125 0.53125 -1.96875q0 -1.125 -0.546875 -1.828125q-0.53125 -0.703125 -1.421875 -0.703125q-0.859375 0 -1.390625 0.703125q-0.53125 0.6875 -0.53125 1.96875zm7.8355713 -3.515625l0.03125 0.875q0.796875 -1.0 2.0625 -1.0q2.171875 0 2.203125 2.46875l0 4.53125l-1.1875 0l0 -4.546875q0 -0.734375 -0.34375 -1.09375q-0.328125 -0.359375 -1.03125 -0.359375q-0.5625 0 -1.0 0.3125q-0.4375 0.296875 -0.671875 0.796875l0 4.890625l-1.171875 0l0 -6.875l1.109375 0z" fill-rule="nonzero"></path><path fill="#93c47d" d="m74.750656 321.8714l0 0c0 -18.508057 34.237877 -33.51181 76.47244 -33.51181l0 0c42.23456 0 76.47244 15.003754 76.47244 33.51181l0 0c0 18.508057 -34.237885 33.51181 -76.47244 33.51181l0 0c-42.234566 0 -76.47244 -15.003754 -76.47244 -33.51181z" fill-rule="evenodd"></path><path stroke="#000000" stroke-width="1.0" stroke-linejoin="round" stroke-linecap="butt" d="m74.750656 321.8714l0 0c0 -18.508057 34.237877 -33.51181 76.47244 -33.51181l0 0c42.23456 0 76.47244 15.003754 76.47244 33.51181l0 0c0 18.508057 -34.237885 33.51181 -76.47244 33.51181l0 0c-42.234566 0 -76.47244 -15.003754 -76.47244 -33.51181z" fill-rule="evenodd"></path><path fill="#000000" d="m133.65154 318.6714l0 -9.3125l1.234375 0l0 8.21875l4.578125 0l0 1.09375l-5.8125 0zm7.3187256 -7.984375l0 -1.328125l1.140625 0l0 1.328125l-1.140625 0zm0 7.984375l0 -6.734375l1.140625 0l0 6.734375l-1.140625 0zm2.96109 0l0 -6.734375l1.03125 0l0 0.953125q0.734375 -1.109375 2.140625 -1.109375q0.609375 0 1.109375 0.21875q0.515625 0.21875 0.765625 0.578125q0.265625 0.34375 0.359375 0.84375q0.0625 0.3125 0.0625 1.109375l0 4.140625l-1.140625 0l0 -4.09375q0 -0.703125 -0.140625 -1.046875q-0.125 -0.34375 -0.46875 -0.546875q-0.328125 -0.21875 -0.78125 -0.21875q-0.734375 0 -1.265625 0.46875q-0.53125 0.453125 -0.53125 1.75l0 3.6875l-1.140625 0zm12.021851 -2.171875l1.1875 0.140625q-0.28125 1.046875 -1.046875 1.625q-0.75 0.5625 -1.921875 0.5625q-1.484375 0 -2.359375 -0.90625q-0.859375 -0.921875 -0.859375 -2.5625q0 -1.703125 0.875 -2.640625q0.890625 -0.9375 2.28125 -0.9375q1.359375 0 2.203125 0.921875q0.859375 0.921875 0.859375 2.578125q0 0.109375 0 0.3125l-5.03125 0q0.0625 1.109375 0.625 1.703125q0.5625 0.59375 1.40625 0.59375q0.640625 0 1.078125 -0.328125q0.453125 -0.34375 0.703125 -1.0625zm-3.75 -1.84375l3.765625 0q-0.078125 -0.859375 -0.4375 -1.28125q-0.546875 -0.65625 -1.40625 -0.65625q-0.796875 0 -1.328125 0.53125q-0.53125 0.515625 -0.59375 1.40625zm10.943726 3.1875q-0.625 0.53125 -1.21875 0.765625q-0.578125 0.21875 -1.25 0.21875q-1.125 0 -1.71875 -0.546875q-0.59375 -0.546875 -0.59375 -1.390625q0 -0.484375 0.21875 -0.890625q0.234375 -0.421875 0.59375 -0.671875q0.375 -0.25 0.828125 -0.375q0.328125 -0.078125 1.015625 -0.171875q1.375 -0.15625 2.03125 -0.390625q0.015625 -0.234375 0.015625 -0.296875q0 -0.703125 -0.328125 -0.984375q-0.4375 -0.390625 -1.296875 -0.390625q-0.8125 0 -1.203125 0.28125q-0.375 0.28125 -0.5625 1.0l-1.109375 -0.140625q0.140625 -0.71875 0.484375 -1.15625q0.359375 -0.453125 1.015625 -0.6875q0.671875 -0.234375 1.53125 -0.234375q0.875 0 1.40625 0.203125q0.546875 0.203125 0.796875 0.515625q0.25 0.296875 0.359375 0.765625q0.046875 0.296875 0.046875 1.0625l0 1.515625q0 1.59375 0.078125 2.015625q0.078125 0.421875 0.28125 0.8125l-1.1875 0q-0.171875 -0.359375 -0.234375 -0.828125zm-0.09375 -2.5625q-0.625 0.265625 -1.859375 0.4375q-0.703125 0.109375 -1.0 0.234375q-0.296875 0.125 -0.453125 0.375q-0.15625 0.234375 -0.15625 0.53125q0 0.453125 0.34375 0.765625q0.34375 0.296875 1.015625 0.296875q0.65625 0 1.171875 -0.28125q0.515625 -0.296875 0.765625 -0.796875q0.171875 -0.375 0.171875 -1.140625l0 -0.421875zm3.0999756 3.390625l0 -6.734375l1.03125 0l0 1.015625q0.390625 -0.71875 0.71875 -0.9375q0.34375 -0.234375 0.734375 -0.234375q0.578125 0 1.171875 0.359375l-0.390625 1.0625q-0.421875 -0.25 -0.828125 -0.25q-0.375 0 -0.6875 0.234375q-0.296875 0.21875 -0.421875 0.625q-0.1875 0.609375 -0.1875 1.328125l0 3.53125l-1.140625 0z" fill-rule="nonzero"></path><path fill="#000000" d="m118.531166 334.6714l0 -9.3125l4.125 0q1.25 0 1.890625 0.265625q0.65625 0.25 1.046875 0.890625q0.390625 0.625 0.390625 1.390625q0 0.984375 -0.65625 1.671875q-0.640625 0.671875 -1.96875 0.859375q0.484375 0.234375 0.734375 0.46875q0.546875 0.484375 1.03125 1.234375l1.609375 2.53125l-1.546875 0l-1.234375 -1.9375q-0.53125 -0.84375 -0.890625 -1.28125q-0.34375 -0.4375 -0.625 -0.609375q-0.265625 -0.1875 -0.546875 -0.265625q-0.21875 -0.03125 -0.6875 -0.03125l-1.4375 0l0 4.125l-1.234375 0zm1.234375 -5.203125l2.65625 0q0.84375 0 1.3125 -0.171875q0.484375 -0.171875 0.71875 -0.546875q0.25 -0.390625 0.25 -0.84375q0 -0.65625 -0.484375 -1.078125q-0.46875 -0.4375 -1.5 -0.4375l-2.953125 0l0 3.078125zm12.843895 3.03125l1.1875 0.140625q-0.28125 1.046875 -1.046875 1.625q-0.75 0.5625 -1.921875 0.5625q-1.484375 0 -2.359375 -0.90625q-0.8593674 -0.921875 -0.8593674 -2.5625q0 -1.703125 0.8749924 -2.640625q0.890625 -0.9375 2.28125 -0.9375q1.359375 0 2.203125 0.921875q0.859375 0.921875 0.859375 2.578125q0 0.109375 0 0.3125l-5.03125 0q0.0625 1.109375 0.625 1.703125q0.5625 0.59375 1.40625 0.59375q0.640625 0 1.078125 -0.328125q0.453125 -0.34375 0.703125 -1.0625zm-3.75 -1.84375l3.765625 0q-0.078125 -0.859375 -0.4375 -1.28125q-0.546875 -0.65625 -1.40625 -0.65625q-0.796875 0 -1.328125 0.53125q-0.53125 0.515625 -0.59375 1.40625zm6.3343506 4.578125l1.125 0.15625q0.0625 0.515625 0.375 0.75q0.4375 0.328125 1.171875 0.328125q0.78125 0 1.21875 -0.328125q0.4375 -0.3125 0.578125 -0.890625q0.09375 -0.34375 0.09375 -1.453125q-0.75 0.875 -1.875 0.875q-1.390625 0 -2.15625 -1.0q-0.75 -1.0 -0.75 -2.40625q0 -0.96875 0.34375 -1.78125q0.359375 -0.8125 1.015625 -1.25q0.65625 -0.453125 1.5625 -0.453125q1.1875 0 1.96875 0.96875l0 -0.8125l1.046875 0l0 5.8125q0 1.578125 -0.328125 2.234375q-0.3125 0.65625 -1.015625 1.03125q-0.6875 0.390625 -1.703125 0.390625q-1.203125 0 -1.953125 -0.546875q-0.734375 -0.53125 -0.71875 -1.625zm0.953125 -4.046875q0 1.3125 0.515625 1.921875q0.53125 0.609375 1.328125 0.609375q0.796875 0 1.328125 -0.59375q0.53125 -0.609375 0.53125 -1.90625q0 -1.234375 -0.546875 -1.859375q-0.546875 -0.640625 -1.328125 -0.640625q-0.765625 0 -1.296875 0.625q-0.53125 0.625 -0.53125 1.84375zm6.6624756 3.484375l0 -6.734375l1.03125 0l0 1.015625q0.390625 -0.71875 0.71875 -0.9375q0.34375 -0.234375 0.734375 -0.234375q0.578125 0 1.171875 0.359375l-0.390625 1.0625q-0.421875 -0.25 -0.828125 -0.25q-0.375 0 -0.6875 0.234375q-0.296875 0.21875 -0.421875 0.625q-0.1875 0.609375 -0.1875 1.328125l0 3.53125l-1.140625 0zm9.06337 -2.171875l1.1875 0.140625q-0.28125 1.046875 -1.046875 1.625q-0.75 0.5625 -1.921875 0.5625q-1.484375 0 -2.359375 -0.90625q-0.859375 -0.921875 -0.859375 -2.5625q0 -1.703125 0.875 -2.640625q0.890625 -0.9375 2.28125 -0.9375q1.359375 0 2.203125 0.921875q0.859375 0.921875 0.859375 2.578125q0 0.109375 0 0.3125l-5.03125 0q0.0625 1.109375 0.625 1.703125q0.5625 0.59375 1.40625 0.59375q0.640625 0 1.078125 -0.328125q0.453125 -0.34375 0.703125 -1.0625zm-3.75 -1.84375l3.765625 0q-0.078125 -0.859375 -0.4375 -1.28125q-0.546875 -0.65625 -1.40625 -0.65625q-0.796875 0 -1.328125 0.53125q-0.53125 0.515625 -0.59375 1.40625zm6.0999756 2.0l1.125 -0.171875q0.09375 0.671875 0.53125 1.046875q0.4375 0.359375 1.21875 0.359375q0.78125 0 1.15625 -0.3125q0.390625 -0.328125 0.390625 -0.765625q0 -0.390625 -0.34375 -0.609375q-0.234375 -0.15625 -1.171875 -0.390625q-1.25 -0.3125 -1.734375 -0.546875q-0.484375 -0.234375 -0.734375 -0.640625q-0.25 -0.40625 -0.25 -0.90625q0 -0.453125 0.203125 -0.828125q0.203125 -0.390625 0.5625 -0.640625q0.265625 -0.203125 0.71875 -0.328125q0.46875 -0.140625 1.0 -0.140625q0.78125 0 1.375 0.234375q0.609375 0.21875 0.890625 0.609375q0.296875 0.390625 0.40625 1.046875l-1.125 0.15625q-0.078125 -0.53125 -0.4375 -0.8125q-0.359375 -0.296875 -1.03125 -0.296875q-0.78125 0 -1.125 0.265625q-0.34375 0.25 -0.34375 0.609375q0 0.21875 0.140625 0.390625q0.140625 0.1875 0.4375 0.3125q0.171875 0.0625 1.015625 0.28125q1.21875 0.328125 1.6875 0.53125q0.484375 0.203125 0.75 0.609375q0.28125 0.390625 0.28125 0.96875q0 0.578125 -0.34375 1.078125q-0.328125 0.5 -0.953125 0.78125q-0.625 0.28125 -1.421875 0.28125q-1.3125 0 -2.0 -0.546875q-0.6875 -0.546875 -0.875 -1.625zm6.6640625 0l1.125 -0.171875q0.09375 0.671875 0.53125 1.046875q0.4375 0.359375 1.21875 0.359375q0.78125 0 1.15625 -0.3125q0.390625 -0.328125 0.390625 -0.765625q0 -0.390625 -0.34375 -0.609375q-0.234375 -0.15625 -1.171875 -0.390625q-1.25 -0.3125 -1.734375 -0.546875q-0.484375 -0.234375 -0.734375 -0.640625q-0.25 -0.40625 -0.25 -0.90625q0 -0.453125 0.203125 -0.828125q0.203125 -0.390625 0.5625 -0.640625q0.265625 -0.203125 0.71875 -0.328125q0.46875 -0.140625 1.0 -0.140625q0.78125 0 1.375 0.234375q0.609375 0.21875 0.890625 0.609375q0.296875 0.390625 0.40625 1.046875l-1.125 0.15625q-0.078125 -0.53125 -0.4375 -0.8125q-0.359375 -0.296875 -1.03125 -0.296875q-0.78125 0 -1.125 0.265625q-0.34375 0.25 -0.34375 0.609375q0 0.21875 0.140625 0.390625q0.140625 0.1875 0.4375 0.3125q0.171875 0.0625 1.015625 0.28125q1.21875 0.328125 1.6875 0.53125q0.484375 0.203125 0.75 0.609375q0.28125 0.390625 0.28125 0.96875q0 0.578125 -0.34375 1.078125q-0.328125 0.5 -0.953125 0.78125q-0.625 0.28125 -1.421875 0.28125q-1.3125 0 -2.0 -0.546875q-0.6875 -0.546875 -0.875 -1.625zm7.1171875 -5.96875l0 -1.328125l1.140625 0l0 1.328125l-1.140625 0zm0 7.984375l0 -6.734375l1.140625 0l0 6.734375l-1.140625 0zm2.539215 -3.375q0 -1.875 1.03125 -2.765625q0.875 -0.75 2.125 -0.75q1.390625 0 2.265625 0.90625q0.890625 0.90625 0.890625 2.515625q0 1.296875 -0.390625 2.046875q-0.390625 0.75 -1.140625 1.171875q-0.75 0.40625 -1.625 0.40625q-1.421875 0 -2.296875 -0.90625q-0.859375 -0.90625 -0.859375 -2.625zm1.171875 0q0 1.296875 0.5625 1.953125q0.5625 0.640625 1.421875 0.640625q0.84375 0 1.40625 -0.640625q0.578125 -0.65625 0.578125 -1.984375q0 -1.25 -0.578125 -1.890625q-0.5625 -0.65625 -1.40625 -0.65625q-0.859375 0 -1.421875 0.640625q-0.5625 0.640625 -0.5625 1.9375zm6.6624756 3.375l0 -6.734375l1.03125 0l0 0.953125q0.734375 -1.109375 2.140625 -1.109375q0.609375 0 1.109375 0.21875q0.515625 0.21875 0.765625 0.578125q0.265625 0.34375 0.359375 0.84375q0.0625 0.3125 0.0625 1.109375l0 4.140625l-1.140625 0l0 -4.09375q0 -0.703125 -0.140625 -1.046875q-0.125 -0.34375 -0.46875 -0.546875q-0.328125 -0.21875 -0.78125 -0.21875q-0.734375 0 -1.265625 0.46875q-0.53125 0.453125 -0.53125 1.75l0 3.6875l-1.140625 0z" fill-rule="nonzero"></path><path fill="#93c47d" d="m278.67105 321.8714l0 0c0 -18.508057 34.237854 -33.51181 76.47244 -33.51181l0 0c42.23456 0 76.47244 15.003754 76.47244 33.51181l0 0c0 18.508057 -34.237885 33.51181 -76.47244 33.51181l0 0c-42.23459 0 -76.47244 -15.003754 -76.47244 -33.51181z" fill-rule="evenodd"></path><path stroke="#000000" stroke-width="1.0" stroke-linejoin="round" stroke-linecap="butt" d="m278.67105 321.8714l0 0c0 -18.508057 34.237854 -33.51181 76.47244 -33.51181l0 0c42.23456 0 76.47244 15.003754 76.47244 33.51181l0 0c0 18.508057 -34.237885 33.51181 -76.47244 33.51181l0 0c-42.23459 0 -76.47244 -15.003754 -76.47244 -33.51181z" fill-rule="evenodd"></path><path fill="#000000" d="m314.46225 314.5464q-1.5625 -0.453125 -2.28125 -1.109375q-0.71875 -0.65625 -0.71875 -1.609375q0 -1.09375 0.875 -1.8125q0.875 -0.71875 2.265625 -0.71875q0.953125 0 1.703125 0.375q0.75 0.359375 1.15625 1.015625q0.40625 0.640625 0.40625 1.421875l-1.21875 0q0 -0.84375 -0.546875 -1.3125q-0.53125 -0.484375 -1.5 -0.484375q-0.890625 0 -1.40625 0.390625q-0.5 0.390625 -0.5 1.09375q0 0.578125 0.46875 0.96875q0.484375 0.390625 1.640625 0.71875q1.15625 0.3125 1.796875 0.703125q0.65625 0.390625 0.96875 0.921875q0.3125 0.515625 0.3125 1.21875q0 1.125 -0.875 1.796875q-0.875 0.671875 -2.34375 0.671875q-0.953125 0 -1.78125 -0.359375q-0.8125 -0.375 -1.265625 -1.0q-0.4375 -0.640625 -0.4375 -1.4375l1.21875 0q0 0.828125 0.609375 1.3125q0.625 0.484375 1.65625 0.484375q0.96875 0 1.484375 -0.390625q0.515625 -0.390625 0.515625 -1.0625q0 -0.6875 -0.484375 -1.0625q-0.46875 -0.375 -1.71875 -0.734375zm9.235199 3.453125q-0.6875 0.796875 -2.015625 0.796875q-1.09375 0 -1.671875 -0.640625q-0.5625 -0.640625 -0.578125 -1.890625l0 -4.46875l1.171875 0l0 4.4375q0 1.5625 1.28125 1.5625q1.34375 0 1.78125 -1.0l0 -5.0l1.171875 0l0 6.875l-1.109375 0l-0.03125 -0.671875zm8.909912 -2.6875q0 1.5625 -0.71875 2.53125q-0.71875 0.953125 -1.9375 0.953125q-1.25 0 -1.96875 -0.796875l0 3.3125l-1.171875 0l0 -9.515625l1.078125 0l0.046875 0.765625q0.71875 -0.890625 2.0 -0.890625q1.234375 0 1.953125 0.9375q0.71875 0.9375 0.71875 2.59375l0 0.109375zm-1.171875 -0.125q0 -1.171875 -0.5 -1.84375q-0.484375 -0.671875 -1.359375 -0.671875q-1.0625 0 -1.59375 0.953125l0 3.28125q0.53125 0.9375 1.609375 0.9375q0.84375 0 1.34375 -0.671875q0.5 -0.671875 0.5 -1.984375zm8.649414 0.125q0 1.5625 -0.71875 2.53125q-0.71875 0.953125 -1.9375 0.953125q-1.25 0 -1.96875 -0.796875l0 3.3125l-1.171875 0l0 -9.515625l1.078125 0l0.046875 0.765625q0.71875 -0.890625 2.0 -0.890625q1.234375 0 1.953125 0.9375q0.71875 0.9375 0.71875 2.59375l0 0.109375zm-1.171875 -0.125q0 -1.171875 -0.5 -1.84375q-0.484375 -0.671875 -1.359375 -0.671875q-1.0625 0 -1.59375 0.953125l0 3.28125q0.53125 0.9375 1.609375 0.9375q0.84375 0 1.34375 -0.671875q0.5 -0.671875 0.5 -1.984375zm2.5400696 -0.015625q0 -1.0 0.390625 -1.8125q0.40625 -0.8125 1.109375 -1.25q0.703125 -0.4375 1.609375 -0.4375q1.40625 0 2.265625 0.984375q0.875 0.96875 0.875 2.578125l0 0.078125q0 1.0 -0.390625 1.796875q-0.375 0.796875 -1.09375 1.25q-0.703125 0.4375 -1.640625 0.4375q-1.390625 0 -2.265625 -0.96875q-0.859375 -0.96875 -0.859375 -2.578125l0 -0.078125zm1.1875 0.140625q0 1.140625 0.515625 1.84375q0.53125 0.6875 1.421875 0.6875q0.90625 0 1.421875 -0.703125q0.53125 -0.703125 0.53125 -1.96875q0 -1.125 -0.546875 -1.828125q-0.53125 -0.703125 -1.421875 -0.703125q-0.859375 0 -1.390625 0.703125q-0.53125 0.6875 -0.53125 1.96875zm10.038696 -2.453125q-0.265625 -0.046875 -0.578125 -0.046875q-1.15625 0 -1.5625 0.984375l0 4.875l-1.171875 0l0 -6.875l1.140625 0l0.015625 0.796875q0.578125 -0.921875 1.640625 -0.921875q0.34375 0 0.515625 0.09375l0 1.09375zm2.7911987 -2.71875l0 1.65625l1.28125 0l0 0.921875l-1.28125 0l0 4.25q0 0.421875 0.171875 0.625q0.171875 0.203125 0.578125 0.203125q0.203125 0 0.5625 -0.078125l0 0.953125q-0.46875 0.125 -0.90625 0.125q-0.78125 0 -1.1875 -0.46875q-0.390625 -0.484375 -0.390625 -1.359375l0 -4.25l-1.25 0l0 -0.921875l1.25 0l0 -1.65625l1.171875 0zm9.293915 6.90625l2.640625 -7.625l1.34375 0l-3.4375 9.25l-1.078125 0l-3.421875 -9.25l1.328125 0l2.625 7.625zm8.089142 1.75q-1.390625 0 -2.265625 -0.90625q-0.875 -0.921875 -0.875 -2.46875l0 -0.203125q0 -1.03125 0.390625 -1.828125q0.390625 -0.8125 1.09375 -1.265625q0.703125 -0.453125 1.515625 -0.453125q1.34375 0 2.078125 0.890625q0.75 0.875 0.75 2.515625l0 0.5l-4.65625 0q0.03125 1.015625 0.59375 1.640625q0.5625 0.625 1.4375 0.625q0.625 0 1.046875 -0.25q0.4375 -0.265625 0.765625 -0.6875l0.71875 0.5625q-0.859375 1.328125 -2.59375 1.328125zm-0.140625 -6.15625q-0.71875 0 -1.203125 0.515625q-0.46875 0.515625 -0.59375 1.453125l3.453125 0l0 -0.09375q-0.0625 -0.890625 -0.5 -1.375q-0.421875 -0.5 -1.15625 -0.5zm7.10791 5.203125q0.625 0 1.09375 -0.375q0.484375 -0.390625 0.53125 -0.96875l1.109375 0q-0.03125 0.59375 -0.40625 1.125q-0.375 0.53125 -1.0 0.859375q-0.625 0.3125 -1.328125 0.3125q-1.40625 0 -2.234375 -0.9375q-0.828125 -0.9375 -0.828125 -2.5625l0 -0.1875q0 -1.015625 0.375 -1.78125q0.375 -0.78125 1.0625 -1.21875q0.6875 -0.4375 1.625 -0.4375q1.15625 0 1.921875 0.703125q0.765625 0.6875 0.8125 1.796875l-1.109375 0q-0.046875 -0.671875 -0.515625 -1.09375q-0.453125 -0.4375 -1.109375 -0.4375q-0.890625 0 -1.390625 0.65625q-0.484375 0.640625 -0.484375 1.859375l0 0.21875q0 1.1875 0.484375 1.828125q0.484375 0.640625 1.390625 0.640625zm5.8201904 -7.703125l0 1.65625l1.28125 0l0 0.921875l-1.28125 0l0 4.25q0 0.421875 0.171875 0.625q0.171875 0.203125 0.578125 0.203125q0.203125 0 0.5625 -0.078125l0 0.953125q-0.46875 0.125 -0.90625 0.125q-0.78125 0 -1.1875 -0.46875q-0.390625 -0.484375 -0.390625 -1.359375l0 -4.25l-1.25 0l0 -0.921875l1.25 0l0 -1.65625l1.171875 0zm2.4475403 5.03125q0 -1.0 0.390625 -1.8125q0.40625 -0.8125 1.109375 -1.25q0.703125 -0.4375 1.609375 -0.4375q1.40625 0 2.265625 0.984375q0.875 0.96875 0.875 2.578125l0 0.078125q0 1.0 -0.390625 1.796875q-0.375 0.796875 -1.09375 1.25q-0.703125 0.4375 -1.640625 0.4375q-1.390625 0 -2.265625 -0.96875q-0.859375 -0.96875 -0.859375 -2.578125l0 -0.078125zm1.1875 0.140625q0 1.140625 0.515625 1.84375q0.53125 0.6875 1.421875 0.6875q0.90625 0 1.421875 -0.703125q0.53125 -0.703125 0.53125 -1.96875q0 -1.125 -0.546875 -1.828125q-0.53125 -0.703125 -1.421875 -0.703125q-0.859375 0 -1.390625 0.703125q-0.53125 0.6875 -0.53125 1.96875zm10.038696 -2.453125q-0.265625 -0.046875 -0.578125 -0.046875q-1.15625 0 -1.5625 0.984375l0 4.875l-1.171875 0l0 -6.875l1.140625 0l0.015625 0.796875q0.578125 -0.921875 1.640625 -0.921875q0.34375 0 0.515625 0.09375l0 1.09375z" fill-rule="nonzero"></path><path fill="#000000" d="m328.9217 325.4214l3.03125 7.546875l3.015625 -7.546875l1.578125 0l0 9.25l-1.21875 0l0 -3.59375l0.125 -3.890625l-3.046875 7.484375l-0.921875 0l-3.03125 -7.46875l0.125 3.875l0 3.59375l-1.21875 0l0 -9.25l1.5625 0zm14.120453 9.25q-0.09375 -0.203125 -0.15625 -0.71875q-0.828125 0.84375 -1.953125 0.84375q-1.015625 0 -1.671875 -0.5625q-0.65625 -0.578125 -0.65625 -1.46875q0 -1.078125 0.8125 -1.671875q0.828125 -0.59375 2.296875 -0.59375l1.140625 0l0 -0.53125q0 -0.609375 -0.375 -0.96875q-0.359375 -0.375 -1.078125 -0.375q-0.625 0 -1.046875 0.3125q-0.421875 0.3125 -0.421875 0.765625l-1.1875 0q0 -0.515625 0.359375 -0.984375q0.375 -0.484375 1.0 -0.765625q0.625 -0.28125 1.375 -0.28125q1.1875 0 1.859375 0.59375q0.671875 0.59375 0.703125 1.640625l0 3.15625q0 0.953125 0.234375 1.5l0 0.109375l-1.234375 0zm-1.9375 -0.890625q0.546875 0 1.03125 -0.28125q0.5 -0.296875 0.71875 -0.75l0 -1.40625l-0.90625 0q-2.171875 0 -2.171875 1.265625q0 0.546875 0.375 0.859375q0.375 0.3125 0.953125 0.3125zm7.702881 0.0625q0.625 0 1.09375 -0.375q0.484375 -0.390625 0.53125 -0.96875l1.109375 0q-0.03125 0.59375 -0.40625 1.125q-0.375 0.53125 -1.0 0.859375q-0.625 0.3125 -1.328125 0.3125q-1.40625 0 -2.234375 -0.9375q-0.828125 -0.9375 -0.828125 -2.5625l0 -0.1875q0 -1.015625 0.375 -1.78125q0.375 -0.78125 1.0625 -1.21875q0.6875 -0.4375 1.625 -0.4375q1.15625 0 1.921875 0.703125q0.765625 0.6875 0.8125 1.796875l-1.109375 0q-0.046875 -0.671875 -0.515625 -1.09375q-0.453125 -0.4375 -1.109375 -0.4375q-0.890625 0 -1.390625 0.65625q-0.484375 0.640625 -0.484375 1.859375l0 0.21875q0 1.1875 0.484375 1.828125q0.484375 0.640625 1.390625 0.640625zm5.3983154 -5.203125q0.78125 -0.96875 2.03125 -0.96875q2.171875 0 2.203125 2.46875l0 4.53125l-1.1875 0l0 -4.546875q0 -0.734375 -0.34375 -1.09375q-0.328125 -0.359375 -1.03125 -0.359375q-0.5625 0 -1.0 0.3125q-0.4375 0.296875 -0.671875 0.796875l0 4.890625l-1.171875 0l0 -9.75l1.171875 0l0 3.71875zm7.4502563 6.03125l-1.1875 0l0 -6.875l1.1875 0l0 6.875zm-1.28125 -8.6875q0 -0.28125 0.171875 -0.484375q0.1875 -0.203125 0.53125 -0.203125q0.34375 0 0.515625 0.203125q0.171875 0.203125 0.171875 0.484375q0 0.28125 -0.171875 0.46875q-0.171875 0.1875 -0.515625 0.1875q-0.34375 0 -0.53125 -0.1875q-0.171875 -0.1875 -0.171875 -0.46875zm4.343811 1.8125l0.03125 0.875q0.796875 -1.0 2.0625 -1.0q2.171875 0 2.203125 2.46875l0 4.53125l-1.1875 0l0 -4.546875q0 -0.734375 -0.34375 -1.09375q-0.328125 -0.359375 -1.03125 -0.359375q-0.5625 0 -1.0 0.3125q-0.4375 0.296875 -0.671875 0.796875l0 4.890625l-1.171875 0l0 -6.875l1.109375 0zm9.088257 7.0q-1.390625 0 -2.265625 -0.90625q-0.875 -0.921875 -0.875 -2.46875l0 -0.203125q0 -1.03125 0.390625 -1.828125q0.390625 -0.8125 1.09375 -1.265625q0.703125 -0.453125 1.515625 -0.453125q1.34375 0 2.078125 0.890625q0.75 0.875 0.75 2.515625l0 0.5l-4.65625 0q0.03125 1.015625 0.59375 1.640625q0.5625 0.625 1.4375 0.625q0.625 0 1.046875 -0.25q0.4375 -0.265625 0.765625 -0.6875l0.71875 0.5625q-0.859375 1.328125 -2.59375 1.328125zm-0.140625 -6.15625q-0.71875 0 -1.203125 0.515625q-0.46875 0.515625 -0.59375 1.453125l3.453125 0l0 -0.09375q-0.0625 -0.890625 -0.5 -1.375q-0.421875 -0.5 -1.15625 -0.5zm8.357941 4.203125q0 -0.46875 -0.359375 -0.734375q-0.359375 -0.265625 -1.25 -0.453125q-0.890625 -0.1875 -1.421875 -0.453125q-0.515625 -0.265625 -0.765625 -0.625q-0.25 -0.375 -0.25 -0.890625q0 -0.84375 0.703125 -1.421875q0.71875 -0.59375 1.828125 -0.59375q1.171875 0 1.890625 0.609375q0.734375 0.59375 0.734375 1.546875l-1.1875 0q0 -0.484375 -0.40625 -0.828125q-0.40625 -0.359375 -1.03125 -0.359375q-0.640625 0 -1.0 0.28125q-0.359375 0.28125 -0.359375 0.734375q0 0.421875 0.328125 0.640625q0.34375 0.203125 1.21875 0.40625q0.875 0.203125 1.421875 0.484375q0.546875 0.265625 0.8125 0.65625q0.265625 0.375 0.265625 0.921875q0 0.921875 -0.734375 1.484375q-0.734375 0.546875 -1.90625 0.546875q-0.828125 0 -1.46875 -0.28125q-0.625 -0.296875 -0.984375 -0.8125q-0.359375 -0.53125 -0.359375 -1.140625l1.171875 0q0.03125 0.578125 0.46875 0.9375q0.4375 0.34375 1.171875 0.34375q0.65625 0 1.0625 -0.265625q0.40625 -0.28125 0.40625 -0.734375z" fill-rule="nonzero"></path><path fill="#8e7cc3" d="m482.59143 321.8714l0 0c0 -18.508057 34.237854 -33.51181 76.47241 -33.51181l0 0c42.23456 0 76.47247 15.003754 76.47247 33.51181l0 0c0 18.508057 -34.237915 33.51181 -76.47247 33.51181l0 0c-42.23456 0 -76.47241 -15.003754 -76.47241 -33.51181z" fill-rule="evenodd"></path><path stroke="#000000" stroke-width="1.0" stroke-linejoin="round" stroke-linecap="butt" d="m482.59143 321.8714l0 0c0 -18.508057 34.237854 -33.51181 76.47241 -33.51181l0 0c42.23456 0 76.47247 15.003754 76.47247 33.51181l0 0c0 18.508057 -34.237915 33.51181 -76.47247 33.51181l0 0c-42.23456 0 -76.47241 -15.003754 -76.47241 -33.51181z" fill-rule="evenodd"></path><path fill="#000000" d="m537.89984 317.6714l4.375 0l0 1.0l-5.59375 0l0 -9.25l1.21875 0l0 8.25zm5.452942 -2.5q0 -1.0 0.390625 -1.8125q0.40625 -0.8125 1.109375 -1.25q0.703125 -0.4375 1.609375 -0.4375q1.40625 0 2.265625 0.984375q0.875 0.96875 0.875 2.578125l0 0.078125q0 1.0 -0.390625 1.796875q-0.375 0.796875 -1.09375 1.25q-0.703125 0.4375 -1.640625 0.4375q-1.390625 0 -2.265625 -0.96875q-0.859375 -0.96875 -0.859375 -2.578125l0 -0.078125zm1.1875 0.140625q0 1.140625 0.515625 1.84375q0.53125 0.6875 1.421875 0.6875q0.90625 0 1.421875 -0.703125q0.53125 -0.703125 0.53125 -1.96875q0 -1.125 -0.546875 -1.828125q-0.53125 -0.703125 -1.421875 -0.703125q-0.859375 0 -1.390625 0.703125q-0.53125 0.6875 -0.53125 1.96875zm6.4449463 -0.125q0 -1.609375 0.734375 -2.5625q0.75 -0.953125 1.96875 -0.953125q1.265625 0 1.96875 0.890625l0.0625 -0.765625l1.0625 0l0 6.703125q0 1.34375 -0.796875 2.109375q-0.78125 0.765625 -2.109375 0.765625q-0.75 0 -1.46875 -0.328125q-0.703125 -0.3125 -1.078125 -0.859375l0.609375 -0.703125q0.765625 0.9375 1.859375 0.9375q0.84375 0 1.328125 -0.484375q0.484375 -0.484375 0.484375 -1.359375l0 -0.59375q-0.703125 0.8125 -1.921875 0.8125q-1.21875 0 -1.96875 -0.96875q-0.734375 -0.96875 -0.734375 -2.640625zm1.1875 0.125q0 1.15625 0.46875 1.828125q0.484375 0.65625 1.328125 0.65625q1.109375 0 1.640625 -1.0l0 -3.140625q-0.546875 -0.984375 -1.625 -0.984375q-0.859375 0 -1.34375 0.671875q-0.46875 0.65625 -0.46875 1.96875zm7.852539 3.359375l-1.1875 0l0 -6.875l1.1875 0l0 6.875zm-1.28125 -8.6875q0 -0.28125 0.171875 -0.484375q0.1875 -0.203125 0.53125 -0.203125q0.34375 0 0.515625 0.203125q0.171875 0.203125 0.171875 0.484375q0 0.28125 -0.171875 0.46875q-0.171875 0.1875 -0.515625 0.1875q-0.34375 0 -0.53125 -0.1875q-0.171875 -0.1875 -0.171875 -0.46875zm7.234436 6.859375q0 -0.46875 -0.359375 -0.734375q-0.359375 -0.265625 -1.25 -0.453125q-0.890625 -0.1875 -1.421875 -0.453125q-0.515625 -0.265625 -0.765625 -0.625q-0.25 -0.375 -0.25 -0.890625q0 -0.84375 0.703125 -1.421875q0.71875 -0.59375 1.828125 -0.59375q1.171875 0 1.890625 0.609375q0.734375 0.59375 0.734375 1.546875l-1.1875 0q0 -0.484375 -0.40625 -0.828125q-0.40625 -0.359375 -1.03125 -0.359375q-0.640625 0 -1.0 0.28125q-0.359375 0.28125 -0.359375 0.734375q0 0.421875 0.328125 0.640625q0.34375 0.203125 1.21875 0.40625q0.875 0.203125 1.421875 0.484375q0.546875 0.265625 0.8125 0.65625q0.265625 0.375 0.265625 0.921875q0 0.921875 -0.734375 1.484375q-0.734375 0.546875 -1.90625 0.546875q-0.828125 0 -1.46875 -0.28125q-0.625 -0.296875 -0.984375 -0.8125q-0.359375 -0.53125 -0.359375 -1.140625l1.171875 0q0.03125 0.578125 0.46875 0.9375q0.4375 0.34375 1.171875 0.34375q0.65625 0 1.0625 -0.265625q0.40625 -0.28125 0.40625 -0.734375zm4.4660645 -6.703125l0 1.65625l1.28125 0l0 0.921875l-1.28125 0l0 4.25q0 0.421875 0.171875 0.625q0.171875 0.203125 0.578125 0.203125q0.203125 0 0.5625 -0.078125l0 0.953125q-0.46875 0.125 -0.90625 0.125q-0.78125 0 -1.1875 -0.46875q-0.390625 -0.484375 -0.390625 -1.359375l0 -4.25l-1.25 0l0 -0.921875l1.25 0l0 -1.65625l1.171875 0zm4.04126 8.53125l-1.1875 0l0 -6.875l1.1875 0l0 6.875zm-1.28125 -8.6875q0 -0.28125 0.171875 -0.484375q0.1875 -0.203125 0.53125 -0.203125q0.34375 0 0.515625 0.203125q0.171875 0.203125 0.171875 0.484375q0 0.28125 -0.171875 0.46875q-0.171875 0.1875 -0.515625 0.1875q-0.34375 0 -0.53125 -0.1875q-0.171875 -0.1875 -0.171875 -0.46875zm5.984436 7.859375q0.625 0 1.09375 -0.375q0.484375 -0.390625 0.53125 -0.96875l1.109375 0q-0.03125 0.59375 -0.40625 1.125q-0.375 0.53125 -1.0 0.859375q-0.625 0.3125 -1.328125 0.3125q-1.40625 0 -2.234375 -0.9375q-0.828125 -0.9375 -0.828125 -2.5625l0 -0.1875q0 -1.015625 0.375 -1.78125q0.375 -0.78125 1.0625 -1.21875q0.6875 -0.4375 1.625 -0.4375q1.15625 0 1.921875 0.703125q0.765625 0.6875 0.8125 1.796875l-1.109375 0q-0.046875 -0.671875 -0.515625 -1.09375q-0.453125 -0.4375 -1.109375 -0.4375q-0.890625 0 -1.390625 0.65625q-0.484375 0.640625 -0.484375 1.859375l0 0.21875q0 1.1875 0.484375 1.828125q0.484375 0.640625 1.390625 0.640625z" fill-rule="nonzero"></path><path fill="#000000" d="m530.40753 330.937l-2.171875 0l0 3.734375l-1.234375 0l0 -9.25l3.0625 0q1.5625 0 2.40625 0.71875q0.84375 0.703125 0.84375 2.0625q0 0.875 -0.46875 1.515625q-0.46875 0.640625 -1.296875 0.953125l2.171875 3.921875l0 0.078125l-1.3125 0l-2.0 -3.734375zm-2.171875 -1.0l1.875 0q0.90625 0 1.4375 -0.46875q0.53125 -0.46875 0.53125 -1.265625q0 -0.84375 -0.515625 -1.296875q-0.5 -0.46875 -1.46875 -0.46875l-1.859375 0l0 3.5zm9.643921 4.859375q-1.390625 0 -2.265625 -0.90625q-0.875 -0.921875 -0.875 -2.46875l0 -0.203125q0 -1.03125 0.390625 -1.828125q0.390625 -0.8125 1.09375 -1.265625q0.703125 -0.453125 1.515625 -0.453125q1.34375 0 2.078125 0.890625q0.75 0.875 0.75 2.515625l0 0.5l-4.65625 0q0.03125 1.015625 0.59375 1.640625q0.5625 0.625 1.4375 0.625q0.625 0 1.046875 -0.25q0.4375 -0.265625 0.765625 -0.6875l0.71875 0.5625q-0.859375 1.328125 -2.59375 1.328125zm-0.140625 -6.15625q-0.71875 0 -1.203125 0.515625q-0.46875 0.515625 -0.59375 1.453125l3.453125 0l0 -0.09375q-0.0625 -0.890625 -0.5 -1.375q-0.421875 -0.5 -1.15625 -0.5zm4.07666 2.546875q0 -1.609375 0.734375 -2.5625q0.75 -0.953125 1.96875 -0.953125q1.265625 0 1.96875 0.890625l0.0625 -0.765625l1.0625 0l0 6.703125q0 1.34375 -0.796875 2.109375q-0.78125 0.765625 -2.109375 0.765625q-0.75 0 -1.46875 -0.328125q-0.703125 -0.3125 -1.078125 -0.859375l0.609375 -0.703125q0.765625 0.9375 1.859375 0.9375q0.84375 0 1.328125 -0.484375q0.484375 -0.484375 0.484375 -1.359375l0 -0.59375q-0.703125 0.8125 -1.921875 0.8125q-1.21875 0 -1.96875 -0.96875q-0.734375 -0.96875 -0.734375 -2.640625zm1.1875 0.125q0 1.15625 0.46875 1.828125q0.484375 0.65625 1.328125 0.65625q1.109375 0 1.640625 -1.0l0 -3.140625q-0.546875 -0.984375 -1.625 -0.984375q-0.859375 0 -1.34375 0.671875q-0.46875 0.65625 -0.46875 1.96875zm9.88385 -2.453125q-0.265625 -0.046875 -0.578125 -0.046875q-1.15625 0 -1.5625 0.984375l0 4.875l-1.171875 0l0 -6.875l1.140625 0l0.015625 0.796875q0.578125 -0.921875 1.640625 -0.921875q0.34375 0 0.515625 0.09375l0 1.09375zm4.0411987 5.9375q-1.390625 0 -2.265625 -0.90625q-0.875 -0.921875 -0.875 -2.46875l0 -0.203125q0 -1.03125 0.390625 -1.828125q0.390625 -0.8125 1.09375 -1.265625q0.703125 -0.453125 1.515625 -0.453125q1.34375 0 2.078125 0.890625q0.75 0.875 0.75 2.515625l0 0.5l-4.65625 0q0.03125 1.015625 0.59375 1.640625q0.5625 0.625 1.4375 0.625q0.625 0 1.046875 -0.25q0.4375 -0.265625 0.765625 -0.6875l0.71875 0.5625q-0.859375 1.328125 -2.59375 1.328125zm-0.140625 -6.15625q-0.71875 0 -1.203125 0.515625q-0.46875 0.515625 -0.59375 1.453125l3.453125 0l0 -0.09375q-0.0625 -0.890625 -0.5 -1.375q-0.421875 -0.5 -1.15625 -0.5zm8.35791 4.203125q0 -0.46875 -0.359375 -0.734375q-0.359375 -0.265625 -1.25 -0.453125q-0.890625 -0.1875 -1.421875 -0.453125q-0.515625 -0.265625 -0.765625 -0.625q-0.25 -0.375 -0.25 -0.890625q0 -0.84375 0.703125 -1.421875q0.71875 -0.59375 1.828125 -0.59375q1.171875 0 1.890625 0.609375q0.734375 0.59375 0.734375 1.546875l-1.1875 0q0 -0.484375 -0.40625 -0.828125q-0.40625 -0.359375 -1.03125 -0.359375q-0.640625 0 -1.0 0.28125q-0.359375 0.28125 -0.359375 0.734375q0 0.421875 0.328125 0.640625q0.34375 0.203125 1.21875 0.40625q0.875 0.203125 1.421875 0.484375q0.546875 0.265625 0.8125 0.65625q0.265625 0.375 0.265625 0.921875q0 0.921875 -0.734375 1.484375q-0.734375 0.546875 -1.90625 0.546875q-0.828125 0 -1.46875 -0.28125q-0.625 -0.296875 -0.984375 -0.8125q-0.359375 -0.53125 -0.359375 -1.140625l1.171875 0q0.03125 0.578125 0.46875 0.9375q0.4375 0.34375 1.171875 0.34375q0.65625 0 1.0625 -0.265625q0.40625 -0.28125 0.40625 -0.734375zm6.8723145 0q0 -0.46875 -0.359375 -0.734375q-0.359375 -0.265625 -1.25 -0.453125q-0.890625 -0.1875 -1.421875 -0.453125q-0.515625 -0.265625 -0.765625 -0.625q-0.25 -0.375 -0.25 -0.890625q0 -0.84375 0.703125 -1.421875q0.71875 -0.59375 1.828125 -0.59375q1.171875 0 1.890625 0.609375q0.734375 0.59375 0.734375 1.546875l-1.1875 0q0 -0.484375 -0.40625 -0.828125q-0.40625 -0.359375 -1.03125 -0.359375q-0.640625 0 -1.0 0.28125q-0.359375 0.28125 -0.359375 0.734375q0 0.421875 0.328125 0.640625q0.34375 0.203125 1.21875 0.40625q0.875 0.203125 1.421875 0.484375q0.546875 0.265625 0.8125 0.65625q0.265625 0.375 0.265625 0.921875q0 0.921875 -0.734375 1.484375q-0.734375 0.546875 -1.90625 0.546875q-0.828125 0 -1.46875 -0.28125q-0.625 -0.296875 -0.984375 -0.8125q-0.359375 -0.53125 -0.359375 -1.140625l1.171875 0q0.03125 0.578125 0.46875 0.9375q0.4375 0.34375 1.171875 0.34375q0.65625 0 1.0625 -0.265625q0.40625 -0.28125 0.40625 -0.734375zm4.1535645 1.828125l-1.1875 0l0 -6.875l1.1875 0l0 6.875zm-1.28125 -8.6875q0 -0.28125 0.171875 -0.484375q0.1875 -0.203125 0.53125 -0.203125q0.34375 0 0.515625 0.203125q0.171875 0.203125 0.171875 0.484375q0 0.28125 -0.171875 0.46875q-0.171875 0.1875 -0.515625 0.1875q-0.34375 0 -0.53125 -0.1875q-0.171875 -0.1875 -0.171875 -0.46875zm2.921936 5.1875q0 -1.0 0.390625 -1.8125q0.40625 -0.8125 1.109375 -1.25q0.703125 -0.4375 1.609375 -0.4375q1.40625 0 2.265625 0.984375q0.875 0.96875 0.875 2.578125l0 0.078125q0 1.0 -0.390625 1.796875q-0.375 0.796875 -1.09375 1.25q-0.703125 0.4375 -1.640625 0.4375q-1.390625 0 -2.265625 -0.96875q-0.859375 -0.96875 -0.859375 -2.578125l0 -0.078125zm1.1875 0.140625q0 1.140625 0.515625 1.84375q0.53125 0.6875 1.421875 0.6875q0.90625 0 1.421875 -0.703125q0.53125 -0.703125 0.53125 -1.96875q0 -1.125 -0.546875 -1.828125q-0.53125 -0.703125 -1.421875 -0.703125q-0.859375 0 -1.390625 0.703125q-0.53125 0.6875 -0.53125 1.96875zm7.8355713 -3.515625l0.03125 0.875q0.796875 -1.0 2.0625 -1.0q2.171875 0 2.203125 2.46875l0 4.53125l-1.1875 0l0 -4.546875q0 -0.734375 -0.34375 -1.09375q-0.328125 -0.359375 -1.03125 -0.359375q-0.5625 0 -1.0 0.3125q-0.4375 0.296875 -0.671875 0.796875l0 4.890625l-1.171875 0l0 -6.875l1.109375 0z" fill-rule="nonzero"></path><path fill="#8e7cc3" d="m686.51184 321.8714l0 0c0 -18.508057 34.237854 -33.51181 76.47241 -33.51181l0 0c42.23456 0 76.47241 15.003754 76.47241 33.51181l0 0c0 18.508057 -34.237854 33.51181 -76.47241 33.51181l0 0c-42.23456 0 -76.47241 -15.003754 -76.47241 -33.51181z" fill-rule="evenodd"></path><path stroke="#000000" stroke-width="1.0" stroke-linejoin="round" stroke-linecap="butt" d="m686.51184 321.8714l0 0c0 -18.508057 34.237854 -33.51181 76.47241 -33.51181l0 0c42.23456 0 76.47241 15.003754 76.47241 33.51181l0 0c0 18.508057 -34.237854 33.51181 -76.47241 33.51181l0 0c-42.23456 0 -76.47241 -15.003754 -76.47241 -33.51181z" fill-rule="evenodd"></path><path fill="#000000" d="m737.2736 314.3745l-1.125 1.171875l0 3.125l-1.21875 0l0 -9.25l1.21875 0l0 4.578125l4.109375 -4.578125l1.46875 0l-3.640625 4.09375l3.921875 5.15625l-1.453125 0l-3.28125 -4.296875zm16.405579 4.296875l-1.21875 0l-4.65625 -7.125l0 7.125l-1.21875 0l0 -9.25l1.21875 0l4.671875 7.15625l0 -7.15625l1.203125 0l0 9.25zm5.064026 0.125q-1.390625 0 -2.265625 -0.90625q-0.875 -0.921875 -0.875 -2.46875l0 -0.203125q0 -1.03125 0.390625 -1.828125q0.390625 -0.8125 1.09375 -1.265625q0.703125 -0.453125 1.515625 -0.453125q1.34375 0 2.078125 0.890625q0.75 0.875 0.75 2.515625l0 0.5l-4.65625 0q0.03125 1.015625 0.59375 1.640625q0.5625 0.625 1.4375 0.625q0.625 0 1.046875 -0.25q0.4375 -0.265625 0.765625 -0.6875l0.71875 0.5625q-0.859375 1.328125 -2.59375 1.328125zm-0.140625 -6.15625q-0.71875 0 -1.203125 0.515625q-0.46875 0.515625 -0.59375 1.453125l3.453125 0l0 -0.09375q-0.0625 -0.890625 -0.5 -1.375q-0.421875 -0.5 -1.15625 -0.5zm8.592285 6.03125q-0.09375 -0.203125 -0.15625 -0.71875q-0.828125 0.84375 -1.953125 0.84375q-1.015625 0 -1.671875 -0.5625q-0.65625 -0.578125 -0.65625 -1.46875q0 -1.078125 0.8125 -1.671875q0.828125 -0.59375 2.296875 -0.59375l1.140625 0l0 -0.53125q0 -0.609375 -0.375 -0.96875q-0.359375 -0.375 -1.078125 -0.375q-0.625 0 -1.046875 0.3125q-0.421875 0.3125 -0.421875 0.765625l-1.1875 0q0 -0.515625 0.359375 -0.984375q0.375 -0.484375 1.0 -0.765625q0.625 -0.28125 1.375 -0.28125q1.1875 0 1.859375 0.59375q0.671875 0.59375 0.703125 1.640625l0 3.15625q0 0.953125 0.234375 1.5l0 0.109375l-1.234375 0zm-1.9375 -0.890625q0.546875 0 1.03125 -0.28125q0.5 -0.296875 0.71875 -0.75l0 -1.40625l-0.90625 0q-2.171875 0 -2.171875 1.265625q0 0.546875 0.375 0.859375q0.375 0.3125 0.953125 0.3125zm8.265381 -4.921875q-0.265625 -0.046875 -0.578125 -0.046875q-1.15625 0 -1.5625 0.984375l0 4.875l-1.171875 0l0 -6.875l1.140625 0l0.015625 0.796875q0.578125 -0.921875 1.640625 -0.921875q0.34375 0 0.515625 0.09375l0 1.09375zm4.04126 5.9375q-1.390625 0 -2.265625 -0.90625q-0.875 -0.921875 -0.875 -2.46875l0 -0.203125q0 -1.03125 0.390625 -1.828125q0.390625 -0.8125 1.09375 -1.265625q0.703125 -0.453125 1.515625 -0.453125q1.34375 0 2.078125 0.890625q0.75 0.875 0.75 2.515625l0 0.5l-4.65625 0q0.03125 1.015625 0.59375 1.640625q0.5625 0.625 1.4375 0.625q0.625 0 1.046875 -0.25q0.4375 -0.265625 0.765625 -0.6875l0.71875 0.5625q-0.859375 1.328125 -2.59375 1.328125zm-0.140625 -6.15625q-0.71875 0 -1.203125 0.515625q-0.46875 0.515625 -0.59375 1.453125l3.453125 0l0 -0.09375q-0.0625 -0.890625 -0.5 -1.375q-0.421875 -0.5 -1.15625 -0.5zm8.35791 4.203125q0 -0.46875 -0.359375 -0.734375q-0.359375 -0.265625 -1.25 -0.453125q-0.890625 -0.1875 -1.421875 -0.453125q-0.515625 -0.265625 -0.765625 -0.625q-0.25 -0.375 -0.25 -0.890625q0 -0.84375 0.703125 -1.421875q0.71875 -0.59375 1.828125 -0.59375q1.171875 0 1.890625 0.609375q0.734375 0.59375 0.734375 1.546875l-1.1875 0q0 -0.484375 -0.40625 -0.828125q-0.40625 -0.359375 -1.03125 -0.359375q-0.640625 0 -1.0 0.28125q-0.359375 0.28125 -0.359375 0.734375q0 0.421875 0.328125 0.640625q0.34375 0.203125 1.21875 0.40625q0.875 0.203125 1.421875 0.484375q0.546875 0.265625 0.8125 0.65625q0.265625 0.375 0.265625 0.921875q0 0.921875 -0.734375 1.484375q-0.734375 0.546875 -1.90625 0.546875q-0.828125 0 -1.46875 -0.28125q-0.625 -0.296875 -0.984375 -0.8125q-0.359375 -0.53125 -0.359375 -1.140625l1.171875 0q0.03125 0.578125 0.46875 0.9375q0.4375 0.34375 1.171875 0.34375q0.65625 0 1.0625 -0.265625q0.40625 -0.28125 0.40625 -0.734375zm4.4660645 -6.703125l0 1.65625l1.28125 0l0 0.921875l-1.28125 0l0 4.25q0 0.421875 0.171875 0.625q0.171875 0.203125 0.578125 0.203125q0.203125 0 0.5625 -0.078125l0 0.953125q-0.46875 0.125 -0.90625 0.125q-0.78125 0 -1.1875 -0.46875q-0.390625 -0.484375 -0.390625 -1.359375l0 -4.25l-1.25 0l0 -0.921875l1.25 0l0 -1.65625l1.171875 0z" fill-rule="nonzero"></path><path fill="#000000" d="m740.6179 334.6714l-1.21875 0l-4.65625 -7.125l0 7.125l-1.21875 0l0 -9.25l1.21875 0l4.671875 7.15625l0 -7.15625l1.203125 0l0 9.25zm5.063965 0.125q-1.390625 0 -2.265625 -0.90625q-0.875 -0.921875 -0.875 -2.46875l0 -0.203125q0 -1.03125 0.390625 -1.828125q0.390625 -0.8125 1.09375 -1.265625q0.703125 -0.453125 1.515625 -0.453125q1.34375 0 2.078125 0.890625q0.75 0.875 0.75 2.515625l0 0.5l-4.65625 0q0.03125 1.015625 0.59375 1.640625q0.5625 0.625 1.4375 0.625q0.625 0 1.046875 -0.25q0.4375 -0.265625 0.765625 -0.6875l0.71875 0.5625q-0.859375 1.328125 -2.59375 1.328125zm-0.140625 -6.15625q-0.71875 0 -1.203125 0.515625q-0.46875 0.515625 -0.59375 1.453125l3.453125 0l0 -0.09375q-0.0625 -0.890625 -0.5 -1.375q-0.421875 -0.5 -1.15625 -0.5zm5.639221 6.03125l-1.1875 0l0 -6.875l1.1875 0l0 6.875zm-1.28125 -8.6875q0 -0.28125 0.171875 -0.484375q0.1875 -0.203125 0.53125 -0.203125q0.34375 0 0.515625 0.203125q0.171875 0.203125 0.171875 0.484375q0 0.28125 -0.171875 0.46875q-0.171875 0.1875 -0.515625 0.1875q-0.34375 0 -0.53125 -0.1875q-0.171875 -0.1875 -0.171875 -0.46875zm2.953125 5.203125q0 -1.609375 0.734375 -2.5625q0.75 -0.953125 1.96875 -0.953125q1.265625 0 1.96875 0.890625l0.0625 -0.765625l1.0625 0l0 6.703125q0 1.34375 -0.796875 2.109375q-0.78125 0.765625 -2.109375 0.765625q-0.75 0 -1.46875 -0.328125q-0.703125 -0.3125 -1.078125 -0.859375l0.609375 -0.703125q0.765625 0.9375 1.859375 0.9375q0.84375 0 1.328125 -0.484375q0.484375 -0.484375 0.484375 -1.359375l0 -0.59375q-0.703125 0.8125 -1.921875 0.8125q-1.21875 0 -1.96875 -0.96875q-0.734375 -0.96875 -0.734375 -2.640625zm1.1875 0.125q0 1.15625 0.46875 1.828125q0.484375 0.65625 1.328125 0.65625q1.109375 0 1.640625 -1.0l0 -3.140625q-0.546875 -0.984375 -1.625 -0.984375q-0.859375 0 -1.34375 0.671875q-0.46875 0.65625 -0.46875 1.96875zm7.743225 -2.671875q0.78125 -0.96875 2.03125 -0.96875q2.171875 0 2.203125 2.46875l0 4.53125l-1.1875 0l0 -4.546875q0 -0.734375 -0.34375 -1.09375q-0.328125 -0.359375 -1.03125 -0.359375q-0.5625 0 -1.0 0.3125q-0.4375 0.296875 -0.671875 0.796875l0 4.890625l-1.171875 0l0 -9.75l1.171875 0l0 3.71875zm11.981506 2.671875q0 1.578125 -0.734375 2.53125q-0.71875 0.953125 -1.9375 0.953125q-1.296875 0 -2.0 -0.921875l-0.0625 0.796875l-1.078125 0l0 -9.75l1.171875 0l0 3.640625q0.71875 -0.890625 1.96875 -0.890625q1.25 0 1.953125 0.953125q0.71875 0.9375 0.71875 2.59375l0 0.09375zm-1.171875 -0.125q0 -1.203125 -0.46875 -1.859375q-0.453125 -0.65625 -1.328125 -0.65625q-1.15625 0 -1.671875 1.078125l0 2.96875q0.546875 1.078125 1.6875 1.078125q0.84375 0 1.3125 -0.640625q0.46875 -0.65625 0.46875 -1.96875zm2.524414 -0.015625q0 -1.0 0.390625 -1.8125q0.40625 -0.8125 1.109375 -1.25q0.703125 -0.4375 1.609375 -0.4375q1.40625 0 2.265625 0.984375q0.875 0.96875 0.875 2.578125l0 0.078125q0 1.0 -0.390625 1.796875q-0.375 0.796875 -1.09375 1.25q-0.703125 0.4375 -1.640625 0.4375q-1.390625 0 -2.265625 -0.96875q-0.859375 -0.96875 -0.859375 -2.578125l0 -0.078125zm1.1875 0.140625q0 1.140625 0.515625 1.84375q0.53125 0.6875 1.421875 0.6875q0.90625 0 1.421875 -0.703125q0.53125 -0.703125 0.53125 -1.96875q0 -1.125 -0.546875 -1.828125q-0.53125 -0.703125 -1.421875 -0.703125q-0.859375 0 -1.390625 0.703125q-0.53125 0.6875 -0.53125 1.96875zm10.038696 -2.453125q-0.265625 -0.046875 -0.578125 -0.046875q-1.15625 0 -1.5625 0.984375l0 4.875l-1.171875 0l0 -6.875l1.140625 0l0.015625 0.796875q0.578125 -0.921875 1.640625 -0.921875q0.34375 0 0.515625 0.09375l0 1.09375zm5.1974487 3.984375q0 -0.46875 -0.359375 -0.734375q-0.359375 -0.265625 -1.25 -0.453125q-0.890625 -0.1875 -1.421875 -0.453125q-0.515625 -0.265625 -0.765625 -0.625q-0.25 -0.375 -0.25 -0.890625q0 -0.84375 0.703125 -1.421875q0.71875 -0.59375 1.828125 -0.59375q1.171875 0 1.890625 0.609375q0.734375 0.59375 0.734375 1.546875l-1.1875 0q0 -0.484375 -0.40625 -0.828125q-0.40625 -0.359375 -1.03125 -0.359375q-0.640625 0 -1.0 0.28125q-0.359375 0.28125 -0.359375 0.734375q0 0.421875 0.328125 0.640625q0.34375 0.203125 1.21875 0.40625q0.875 0.203125 1.421875 0.484375q0.546875 0.265625 0.8125 0.65625q0.265625 0.375 0.265625 0.921875q0 0.921875 -0.734375 1.484375q-0.734375 0.546875 -1.90625 0.546875q-0.828125 0 -1.46875 -0.28125q-0.625 -0.296875 -0.984375 -0.8125q-0.359375 -0.53125 -0.359375 -1.140625l1.171875 0q0.03125 0.578125 0.46875 0.9375q0.4375 0.34375 1.171875 0.34375q0.65625 0 1.0625 -0.265625q0.40625 -0.28125 0.40625 -0.734375z" fill-rule="nonzero"></path><path fill="#000000" fill-opacity="0.0" d="m151.2231 288.3596l0 -23.88739l102.99213 0l0 -23.89215" fill-rule="evenodd"></path><path stroke="#000000" stroke-width="1.0" stroke-linejoin="round" stroke-linecap="butt" d="m151.2231 288.3596l0 -23.88739l102.99213 0l0 -23.89215" fill-rule="evenodd"></path><path fill="#000000" fill-opacity="0.0" d="m254.2126 240.5853l0 23.88739l100.94487 0l0 23.89215" fill-rule="evenodd"></path><path stroke="#000000" stroke-width="1.0" stroke-linejoin="round" stroke-linecap="butt" d="m254.2126 240.5853l0 23.88739l100.94487 0l0 23.89215" fill-rule="evenodd"></path><path fill="#000000" fill-opacity="0.0" d="m254.2126 173.56168l0 -34.369766l201.03938 0l0 -34.354637" fill-rule="evenodd"></path><path stroke="#000000" stroke-width="1.0" stroke-linejoin="round" stroke-linecap="butt" d="m254.2126 173.56168l0 -34.369766l201.03938 0l0 -34.354637" fill-rule="evenodd"></path><path fill="#000000" fill-opacity="0.0" d="m455.24146 104.821526l0 34.385506l200.3465 0l0 34.37039" fill-rule="evenodd"></path><path stroke="#000000" stroke-width="1.0" stroke-linejoin="round" stroke-linecap="butt" d="m455.24146 104.821526l0 34.385506l200.3465 0l0 34.37039" fill-rule="evenodd"></path><path fill="#000000" fill-opacity="0.0" d="m655.5748 240.5853l0 23.88739l-96.50397 0l0 23.89215" fill-rule="evenodd"></path><path stroke="#000000" stroke-width="1.0" stroke-linejoin="round" stroke-linecap="butt" d="m655.5748 240.5853l0 23.88739l-96.50397 0l0 23.89215" fill-rule="evenodd"></path><path fill="#000000" fill-opacity="0.0" d="m655.5748 240.5853l0 23.88739l107.40155 0l0 23.89215" fill-rule="evenodd"></path><path stroke="#000000" stroke-width="1.0" stroke-linejoin="round" stroke-linecap="butt" d="m655.5748 240.5853l0 23.88739l107.40155 0l0 23.89215" fill-rule="evenodd"></path><path fill="#000000" fill-opacity="0.0" d="m-160.60892 189.81102l525.6378 0l0 61.322845l-525.6378 0z" fill-rule="evenodd"></path></g></svg>

