<?xml version="1.0" standalone="yes"?>

<svg version="1.1" viewBox="0.0 0.0 788.3700787401575 429.9685039370079" fill="none" stroke="none" stroke-linecap="square" stroke-miterlimit="10" xmlns="http://www.w3.org/2000/svg" xmlns:xlink="http://www.w3.org/1999/xlink"><clipPath id="p.0"><path d="m0 0l788.37006 0l0 429.9685l-788.37006 0l0 -429.9685z" clip-rule="nonzero"></path></clipPath><g clip-path="url(#p.0)"><path fill="#000000" fill-opacity="0.0" d="m0 0l788.37006 0l0 429.9685l-788.37006 0z" fill-rule="evenodd"></path><path fill="#6fa8dc" d="m166.48032 117.41207l56.094482 0l0 48.787407l-56.094482 0z" fill-rule="evenodd"></path><path stroke="#000000" stroke-width="1.0" stroke-linejoin="round" stroke-linecap="butt" d="m166.48032 117.41207l56.094482 0l0 48.787407l-56.094482 0z" fill-rule="evenodd"></path><path fill="#000000" d="m191.85213 142.66827q0 2.0625 -0.703125 3.0625q-0.703125 1.0 -2.203125 1.0q-1.484375 0 -2.203125 -0.96875q-0.703125 -0.984375 -0.71875 -2.9375l0 -1.5625q0 -2.046875 0.703125 -3.03125q0.703125 -1.0 2.203125 -1.0q1.5 0 2.203125 0.96875q0.703125 0.953125 0.71875 2.9375l0 1.53125zm-1.171875 -1.609375q0 -1.5 -0.421875 -2.171875q-0.421875 -0.6875 -1.328125 -0.6875q-0.890625 0 -1.3125 0.6875q-0.40625 0.671875 -0.421875 2.078125l0 1.875q0 1.5 0.4375 2.21875q0.4375 0.71875 1.3125 0.71875q0.875 0 1.296875 -0.671875q0.421875 -0.671875 0.4375 -2.125l0 -1.921875zm3.0153046 4.9375q0 -0.3125 0.171875 -0.515625q0.1875 -0.203125 0.546875 -0.203125q0.359375 0 0.546875 0.203125q0.1875 0.203125 0.1875 0.515625q0 0.28125 -0.1875 0.484375q-0.1875 0.1875 -0.546875 0.1875q-0.359375 0 -0.546875 -0.1875q-0.171875 -0.203125 -0.171875 -0.484375zm3.8983765 -4.03125l0.46875 -4.609375l4.734375 0l0 1.09375l-3.734375 0l-0.28125 2.515625q0.671875 -0.390625 1.53125 -0.390625q1.265625 0 2.0 0.828125q0.75 0.828125 0.75 2.25q0 1.4375 -0.765625 2.265625q-0.765625 0.8125 -2.15625 0.8125q-1.21875 0 -2.0 -0.671875q-0.78125 -0.6875 -0.875 -1.890625l1.109375 0q0.109375 0.796875 0.5625 1.203125q0.453125 0.40625 1.203125 0.40625q0.8125 0 1.28125 -0.5625q0.46875 -0.5625 0.46875 -1.546875q0 -0.921875 -0.5 -1.484375q-0.5 -0.5625 -1.34375 -0.5625q-0.765625 0 -1.203125 0.34375l-0.3125 0.25l-0.9375 -0.25z" fill-rule="nonzero"></path><path fill="#6fa8dc" d="m166.48032 166.19948l56.094482 0l0 48.7874l-56.094482 0z" fill-rule="evenodd"></path><path stroke="#000000" stroke-width="1.0" stroke-linejoin="round" stroke-linecap="butt" d="m166.48032 166.19948l56.094482 0l0 48.7874l-56.094482 0z" fill-rule="evenodd"></path><path fill="#000000" d="m176.26157 190.81004q0 -2.421875 0.5 -3.890625q0.5 -1.46875 1.46875 -2.265625q0.984375 -0.796875 2.46875 -0.796875q1.09375 0 1.921875 0.4375q0.828125 0.4375 1.359375 1.28125q0.546875 0.828125 0.84375 2.015625q0.3125 1.1875 0.3125 3.21875q0 2.390625 -0.5 3.859375q-0.484375 1.46875 -1.46875 2.28125q-0.96875 0.796875 -2.46875 0.796875q-1.96875 0 -3.078125 -1.40625q-1.359375 -1.703125 -1.359375 -5.53125zm1.71875 0q0 3.34375 0.78125 4.453125q0.796875 1.109375 1.9375 1.109375q1.15625 0 1.9375 -1.109375q0.78125 -1.125 0.78125 -4.453125q0 -3.359375 -0.78125 -4.46875q-0.78125 -1.109375 -1.953125 -1.109375q-1.15625 0 -1.828125 0.984375q-0.875 1.234375 -0.875 4.59375zm9.594467 6.703125l0 -1.90625l1.90625 0l0 1.90625l-1.90625 0zm4.370804 -11.8125l0 -1.609375l8.796875 0l0 1.296875q-1.296875 1.375 -2.578125 3.671875q-1.265625 2.296875 -1.96875 4.71875q-0.5 1.703125 -0.640625 3.734375l-1.71875 0q0.03125 -1.609375 0.625 -3.875q0.609375 -2.28125 1.734375 -4.390625q1.140625 -2.109375 2.40625 -3.546875l-6.65625 0z" fill-rule="nonzero"></path><path fill="#6fa8dc" d="m166.48032 214.98688l56.094482 0l0 48.787415l-56.094482 0z" fill-rule="evenodd"></path><path stroke="#000000" stroke-width="1.0" stroke-linejoin="round" stroke-linecap="butt" d="m166.48032 214.98688l56.094482 0l0 48.787415l-56.094482 0z" fill-rule="evenodd"></path><path fill="#000000" d="m189.91463 244.18057l-1.171875 0l0 -7.828125l-2.375 0.875l0 -1.078125l3.359375 -1.25l0.1875 0l0 9.28125zm3.7809296 -0.609375q0 -0.3125 0.171875 -0.515625q0.1875 -0.203125 0.546875 -0.203125q0.359375 0 0.546875 0.203125q0.1875 0.203125 0.1875 0.515625q0 0.28125 -0.1875 0.484375q-0.1875 0.1875 -0.546875 0.1875q-0.359375 0 -0.546875 -0.1875q-0.171875 -0.203125 -0.171875 -0.484375zm9.414001 0.609375l-6.0625 0l0 -0.84375l3.203125 -3.5625q0.703125 -0.796875 0.96875 -1.296875q0.28125 -0.515625 0.28125 -1.046875q0 -0.734375 -0.4375 -1.1875q-0.4375 -0.46875 -1.171875 -0.46875q-0.875 0 -1.359375 0.5q-0.484375 0.5 -0.484375 1.390625l-1.171875 0q0 -1.28125 0.8125 -2.0625q0.828125 -0.796875 2.203125 -0.796875q1.296875 0 2.046875 0.6875q0.75 0.671875 0.75 1.796875q0 1.359375 -1.75 3.25l-2.46875 2.6875l4.640625 0l0 0.953125z" fill-rule="nonzero"></path><path fill="#6fa8dc" d="m166.48032 263.7743l56.094482 0l0 48.787384l-56.094482 0z" fill-rule="evenodd"></path><path stroke="#000000" stroke-width="1.0" stroke-linejoin="round" stroke-linecap="butt" d="m166.48032 263.7743l56.094482 0l0 48.787384l-56.094482 0z" fill-rule="evenodd"></path><path fill="#000000" d="m190.1878 292.3586q0 -0.3125 0.171875 -0.515625q0.1875 -0.203125 0.546875 -0.203125q0.359375 0 0.546875 0.203125q0.1875 0.203125 0.1875 0.515625q0 0.28125 -0.1875 0.484375q-0.1875 0.1875 -0.546875 0.1875q-0.359375 0 -0.546875 -0.1875q-0.171875 -0.203125 -0.171875 -0.484375zm3.5077515 0q0 -0.3125 0.171875 -0.515625q0.1875 -0.203125 0.546875 -0.203125q0.359375 0 0.546875 0.203125q0.1875 0.203125 0.1875 0.515625q0 0.28125 -0.1875 0.484375q-0.1875 0.1875 -0.546875 0.1875q-0.359375 0 -0.546875 -0.1875q-0.171875 -0.203125 -0.171875 -0.484375zm3.5077515 0q0 -0.3125 0.171875 -0.515625q0.1875 -0.203125 0.546875 -0.203125q0.359375 0 0.546875 0.203125q0.1875 0.203125 0.1875 0.515625q0 0.28125 -0.1875 0.484375q-0.1875 0.1875 -0.546875 0.1875q-0.359375 0 -0.546875 -0.1875q-0.171875 -0.203125 -0.171875 -0.484375z" fill-rule="nonzero"></path><path fill="#6fa8dc" d="m166.48032 312.56168l56.094482 0l0 48.787415l-56.094482 0z" fill-rule="evenodd"></path><path stroke="#000000" stroke-width="1.0" stroke-linejoin="round" stroke-linecap="butt" d="m166.48032 312.56168l56.094482 0l0 48.787415l-56.094482 0z" fill-rule="evenodd"></path><path fill="#000000" d="m191.85213 337.81787q0 2.0625 -0.703125 3.0625q-0.703125 1.0 -2.203125 1.0q-1.484375 0 -2.203125 -0.96875q-0.703125 -0.984375 -0.71875 -2.9375l0 -1.5625q0 -2.046875 0.703125 -3.03125q0.703125 -1.0 2.203125 -1.0q1.5 0 2.203125 0.96875q0.703125 0.953125 0.71875 2.9375l0 1.53125zm-1.171875 -1.609375q0 -1.5 -0.421875 -2.171875q-0.421875 -0.6875 -1.328125 -0.6875q-0.890625 0 -1.3125 0.6875q-0.40625 0.671875 -0.421875 2.078125l0 1.875q0 1.5 0.4375 2.21875q0.4375 0.71875 1.3125 0.71875q0.875 0 1.296875 -0.671875q0.421875 -0.671875 0.4375 -2.125l0 -1.921875zm3.0153046 4.9375q0 -0.3125 0.171875 -0.515625q0.1875 -0.203125 0.546875 -0.203125q0.359375 0 0.546875 0.203125q0.1875 0.203125 0.1875 0.515625q0 0.28125 -0.1875 0.484375q-0.1875 0.1875 -0.546875 0.1875q-0.359375 0 -0.546875 -0.1875q-0.171875 -0.203125 -0.171875 -0.484375zm9.320251 -7.96875l-3.828125 8.578125l-1.234375 0l3.8125 -8.28125l-5.0 0l0 -0.96875l6.25 0l0 0.671875z" fill-rule="nonzero"></path><path fill="#6fa8dc" d="m222.5748 117.41207l56.094482 0l0 48.787407l-56.094482 0z" fill-rule="evenodd"></path><path stroke="#000000" stroke-width="1.0" stroke-linejoin="round" stroke-linecap="butt" d="m222.5748 117.41207l56.094482 0l0 48.787407l-56.094482 0z" fill-rule="evenodd"></path><path fill="#000000" d="m247.94662 142.66827q0 2.0625 -0.703125 3.0625q-0.703125 1.0 -2.203125 1.0q-1.484375 0 -2.203125 -0.96875q-0.703125 -0.984375 -0.71875 -2.9375l0 -1.5625q0 -2.046875 0.703125 -3.03125q0.703125 -1.0 2.203125 -1.0q1.5 0 2.203125 0.96875q0.703125 0.953125 0.71875 2.9375l0 1.53125zm-1.171875 -1.609375q0 -1.5 -0.421875 -2.171875q-0.421875 -0.6875 -1.328125 -0.6875q-0.890625 0 -1.3125 0.6875q-0.40625 0.671875 -0.421875 2.078125l0 1.875q0 1.5 0.4375 2.21875q0.4375 0.71875 1.3125 0.71875q0.875 0 1.296875 -0.671875q0.421875 -0.671875 0.4375 -2.125l0 -1.921875zm3.0153046 4.9375q0 -0.3125 0.171875 -0.515625q0.1875 -0.203125 0.546875 -0.203125q0.359375 0 0.546875 0.203125q0.1875 0.203125 0.1875 0.515625q0 0.28125 -0.1875 0.484375q-0.1875 0.1875 -0.546875 0.1875q-0.359375 0 -0.546875 -0.1875q-0.171875 -0.203125 -0.171875 -0.484375zm5.0546265 -4.578125l0.890625 0q0.82810974 -0.015625 1.2968597 -0.4375q0.484375 -0.4375 0.484375 -1.15625q0 -1.625 -1.6249847 -1.625q-0.75 0 -1.203125 0.4375q-0.453125 0.4375 -0.453125 1.15625l-1.1875 0q0 -1.109375 0.796875 -1.828125q0.8125 -0.734375 2.046875 -0.734375q1.3124847 0 2.0468597 0.703125q0.75 0.6875 0.75 1.921875q0 0.59375 -0.390625 1.171875q-0.390625 0.5625 -1.0625 0.84375q0.765625 0.234375 1.171875 0.796875q0.421875 0.546875 0.421875 1.359375q0 1.25 -0.8125 1.984375q-0.8125 0.71875 -2.1093597 0.71875q-1.296875 0 -2.125 -0.703125q-0.8125 -0.703125 -0.8125 -1.859375l1.1875 0q0 0.734375 0.46875 1.171875q0.484375 0.4375 1.28125 0.4375q0.84373474 0 1.2968597 -0.4375q0.453125 -0.453125 0.453125 -1.28125q0 -0.8125 -0.5 -1.234375q-0.484375 -0.4375 -1.4218597 -0.453125l-0.890625 0l0 -0.953125z" fill-rule="nonzero"></path><path fill="#6fa8dc" d="m222.5748 166.19948l56.094482 0l0 48.7874l-56.094482 0z" fill-rule="evenodd"></path><path stroke="#000000" stroke-width="1.0" stroke-linejoin="round" stroke-linecap="butt" d="m222.5748 166.19948l56.094482 0l0 48.7874l-56.094482 0z" fill-rule="evenodd"></path><path fill="#000000" d="m248.21225 195.39317l-6.0625 0l0 -0.84375l3.203125 -3.5625q0.703125 -0.796875 0.96875 -1.296875q0.28125 -0.515625 0.28125 -1.046875q0 -0.734375 -0.4375 -1.1875q-0.4375 -0.46875 -1.171875 -0.46875q-0.875 0 -1.359375 0.5q-0.484375 0.5 -0.484375 1.390625l-1.171875 0q0 -1.28125 0.8125 -2.0625q0.828125 -0.796875 2.203125 -0.796875q1.296875 0 2.046875 0.6875q0.75 0.671875 0.75 1.796875q0 1.359375 -1.75 3.25l-2.46875 2.6875l4.640625 0l0 0.953125zm1.5778046 -0.609375q0 -0.3125 0.171875 -0.515625q0.1875 -0.203125 0.546875 -0.203125q0.359375 0 0.546875 0.203125q0.1875 0.203125 0.1875 0.515625q0 0.28125 -0.1875 0.484375q-0.1875 0.1875 -0.546875 0.1875q-0.359375 0 -0.546875 -0.1875q-0.171875 -0.203125 -0.171875 -0.484375zm3.8983765 -4.03125l0.46875 -4.609375l4.7343597 0l0 1.09375l-3.7343597 0l-0.28125 2.515625q0.671875 -0.390625 1.5312347 -0.390625q1.265625 0 2.0 0.828125q0.75 0.828125 0.75 2.25q0 1.4375 -0.765625 2.265625q-0.765625 0.8125 -2.15625 0.8125q-1.2187347 0 -1.9999847 -0.671875q-0.78125 -0.6875 -0.875 -1.890625l1.109375 0q0.109375 0.796875 0.5625 1.203125q0.453125 0.40625 1.2031097 0.40625q0.8125 0 1.28125 -0.5625q0.46875 -0.5625 0.46875 -1.546875q0 -0.921875 -0.5 -1.484375q-0.5 -0.5625 -1.34375 -0.5625q-0.76560974 0 -1.2031097 0.34375l-0.3125 0.25l-0.9375 -0.25z" fill-rule="nonzero"></path><path fill="#6fa8dc" d="m222.5748 214.98688l56.094482 0l0 48.787415l-56.094482 0z" fill-rule="evenodd"></path><path stroke="#000000" stroke-width="1.0" stroke-linejoin="round" stroke-linecap="butt" d="m222.5748 214.98688l56.094482 0l0 48.787415l-56.094482 0z" fill-rule="evenodd"></path><path fill="#000000" d="m246.00912 244.18057l-1.171875 0l0 -7.828125l-2.375 0.875l0 -1.078125l3.359375 -1.25l0.1875 0l0 9.28125zm3.7809296 -0.609375q0 -0.3125 0.171875 -0.515625q0.1875 -0.203125 0.546875 -0.203125q0.359375 0 0.546875 0.203125q0.1875 0.203125 0.1875 0.515625q0 0.28125 -0.1875 0.484375q-0.1875 0.1875 -0.546875 0.1875q-0.359375 0 -0.546875 -0.1875q-0.171875 -0.203125 -0.171875 -0.484375zm3.8983765 -4.03125l0.46875 -4.609375l4.7343597 0l0 1.09375l-3.7343597 0l-0.28125 2.515625q0.671875 -0.390625 1.5312347 -0.390625q1.265625 0 2.0 0.828125q0.75 0.828125 0.75 2.25q0 1.4375 -0.765625 2.265625q-0.765625 0.8125 -2.15625 0.8125q-1.2187347 0 -1.9999847 -0.671875q-0.78125 -0.6875 -0.875 -1.890625l1.109375 0q0.109375 0.796875 0.5625 1.203125q0.453125 0.40625 1.2031097 0.40625q0.8125 0 1.28125 -0.5625q0.46875 -0.5625 0.46875 -1.546875q0 -0.921875 -0.5 -1.484375q-0.5 -0.5625 -1.34375 -0.5625q-0.76560974 0 -1.2031097 0.34375l-0.3125 0.25l-0.9375 -0.25z" fill-rule="nonzero"></path><path fill="#6fa8dc" d="m222.5748 263.7743l56.094482 0l0 48.787384l-56.094482 0z" fill-rule="evenodd"></path><path stroke="#000000" stroke-width="1.0" stroke-linejoin="round" stroke-linecap="butt" d="m222.5748 263.7743l56.094482 0l0 48.787384l-56.094482 0z" fill-rule="evenodd"></path><path fill="#000000" d="m246.2823 292.3586q0 -0.3125 0.171875 -0.515625q0.1875 -0.203125 0.546875 -0.203125q0.359375 0 0.546875 0.203125q0.1875 0.203125 0.1875 0.515625q0 0.28125 -0.1875 0.484375q-0.1875 0.1875 -0.546875 0.1875q-0.359375 0 -0.546875 -0.1875q-0.171875 -0.203125 -0.171875 -0.484375zm3.5077515 0q0 -0.3125 0.171875 -0.515625q0.1875 -0.203125 0.546875 -0.203125q0.359375 0 0.546875 0.203125q0.1875 0.203125 0.1875 0.515625q0 0.28125 -0.1875 0.484375q-0.1875 0.1875 -0.546875 0.1875q-0.359375 0 -0.546875 -0.1875q-0.171875 -0.203125 -0.171875 -0.484375zm3.5077515 0q0 -0.3125 0.171875 -0.515625q0.1875 -0.203125 0.546875 -0.203125q0.359375 0 0.546875 0.203125q0.1875 0.203125 0.1875 0.515625q0 0.28125 -0.1875 0.484375q-0.1875 0.1875 -0.546875 0.1875q-0.359375 0 -0.546875 -0.1875q-0.171875 -0.203125 -0.171875 -0.484375z" fill-rule="nonzero"></path><path fill="#6fa8dc" d="m222.5748 312.56168l56.094482 0l0 48.787415l-56.094482 0z" fill-rule="evenodd"></path><path stroke="#000000" stroke-width="1.0" stroke-linejoin="round" stroke-linecap="butt" d="m222.5748 312.56168l56.094482 0l0 48.787415l-56.094482 0z" fill-rule="evenodd"></path><path fill="#000000" d="m247.94662 337.81787q0 2.0625 -0.703125 3.0625q-0.703125 1.0 -2.203125 1.0q-1.484375 0 -2.203125 -0.96875q-0.703125 -0.984375 -0.71875 -2.9375l0 -1.5625q0 -2.046875 0.703125 -3.03125q0.703125 -1.0 2.203125 -1.0q1.5 0 2.203125 0.96875q0.703125 0.953125 0.71875 2.9375l0 1.53125zm-1.171875 -1.609375q0 -1.5 -0.421875 -2.171875q-0.421875 -0.6875 -1.328125 -0.6875q-0.890625 0 -1.3125 0.6875q-0.40625 0.671875 -0.421875 2.078125l0 1.875q0 1.5 0.4375 2.21875q0.4375 0.71875 1.3125 0.71875q0.875 0 1.296875 -0.671875q0.421875 -0.671875 0.4375 -2.125l0 -1.921875zm3.0153046 4.9375q0 -0.3125 0.171875 -0.515625q0.1875 -0.203125 0.546875 -0.203125q0.359375 0 0.546875 0.203125q0.1875 0.203125 0.1875 0.515625q0 0.28125 -0.1875 0.484375q-0.1875 0.1875 -0.546875 0.1875q-0.359375 0 -0.546875 -0.1875q-0.171875 -0.203125 -0.171875 -0.484375zm8.304611 -2.5l1.296875 0l0 0.96875l-1.296875 0l0 2.140625l-1.171875 0l0 -2.140625l-4.2031097 0l0 -0.703125l4.1249847 -6.40625l1.25 0l0 6.140625zm-4.0468597 0l2.8749847 0l0 -4.53125l-0.140625 0.265625l-2.7343597 4.265625z" fill-rule="nonzero"></path><path fill="#6fa8dc" d="m278.66928 117.41207l56.094513 0l0 48.787407l-56.094513 0z" fill-rule="evenodd"></path><path stroke="#000000" stroke-width="1.0" stroke-linejoin="round" stroke-linecap="butt" d="m278.66928 117.41207l56.094513 0l0 48.787407l-56.094513 0z" fill-rule="evenodd"></path><path fill="#000000" d="m302.37677 145.9964q0 -0.3125 0.171875 -0.515625q0.1875 -0.203125 0.546875 -0.203125q0.359375 0 0.546875 0.203125q0.1875 0.203125 0.1875 0.515625q0 0.28125 -0.1875 0.484375q-0.1875 0.1875 -0.546875 0.1875q-0.359375 0 -0.546875 -0.1875q-0.171875 -0.203125 -0.171875 -0.484375zm3.5077515 0q0 -0.3125 0.171875 -0.515625q0.1875 -0.203125 0.546875 -0.203125q0.359375 0 0.546875 0.203125q0.1875 0.203125 0.1875 0.515625q0 0.28125 -0.1875 0.484375q-0.1875 0.1875 -0.546875 0.1875q-0.359375 0 -0.546875 -0.1875q-0.171875 -0.203125 -0.171875 -0.484375zm3.5077515 0q0 -0.3125 0.171875 -0.515625q0.1875 -0.203125 0.546875 -0.203125q0.359375 0 0.546875 0.203125q0.1875 0.203125 0.1875 0.515625q0 0.28125 -0.1875 0.484375q-0.1875 0.1875 -0.546875 0.1875q-0.359375 0 -0.546875 -0.1875q-0.171875 -0.203125 -0.171875 -0.484375z" fill-rule="nonzero"></path><path fill="#6fa8dc" d="m278.66928 166.19948l56.094513 0l0 48.7874l-56.094513 0z" fill-rule="evenodd"></path><path stroke="#000000" stroke-width="1.0" stroke-linejoin="round" stroke-linecap="butt" d="m278.66928 166.19948l56.094513 0l0 48.7874l-56.094513 0z" fill-rule="evenodd"></path><path fill="#000000" d="m302.37677 194.7838q0 -0.3125 0.171875 -0.515625q0.1875 -0.203125 0.546875 -0.203125q0.359375 0 0.546875 0.203125q0.1875 0.203125 0.1875 0.515625q0 0.28125 -0.1875 0.484375q-0.1875 0.1875 -0.546875 0.1875q-0.359375 0 -0.546875 -0.1875q-0.171875 -0.203125 -0.171875 -0.484375zm3.5077515 0q0 -0.3125 0.171875 -0.515625q0.1875 -0.203125 0.546875 -0.203125q0.359375 0 0.546875 0.203125q0.1875 0.203125 0.1875 0.515625q0 0.28125 -0.1875 0.484375q-0.1875 0.1875 -0.546875 0.1875q-0.359375 0 -0.546875 -0.1875q-0.171875 -0.203125 -0.171875 -0.484375zm3.5077515 0q0 -0.3125 0.171875 -0.515625q0.1875 -0.203125 0.546875 -0.203125q0.359375 0 0.546875 0.203125q0.1875 0.203125 0.1875 0.515625q0 0.28125 -0.1875 0.484375q-0.1875 0.1875 -0.546875 0.1875q-0.359375 0 -0.546875 -0.1875q-0.171875 -0.203125 -0.171875 -0.484375z" fill-rule="nonzero"></path><path fill="#6fa8dc" d="m278.66928 214.98688l56.094513 0l0 48.787415l-56.094513 0z" fill-rule="evenodd"></path><path stroke="#000000" stroke-width="1.0" stroke-linejoin="round" stroke-linecap="butt" d="m278.66928 214.98688l56.094513 0l0 48.787415l-56.094513 0z" fill-rule="evenodd"></path><path fill="#000000" d="m302.37677 243.5712q0 -0.3125 0.171875 -0.515625q0.1875 -0.203125 0.546875 -0.203125q0.359375 0 0.546875 0.203125q0.1875 0.203125 0.1875 0.515625q0 0.28125 -0.1875 0.484375q-0.1875 0.1875 -0.546875 0.1875q-0.359375 0 -0.546875 -0.1875q-0.171875 -0.203125 -0.171875 -0.484375zm3.5077515 0q0 -0.3125 0.171875 -0.515625q0.1875 -0.203125 0.546875 -0.203125q0.359375 0 0.546875 0.203125q0.1875 0.203125 0.1875 0.515625q0 0.28125 -0.1875 0.484375q-0.1875 0.1875 -0.546875 0.1875q-0.359375 0 -0.546875 -0.1875q-0.171875 -0.203125 -0.171875 -0.484375zm3.5077515 0q0 -0.3125 0.171875 -0.515625q0.1875 -0.203125 0.546875 -0.203125q0.359375 0 0.546875 0.203125q0.1875 0.203125 0.1875 0.515625q0 0.28125 -0.1875 0.484375q-0.1875 0.1875 -0.546875 0.1875q-0.359375 0 -0.546875 -0.1875q-0.171875 -0.203125 -0.171875 -0.484375z" fill-rule="nonzero"></path><path fill="#6fa8dc" d="m278.66928 263.7743l56.094513 0l0 48.787384l-56.094513 0z" fill-rule="evenodd"></path><path stroke="#000000" stroke-width="1.0" stroke-linejoin="round" stroke-linecap="butt" d="m278.66928 263.7743l56.094513 0l0 48.787384l-56.094513 0z" fill-rule="evenodd"></path><path fill="#000000" d="m302.37677 292.3586q0 -0.3125 0.171875 -0.515625q0.1875 -0.203125 0.546875 -0.203125q0.359375 0 0.546875 0.203125q0.1875 0.203125 0.1875 0.515625q0 0.28125 -0.1875 0.484375q-0.1875 0.1875 -0.546875 0.1875q-0.359375 0 -0.546875 -0.1875q-0.171875 -0.203125 -0.171875 -0.484375zm3.5077515 0q0 -0.3125 0.171875 -0.515625q0.1875 -0.203125 0.546875 -0.203125q0.359375 0 0.546875 0.203125q0.1875 0.203125 0.1875 0.515625q0 0.28125 -0.1875 0.484375q-0.1875 0.1875 -0.546875 0.1875q-0.359375 0 -0.546875 -0.1875q-0.171875 -0.203125 -0.171875 -0.484375zm3.5077515 0q0 -0.3125 0.171875 -0.515625q0.1875 -0.203125 0.546875 -0.203125q0.359375 0 0.546875 0.203125q0.1875 0.203125 0.1875 0.515625q0 0.28125 -0.1875 0.484375q-0.1875 0.1875 -0.546875 0.1875q-0.359375 0 -0.546875 -0.1875q-0.171875 -0.203125 -0.171875 -0.484375z" fill-rule="nonzero"></path><path fill="#6fa8dc" d="m278.66928 312.56168l56.094513 0l0 48.787415l-56.094513 0z" fill-rule="evenodd"></path><path stroke="#000000" stroke-width="1.0" stroke-linejoin="round" stroke-linecap="butt" d="m278.66928 312.56168l56.094513 0l0 48.787415l-56.094513 0z" fill-rule="evenodd"></path><path fill="#000000" d="m302.37677 341.146q0 -0.3125 0.171875 -0.515625q0.1875 -0.203125 0.546875 -0.203125q0.359375 0 0.546875 0.203125q0.1875 0.203125 0.1875 0.515625q0 0.28125 -0.1875 0.484375q-0.1875 0.1875 -0.546875 0.1875q-0.359375 0 -0.546875 -0.1875q-0.171875 -0.203125 -0.171875 -0.484375zm3.5077515 0q0 -0.3125 0.171875 -0.515625q0.1875 -0.203125 0.546875 -0.203125q0.359375 0 0.546875 0.203125q0.1875 0.203125 0.1875 0.515625q0 0.28125 -0.1875 0.484375q-0.1875 0.1875 -0.546875 0.1875q-0.359375 0 -0.546875 -0.1875q-0.171875 -0.203125 -0.171875 -0.484375zm3.5077515 0q0 -0.3125 0.171875 -0.515625q0.1875 -0.203125 0.546875 -0.203125q0.359375 0 0.546875 0.203125q0.1875 0.203125 0.1875 0.515625q0 0.28125 -0.1875 0.484375q-0.1875 0.1875 -0.546875 0.1875q-0.359375 0 -0.546875 -0.1875q-0.171875 -0.203125 -0.171875 -0.484375z" fill-rule="nonzero"></path><path fill="#6fa8dc" d="m334.7638 117.41207l56.094482 0l0 48.787407l-56.094482 0z" fill-rule="evenodd"></path><path stroke="#000000" stroke-width="1.0" stroke-linejoin="round" stroke-linecap="butt" d="m334.7638 117.41207l56.094482 0l0 48.787407l-56.094482 0z" fill-rule="evenodd"></path><path fill="#000000" d="m360.1356 142.66827q0 2.0625 -0.703125 3.0625q-0.703125 1.0 -2.203125 1.0q-1.484375 0 -2.203125 -0.96875q-0.703125 -0.984375 -0.71875 -2.9375l0 -1.5625q0 -2.046875 0.703125 -3.03125q0.703125 -1.0 2.203125 -1.0q1.5 0 2.203125 0.96875q0.703125 0.953125 0.71875 2.9375l0 1.53125zm-1.171875 -1.609375q0 -1.5 -0.421875 -2.171875q-0.421875 -0.6875 -1.328125 -0.6875q-0.890625 0 -1.3125 0.6875q-0.40625 0.671875 -0.421875 2.078125l0 1.875q0 1.5 0.4375 2.21875q0.4375 0.71875 1.3125 0.71875q0.875 0 1.296875 -0.671875q0.421875 -0.671875 0.4375 -2.125l0 -1.921875zm3.0153198 4.9375q0 -0.3125 0.171875 -0.515625q0.1875 -0.203125 0.546875 -0.203125q0.359375 0 0.546875 0.203125q0.1875 0.203125 0.1875 0.515625q0 0.28125 -0.1875 0.484375q-0.1875 0.1875 -0.546875 0.1875q-0.359375 0 -0.546875 -0.1875q-0.171875 -0.203125 -0.171875 -0.484375zm7.8515015 -3.453125q-0.359375 0.4375 -0.875 0.703125q-0.515625 0.265625 -1.125 0.265625q-0.796875 0 -1.390625 -0.390625q-0.59375 -0.390625 -0.921875 -1.109375q-0.3125 -0.71875 -0.3125 -1.578125q0 -0.921875 0.34375 -1.65625q0.359375 -0.75 1.0 -1.140625q0.65625 -0.40625 1.515625 -0.40625q1.375 0 2.15625 1.03125q0.796875 1.03125 0.796875 2.796875l0 0.34375q0 2.703125 -1.078125 3.9375q-1.0625 1.234375 -3.203125 1.265625l-0.234375 0l0 -0.984375l0.25 0q1.453125 -0.03125 2.234375 -0.75q0.78125 -0.734375 0.84375 -2.328125zm-1.8125 0q0.59375 0 1.09375 -0.359375q0.5 -0.359375 0.734375 -0.890625l0 -0.484375q0 -1.140625 -0.515625 -1.859375q-0.5 -0.734375 -1.265625 -0.734375q-0.765625 0 -1.234375 0.59375q-0.46875 0.59375 -0.46875 1.5625q0 0.953125 0.453125 1.5625q0.453125 0.609375 1.203125 0.609375z" fill-rule="nonzero"></path><path fill="#6fa8dc" d="m334.7638 166.19948l56.094482 0l0 48.7874l-56.094482 0z" fill-rule="evenodd"></path><path stroke="#000000" stroke-width="1.0" stroke-linejoin="round" stroke-linecap="butt" d="m334.7638 166.19948l56.094482 0l0 48.7874l-56.094482 0z" fill-rule="evenodd"></path><path fill="#000000" d="m360.1356 191.45567q0 2.0625 -0.703125 3.0625q-0.703125 1.0 -2.203125 1.0q-1.484375 0 -2.203125 -0.96875q-0.703125 -0.984375 -0.71875 -2.9375l0 -1.5625q0 -2.046875 0.703125 -3.03125q0.703125 -1.0 2.203125 -1.0q1.5 0 2.203125 0.96875q0.703125 0.953125 0.71875 2.9375l0 1.53125zm-1.171875 -1.609375q0 -1.5 -0.421875 -2.171875q-0.421875 -0.6875 -1.328125 -0.6875q-0.890625 0 -1.3125 0.6875q-0.40625 0.671875 -0.421875 2.078125l0 1.875q0 1.5 0.4375 2.21875q0.4375 0.71875 1.3125 0.71875q0.875 0 1.296875 -0.671875q0.421875 -0.671875 0.4375 -2.125l0 -1.921875zm3.0153198 4.9375q0 -0.3125 0.171875 -0.515625q0.1875 -0.203125 0.546875 -0.203125q0.359375 0 0.546875 0.203125q0.1875 0.203125 0.1875 0.515625q0 0.28125 -0.1875 0.484375q-0.1875 0.1875 -0.546875 0.1875q-0.359375 0 -0.546875 -0.1875q-0.171875 -0.203125 -0.171875 -0.484375zm9.320251 -7.96875l-3.828125 8.578125l-1.234375 0l3.8125 -8.28125l-5.0 0l0 -0.96875l6.25 0l0 0.671875z" fill-rule="nonzero"></path><path fill="#6fa8dc" d="m334.7638 214.98688l56.094482 0l0 48.787415l-56.094482 0z" fill-rule="evenodd"></path><path stroke="#000000" stroke-width="1.0" stroke-linejoin="round" stroke-linecap="butt" d="m334.7638 214.98688l56.094482 0l0 48.787415l-56.094482 0z" fill-rule="evenodd"></path><path fill="#000000" d="m358.1981 244.18057l-1.171875 0l0 -7.828125l-2.375 0.875l0 -1.078125l3.359375 -1.25l0.1875 0l0 9.28125zm3.7809448 -0.609375q0 -0.3125 0.171875 -0.515625q0.1875 -0.203125 0.546875 -0.203125q0.359375 0 0.546875 0.203125q0.1875 0.203125 0.1875 0.515625q0 0.28125 -0.1875 0.484375q-0.1875 0.1875 -0.546875 0.1875q-0.359375 0 -0.546875 -0.1875q-0.171875 -0.203125 -0.171875 -0.484375zm9.320251 -7.96875l-3.828125 8.578125l-1.234375 0l3.8125 -8.28125l-5.0 0l0 -0.96875l6.25 0l0 0.671875z" fill-rule="nonzero"></path><path fill="#6fa8dc" d="m334.7638 263.7743l56.094482 0l0 48.787384l-56.094482 0z" fill-rule="evenodd"></path><path stroke="#000000" stroke-width="1.0" stroke-linejoin="round" stroke-linecap="butt" d="m334.7638 263.7743l56.094482 0l0 48.787384l-56.094482 0z" fill-rule="evenodd"></path><path fill="#000000" d="m358.47128 292.3586q0 -0.3125 0.171875 -0.515625q0.1875 -0.203125 0.546875 -0.203125q0.359375 0 0.546875 0.203125q0.1875 0.203125 0.1875 0.515625q0 0.28125 -0.1875 0.484375q-0.1875 0.1875 -0.546875 0.1875q-0.359375 0 -0.546875 -0.1875q-0.171875 -0.203125 -0.171875 -0.484375zm3.5077515 0q0 -0.3125 0.171875 -0.515625q0.1875 -0.203125 0.546875 -0.203125q0.359375 0 0.546875 0.203125q0.1875 0.203125 0.1875 0.515625q0 0.28125 -0.1875 0.484375q-0.1875 0.1875 -0.546875 0.1875q-0.359375 0 -0.546875 -0.1875q-0.171875 -0.203125 -0.171875 -0.484375zm3.5077515 0q0 -0.3125 0.171875 -0.515625q0.1875 -0.203125 0.546875 -0.203125q0.359375 0 0.546875 0.203125q0.1875 0.203125 0.1875 0.515625q0 0.28125 -0.1875 0.484375q-0.1875 0.1875 -0.546875 0.1875q-0.359375 0 -0.546875 -0.1875q-0.171875 -0.203125 -0.171875 -0.484375z" fill-rule="nonzero"></path><path fill="#6fa8dc" d="m334.7638 312.56168l56.094482 0l0 48.787415l-56.094482 0z" fill-rule="evenodd"></path><path stroke="#000000" stroke-width="1.0" stroke-linejoin="round" stroke-linecap="butt" d="m334.7638 312.56168l56.094482 0l0 48.787415l-56.094482 0z" fill-rule="evenodd"></path><path fill="#000000" d="m360.1356 337.81787q0 2.0625 -0.703125 3.0625q-0.703125 1.0 -2.203125 1.0q-1.484375 0 -2.203125 -0.96875q-0.703125 -0.984375 -0.71875 -2.9375l0 -1.5625q0 -2.046875 0.703125 -3.03125q0.703125 -1.0 2.203125 -1.0q1.5 0 2.203125 0.96875q0.703125 0.953125 0.71875 2.9375l0 1.53125zm-1.171875 -1.609375q0 -1.5 -0.421875 -2.171875q-0.421875 -0.6875 -1.328125 -0.6875q-0.890625 0 -1.3125 0.6875q-0.40625 0.671875 -0.421875 2.078125l0 1.875q0 1.5 0.4375 2.21875q0.4375 0.71875 1.3125 0.71875q0.875 0 1.296875 -0.671875q0.421875 -0.671875 0.4375 -2.125l0 -1.921875zm3.0153198 4.9375q0 -0.3125 0.171875 -0.515625q0.1875 -0.203125 0.546875 -0.203125q0.359375 0 0.546875 0.203125q0.1875 0.203125 0.1875 0.515625q0 0.28125 -0.1875 0.484375q-0.1875 0.1875 -0.546875 0.1875q-0.359375 0 -0.546875 -0.1875q-0.171875 -0.203125 -0.171875 -0.484375zm7.2108765 0.609375l-1.171875 0l0 -7.828125l-2.375 0.875l0 -1.078125l3.359375 -1.25l0.1875 0l0 9.28125z" fill-rule="nonzero"></path><path fill="#93c47d" d="m593.9921 117.41207l56.094482 0l0 48.787407l-56.094482 0z" fill-rule="evenodd"></path><path stroke="#000000" stroke-width="1.0" stroke-linejoin="round" stroke-linecap="butt" d="m593.9921 117.41207l56.094482 0l0 48.787407l-56.094482 0z" fill-rule="evenodd"></path><path fill="#000000" d="m624.85986 142.66827q0 2.0625 -0.703125 3.0625q-0.703125 1.0 -2.203125 1.0q-1.484375 0 -2.203125 -0.96875q-0.703125 -0.984375 -0.71875 -2.9375l0 -1.5625q0 -2.046875 0.703125 -3.03125q0.703125 -1.0 2.203125 -1.0q1.5 0 2.203125 0.96875q0.703125 0.953125 0.71875 2.9375l0 1.53125zm-1.171875 -1.609375q0 -1.5 -0.421875 -2.171875q-0.421875 -0.6875 -1.328125 -0.6875q-0.890625 0 -1.3125 0.6875q-0.40625 0.671875 -0.421875 2.078125l0 1.875q0 1.5 0.4375 2.21875q0.4375 0.71875 1.3125 0.71875q0.875 0 1.296875 -0.671875q0.421875 -0.671875 0.4375 -2.125l0 -1.921875z" fill-rule="nonzero"></path><path fill="#93c47d" d="m593.9921 166.19948l56.094482 0l0 48.7874l-56.094482 0z" fill-rule="evenodd"></path><path stroke="#000000" stroke-width="1.0" stroke-linejoin="round" stroke-linecap="butt" d="m593.9921 166.19948l56.094482 0l0 48.7874l-56.094482 0z" fill-rule="evenodd"></path><path fill="#000000" d="m624.85986 191.45567q0 2.0625 -0.703125 3.0625q-0.703125 1.0 -2.203125 1.0q-1.484375 0 -2.203125 -0.96875q-0.703125 -0.984375 -0.71875 -2.9375l0 -1.5625q0 -2.046875 0.703125 -3.03125q0.703125 -1.0 2.203125 -1.0q1.5 0 2.203125 0.96875q0.703125 0.953125 0.71875 2.9375l0 1.53125zm-1.171875 -1.609375q0 -1.5 -0.421875 -2.171875q-0.421875 -0.6875 -1.328125 -0.6875q-0.890625 0 -1.3125 0.6875q-0.40625 0.671875 -0.421875 2.078125l0 1.875q0 1.5 0.4375 2.21875q0.4375 0.71875 1.3125 0.71875q0.875 0 1.296875 -0.671875q0.421875 -0.671875 0.4375 -2.125l0 -1.921875z" fill-rule="nonzero"></path><path fill="#93c47d" d="m593.9921 214.98688l56.094482 0l0 48.787415l-56.094482 0z" fill-rule="evenodd"></path><path stroke="#000000" stroke-width="1.0" stroke-linejoin="round" stroke-linecap="butt" d="m593.9921 214.98688l56.094482 0l0 48.787415l-56.094482 0z" fill-rule="evenodd"></path><path fill="#000000" d="m622.92236 244.18057l-1.171875 0l0 -7.828125l-2.375 0.875l0 -1.078125l3.359375 -1.25l0.1875 0l0 9.28125z" fill-rule="nonzero"></path><path fill="#93c47d" d="m593.9921 263.7743l56.094482 0l0 48.787384l-56.094482 0z" fill-rule="evenodd"></path><path stroke="#000000" stroke-width="1.0" stroke-linejoin="round" stroke-linecap="butt" d="m593.9921 263.7743l56.094482 0l0 48.787384l-56.094482 0z" fill-rule="evenodd"></path><path fill="#000000" d="m618.50336 284.3586q0 -0.3125 0.171875 -0.515625q0.1875 -0.203125 0.546875 -0.203125q0.359375 0 0.546875 0.203125q0.1875 0.203125 0.1875 0.515625q0 0.28125 -0.1875 0.484375q-0.1875 0.1875 -0.546875 0.1875q-0.359375 0 -0.546875 -0.1875q-0.171875 -0.203125 -0.171875 -0.484375zm3.0 0q0 -0.3125 0.171875 -0.515625q0.1875 -0.203125 0.546875 -0.203125q0.359375 0 0.546875 0.203125q0.1875 0.203125 0.1875 0.515625q0 0.28125 -0.1875 0.484375q-0.1875 0.1875 -0.546875 0.1875q-0.359375 0 -0.546875 -0.1875q-0.171875 -0.203125 -0.171875 -0.484375zm2.0 0q0 -0.3125 0.171875 -0.515625q0.1875 -0.203125 0.546875 -0.203125q0.359375 0 0.546875 0.203125q0.1875 0.203125 0.1875 0.515625q0 0.28125 -0.1875 0.484375q-0.1875 0.1875 -0.546875 0.1875q-0.359375 0 -0.546875 -0.1875q-0.171875 -0.203125 -0.171875 -0.484375z" fill-rule="nonzero"></path><path fill="#93c47d" d="m593.9921 312.56168l56.094482 0l0 48.787415l-56.094482 0z" fill-rule="evenodd"></path><path stroke="#000000" stroke-width="1.0" stroke-linejoin="round" stroke-linecap="butt" d="m593.9921 312.56168l56.094482 0l0 48.787415l-56.094482 0z" fill-rule="evenodd"></path><path fill="#000000" d="m625.1255 341.75537l-6.0625 0l0 -0.84375l3.203125 -3.5625q0.703125 -0.796875 0.96875 -1.296875q0.28125 -0.515625 0.28125 -1.046875q0 -0.734375 -0.4375 -1.1875q-0.4375 -0.46875 -1.171875 -0.46875q-0.875 0 -1.359375 0.5q-0.484375 0.5 -0.484375 1.390625l-1.171875 0q0 -1.28125 0.8125 -2.0625q0.828125 -0.796875 2.203125 -0.796875q1.296875 0 2.046875 0.6875q0.75 0.671875 0.75 1.796875q0 1.359375 -1.75 3.25l-2.46875 2.6875l4.640625 0l0 0.953125z" fill-rule="nonzero"></path><path fill="#000000" fill-opacity="0.0" d="m97.55118 118.64041l43.59056 0l0 46.330704l-43.59056 0z" fill-rule="evenodd"></path><path fill="#000000" d="m111.3168 134.73604l2.0 -3.6875l2.53125 0l-3.109375 5.296875l3.1875 5.375l-2.5625 0l-2.046875 -3.734375l-2.046875 3.734375l-2.5625 0l3.1875 -5.375l-3.109375 -5.296875l2.53125 0l2.0 3.6875z" fill-rule="nonzero"></path><path fill="#000000" fill-opacity="0.0" d="m108.00837 127.66183l33.133858 0l0 36.566933l-33.133858 0z" fill-rule="evenodd"></path><path fill="#000000" d="m121.273994 148.18182l-1.078125 0l0 -7.21875l-2.1875 0.796875l0 -0.984375l3.109375 -1.171875l0.15625 0l0 8.578125z" fill-rule="nonzero"></path><path fill="#000000" fill-opacity="0.0" d="m141.14174 141.80577l25.354324 0" fill-rule="evenodd"></path><path stroke="#000000" stroke-width="1.0" stroke-linejoin="round" stroke-linecap="butt" d="m141.14174 141.80577l19.354324 0" fill-rule="evenodd"></path><path fill="#000000" stroke="#000000" stroke-width="1.0" stroke-linecap="butt" d="m160.49606 143.45749l4.538101 -1.6517181l-4.538101 -1.6517334z" fill-rule="evenodd"></path><path fill="#000000" fill-opacity="0.0" d="m97.53543 167.42781l43.59056 0l0 46.33072l-43.59056 0z" fill-rule="evenodd"></path><path fill="#000000" d="m111.301056 183.52344l2.0 -3.6875l2.53125 0l-3.109375 5.296875l3.1875 5.375l-2.5625 0l-2.046875 -3.734375l-2.046875 3.734375l-2.5625 0l3.1875 -5.375l-3.109375 -5.296875l2.53125 0l2.0 3.6875z" fill-rule="nonzero"></path><path fill="#000000" fill-opacity="0.0" d="m107.99262 176.44922l33.133858 0l0 36.56694l-33.133858 0z" fill-rule="evenodd"></path><path fill="#000000" d="m123.2895 196.96922l-5.59375 0l0 -0.78125l2.953125 -3.28125q0.65625 -0.75 0.90625 -1.203125q0.25 -0.46875 0.25 -0.96875q0 -0.671875 -0.40625 -1.09375q-0.390625 -0.4375 -1.078125 -0.4375q-0.796875 0 -1.25 0.46875q-0.453125 0.453125 -0.453125 1.28125l-1.078125 0q0 -1.1875 0.75 -1.90625q0.765625 -0.734375 2.03125 -0.734375q1.203125 0 1.890625 0.625q0.6875 0.625 0.6875 1.671875q0 1.25 -1.609375 3.0l-2.28125 2.46875l4.28125 0l0 0.890625z" fill-rule="nonzero"></path><path fill="#000000" fill-opacity="0.0" d="m141.12599 190.59317l25.354324 0" fill-rule="evenodd"></path><path stroke="#000000" stroke-width="1.0" stroke-linejoin="round" stroke-linecap="butt" d="m141.12599 190.59317l19.354324 0" fill-rule="evenodd"></path><path fill="#000000" stroke="#000000" stroke-width="1.0" stroke-linecap="butt" d="m160.48032 192.2449l4.538101 -1.6517334l-4.538101 -1.6517334z" fill-rule="evenodd"></path><path fill="#000000" fill-opacity="0.0" d="m97.53543 216.21521l43.59056 0l0 46.33072l-43.59056 0z" fill-rule="evenodd"></path><path fill="#000000" d="m111.301056 232.31084l2.0 -3.6875l2.53125 0l-3.109375 5.296875l3.1875 5.375l-2.5625 0l-2.046875 -3.734375l-2.046875 3.734375l-2.5625 0l3.1875 -5.375l-3.109375 -5.296875l2.53125 0l2.0 3.6875z" fill-rule="nonzero"></path><path fill="#000000" fill-opacity="0.0" d="m107.99262 225.23663l33.133858 0l0 36.566925l-33.133858 0z" fill-rule="evenodd"></path><path fill="#000000" d="m119.27387 240.95975l0.8125 0q0.78125 -0.015625 1.21875 -0.40625q0.4375 -0.390625 0.4375 -1.0625q0 -1.5 -1.5 -1.5q-0.703125 0 -1.125 0.40625q-0.40625 0.40625 -0.40625 1.0625l-1.09375 0q0 -1.015625 0.734375 -1.6875q0.75 -0.671875 1.890625 -0.671875q1.203125 0 1.890625 0.640625q0.6875 0.640625 0.6875 1.78125q0 0.5625 -0.359375 1.078125q-0.359375 0.515625 -0.984375 0.78125q0.703125 0.21875 1.078125 0.734375q0.390625 0.515625 0.390625 1.265625q0 1.140625 -0.75 1.828125q-0.75 0.671875 -1.953125 0.671875q-1.1875 0 -1.953125 -0.65625q-0.75 -0.65625 -0.75 -1.71875l1.09375 0q0 0.671875 0.4375 1.078125q0.4375 0.40625 1.1875 0.40625q0.78125 0 1.1875 -0.40625q0.421875 -0.421875 0.421875 -1.1875q0 -0.734375 -0.453125 -1.125q-0.453125 -0.40625 -1.328125 -0.421875l-0.8125 0l0 -0.890625z" fill-rule="nonzero"></path><path fill="#000000" fill-opacity="0.0" d="m141.12599 239.38057l25.354324 0" fill-rule="evenodd"></path><path stroke="#000000" stroke-width="1.0" stroke-linejoin="round" stroke-linecap="butt" d="m141.12599 239.38058l19.354324 0" fill-rule="evenodd"></path><path fill="#000000" stroke="#000000" stroke-width="1.0" stroke-linecap="butt" d="m160.48032 241.0323l4.538101 -1.6517181l-4.538101 -1.6517334z" fill-rule="evenodd"></path><path fill="#000000" fill-opacity="0.0" d="m97.53543 312.56168l43.59056 0l0 46.33072l-43.59056 0z" fill-rule="evenodd"></path><path fill="#000000" d="m111.301056 328.6573l2.0 -3.6875l2.53125 0l-3.109375 5.296875l3.1875 5.375l-2.5625 0l-2.046875 -3.734375l-2.046875 3.734375l-2.5625 0l3.1875 -5.375l-3.109375 -5.296875l2.53125 0l2.0 3.6875z" fill-rule="nonzero"></path><path fill="#000000" fill-opacity="0.0" d="m107.99262 321.58307l33.133858 0l0 36.566956l-33.133858 0z" fill-rule="evenodd"></path><path fill="#000000" d="m118.83637 335.75934l0.03125 0.796875q0.734375 -0.90625 1.90625 -0.90625q2.015625 0 2.03125 2.265625l0 4.1875l-1.09375 0l0 -4.203125q0 -0.671875 -0.3125 -1.0q-0.296875 -0.328125 -0.953125 -0.328125q-0.53125 0 -0.9375 0.28125q-0.390625 0.28125 -0.609375 0.734375l0 4.515625l-1.078125 0l0 -6.34375l1.015625 0z" fill-rule="nonzero"></path><path fill="#000000" fill-opacity="0.0" d="m141.12599 335.72702l25.354324 0" fill-rule="evenodd"></path><path stroke="#000000" stroke-width="1.0" stroke-linejoin="round" stroke-linecap="butt" d="m141.12599 335.72702l19.354324 0" fill-rule="evenodd"></path><path fill="#000000" stroke="#000000" stroke-width="1.0" stroke-linecap="butt" d="m160.48032 337.37875l4.538101 -1.6517334l-4.538101 -1.6517334z" fill-rule="evenodd"></path><path fill="#000000" fill-opacity="0.0" d="m107.99213 255.4147l18.771652 0l0 48.787384l-18.771652 0z" fill-rule="evenodd"></path><path fill="#000000" d="m117.664 273.88907q0 -0.375 0.25 -0.59375q0.25 -0.234375 0.625 -0.234375q0.390625 0 0.640625 0.234375q0.25 0.21875 0.25 0.59375q0 0.375 -0.25 0.609375q-0.25 0.21875 -0.640625 0.21875q-0.375 0 -0.625 -0.21875q-0.25 -0.234375 -0.25 -0.609375z" fill-rule="nonzero"></path><path fill="#000000" d="m117.664 286.88907q0 -0.375 0.25 -0.59375q0.25 -0.234375 0.625 -0.234375q0.390625 0 0.640625 0.234375q0.25 0.21875 0.25 0.59375q0 0.375 -0.25 0.609375q-0.25 0.21875 -0.640625 0.21875q-0.375 0 -0.625 -0.21875q-0.25 -0.234375 -0.25 -0.609375z" fill-rule="nonzero"></path><path fill="#000000" d="m117.664 299.88907q0 -0.375 0.25 -0.59375q0.25 -0.234375 0.625 -0.234375q0.390625 0 0.640625 0.234375q0.25 0.21875 0.25 0.59375q0 0.375 -0.25 0.609375q-0.25 0.21875 -0.640625 0.21875q-0.375 0 -0.625 -0.21875q-0.25 -0.234375 -0.25 -0.609375z" fill-rule="nonzero"></path><path fill="#000000" fill-opacity="0.0" d="m163.26772 56.451443l62.519684 0l0 36.56693l-62.519684 0z" fill-rule="evenodd"></path><path fill="#000000" d="m179.8547 73.48707l-3.375 0l0 3.484375l-1.75 0l0 -8.53125l5.546875 0l0 1.421875l-3.796875 0l0 2.203125l3.375 0l0 1.421875zm4.2460938 3.609375q-1.390625 0 -2.265625 -0.859375q-0.875 -0.859375 -0.875 -2.28125l0 -0.171875q0 -0.953125 0.359375 -1.703125q0.375 -0.75 1.046875 -1.15625q0.6875 -0.40625 1.546875 -0.40625q1.3125 0 2.046875 0.828125q0.75 0.8125 0.75 2.3125l0 0.6875l-4.03125 0q0.078125 0.625 0.484375 1.0q0.421875 0.375 1.0625 0.375q0.96875 0 1.515625 -0.703125l0.84375 0.921875q-0.390625 0.546875 -1.046875 0.859375q-0.640625 0.296875 -1.4375 0.296875zm-0.1875 -5.21875q-0.5 0 -0.8125 0.34375q-0.3125 0.34375 -0.40625 0.96875l2.359375 0l0 -0.125q-0.015625 -0.5625 -0.3125 -0.875q-0.28125 -0.3125 -0.828125 -0.3125zm7.439453 5.09375q-0.125 -0.234375 -0.171875 -0.5625q-0.609375 0.6875 -1.59375 0.6875q-0.9375 0 -1.546875 -0.546875q-0.609375 -0.546875 -0.609375 -1.359375q0 -1.015625 0.734375 -1.546875q0.75 -0.546875 2.171875 -0.546875l0.765625 0l0 -0.359375q0 -0.4375 -0.21875 -0.703125q-0.21875 -0.265625 -0.71875 -0.265625q-0.421875 0 -0.671875 0.203125q-0.234375 0.203125 -0.234375 0.5625l-1.6875 0q0 -0.546875 0.328125 -1.015625q0.34375 -0.46875 0.96875 -0.734375q0.625 -0.265625 1.390625 -0.265625q1.171875 0 1.859375 0.59375q0.6875 0.578125 0.6875 1.640625l0 2.75q0.015625 0.90625 0.25 1.375l0 0.09375l-1.703125 0zm-1.40625 -1.171875q0.375 0 0.6875 -0.171875q0.328125 -0.171875 0.46875 -0.453125l0 -1.09375l-0.625 0q-1.265625 0 -1.359375 0.890625l0 0.09375q0 0.3125 0.21875 0.53125q0.21875 0.203125 0.609375 0.203125zm6.1835938 -6.734375l0 1.5625l1.09375 0l0 1.25l-1.09375 0l0 3.15625q0 0.359375 0.140625 0.515625q0.140625 0.140625 0.515625 0.140625q0.28125 0 0.5 -0.03125l0 1.28125q-0.5 0.15625 -1.03125 0.15625q-1.78125 0 -1.8125 -1.8125l0 -3.40625l-0.921875 0l0 -1.25l0.921875 0l0 -1.5625l1.6875 0zm5.8359375 7.265625q-0.625 0.765625 -1.734375 0.765625q-1.03125 0 -1.5625 -0.59375q-0.53125 -0.59375 -0.546875 -1.71875l0 -4.15625l1.6875 0l0 4.09375q0 1.0 0.90625 1.0q0.859375 0 1.1875 -0.609375l0 -4.484375l1.703125 0l0 6.34375l-1.59375 0l-0.046875 -0.640625zm6.4804688 -4.109375q-0.34375 -0.046875 -0.609375 -0.046875q-0.96875 0 -1.265625 0.640625l0 4.15625l-1.6875 0l0 -6.34375l1.59375 0l0.046875 0.765625q0.515625 -0.875 1.40625 -0.875q0.28125 0 0.53125 0.078125l-0.015625 1.625zm3.7207031 4.875q-1.390625 0 -2.265625 -0.859375q-0.875 -0.859375 -0.875 -2.28125l0 -0.171875q0 -0.953125 0.359375 -1.703125q0.375 -0.75 1.046875 -1.15625q0.6875 -0.40625 1.546875 -0.40625q1.3125 0 2.046875 0.828125q0.75 0.8125 0.75 2.3125l0 0.6875l-4.03125 0q0.078125 0.625 0.484375 1.0q0.421875 0.375 1.0625 0.375q0.96875 0 1.515625 -0.703125l0.84375 0.921875q-0.390625 0.546875 -1.046875 0.859375q-0.640625 0.296875 -1.4375 0.296875zm-0.1875 -5.21875q-0.5 0 -0.8125 0.34375q-0.3125 0.34375 -0.40625 0.96875l2.359375 0l0 -0.125q-0.015625 -0.5625 -0.3125 -0.875q-0.28125 -0.3125 -0.828125 -0.3125z" fill-rule="nonzero"></path><path fill="#000000" fill-opacity="0.0" d="m202.63773 65.00525l37.322845 0l0 36.566933l-37.322845 0z" fill-rule="evenodd"></path><path fill="#000000" d="m215.90335 85.52525l-1.078125 0l0 -7.21875l-2.1875 0.796875l0 -0.984375l3.109375 -1.171875l0.15625 0l0 8.578125z" fill-rule="nonzero"></path><path fill="#000000" fill-opacity="0.0" d="m194.52756 93.01837l0 24.409447" fill-rule="evenodd"></path><path stroke="#000000" stroke-width="1.0" stroke-linejoin="round" stroke-linecap="butt" d="m194.52756 93.01837l0 18.409447" fill-rule="evenodd"></path><path fill="#000000" stroke="#000000" stroke-width="1.0" stroke-linecap="butt" d="m192.87582 111.42782l1.6517334 4.538101l1.6517334 -4.538101z" fill-rule="evenodd"></path><path fill="#000000" fill-opacity="0.0" d="m212.27559 56.435696l62.5197 0l0 36.56693l-62.5197 0z" fill-rule="evenodd"></path><path fill="#000000" d="m228.86258 73.47132l-3.375 0l0 3.484375l-1.75 0l0 -8.53125l5.546875 0l0 1.421875l-3.796875 0l0 2.203125l3.375 0l0 1.421875zm4.2460938 3.609375q-1.390625 0 -2.265625 -0.859375q-0.875 -0.859375 -0.875 -2.28125l0 -0.171875q0 -0.953125 0.359375 -1.703125q0.375 -0.75 1.046875 -1.15625q0.6875 -0.40625 1.546875 -0.40625q1.3125 0 2.046875 0.828125q0.75 0.8125 0.75 2.3125l0 0.6875l-4.03125 0q0.078125 0.625 0.484375 1.0q0.421875 0.375 1.0625 0.375q0.96875 0 1.515625 -0.703125l0.84375 0.921875q-0.390625 0.546875 -1.046875 0.859375q-0.640625 0.296875 -1.4375 0.296875zm-0.1875 -5.21875q-0.5 0 -0.8125 0.34375q-0.3125 0.34375 -0.40625 0.96875l2.359375 0l0 -0.125q-0.015625 -0.5625 -0.3125 -0.875q-0.28125 -0.3125 -0.828125 -0.3125zm7.439453 5.09375q-0.125 -0.234375 -0.171875 -0.5625q-0.609375 0.6875 -1.59375 0.6875q-0.9375 0 -1.546875 -0.546875q-0.609375 -0.546875 -0.609375 -1.359375q0 -1.015625 0.734375 -1.546875q0.75 -0.546875 2.171875 -0.546875l0.765625 0l0 -0.359375q0 -0.4375 -0.21875 -0.703125q-0.21875 -0.265625 -0.71875 -0.265625q-0.421875 0 -0.671875 0.203125q-0.234375 0.203125 -0.234375 0.5625l-1.6875 0q0 -0.546875 0.328125 -1.015625q0.34375 -0.46875 0.96875 -0.734375q0.625 -0.265625 1.390625 -0.265625q1.171875 0 1.859375 0.59375q0.6875 0.578125 0.6875 1.640625l0 2.75q0.015625 0.90625 0.25 1.375l0 0.09375l-1.703125 0zm-1.40625 -1.171875q0.375 0 0.6875 -0.171875q0.328125 -0.171875 0.46875 -0.453125l0 -1.09375l-0.625 0q-1.265625 0 -1.359375 0.890625l0 0.09375q0 0.3125 0.21875 0.53125q0.21875 0.203125 0.609375 0.203125zm6.1835938 -6.734375l0 1.5625l1.09375 0l0 1.25l-1.09375 0l0 3.15625q0 0.359375 0.140625 0.515625q0.140625 0.140625 0.515625 0.140625q0.28125 0 0.5 -0.03125l0 1.28125q-0.5 0.15625 -1.03125 0.15625q-1.78125 0 -1.8125 -1.8125l0 -3.40625l-0.921875 0l0 -1.25l0.921875 0l0 -1.5625l1.6875 0zm5.8359375 7.265625q-0.625 0.765625 -1.734375 0.765625q-1.03125 0 -1.5625 -0.59375q-0.53125 -0.59375 -0.546875 -1.71875l0 -4.15625l1.6875 0l0 4.09375q0 1.0 0.90625 1.0q0.859375 0 1.1875 -0.609375l0 -4.484375l1.703125 0l0 6.34375l-1.59375 0l-0.046875 -0.640625zm6.4804688 -4.109375q-0.34375 -0.046875 -0.609375 -0.046875q-0.96875 0 -1.265625 0.640625l0 4.15625l-1.6875 0l0 -6.34375l1.59375 0l0.046875 0.765625q0.515625 -0.875 1.40625 -0.875q0.28125 0 0.53125 0.078125l-0.015625 1.625zm3.7207031 4.875q-1.390625 0 -2.265625 -0.859375q-0.875 -0.859375 -0.875 -2.28125l0 -0.171875q0 -0.953125 0.359375 -1.703125q0.375 -0.75 1.046875 -1.15625q0.6875 -0.40625 1.546875 -0.40625q1.3125 0 2.046875 0.828125q0.75 0.8125 0.75 2.3125l0 0.6875l-4.03125 0q0.078125 0.625 0.484375 1.0q0.421875 0.375 1.0625 0.375q0.96875 0 1.515625 -0.703125l0.84375 0.921875q-0.390625 0.546875 -1.046875 0.859375q-0.640625 0.296875 -1.4375 0.296875zm-0.1875 -5.21875q-0.5 0 -0.8125 0.34375q-0.3125 0.34375 -0.40625 0.96875l2.359375 0l0 -0.125q-0.015625 -0.5625 -0.3125 -0.875q-0.28125 -0.3125 -0.828125 -0.3125z" fill-rule="nonzero"></path><path fill="#000000" fill-opacity="0.0" d="m251.64561 64.9895l37.32283 0l0 36.566925l-37.32283 0z" fill-rule="evenodd"></path><path fill="#000000" d="m266.94247 85.5095l-5.59375 0l0 -0.78125l2.953125 -3.28125q0.65625 -0.75 0.90625 -1.203125q0.25 -0.46875 0.25 -0.96875q0 -0.671875 -0.40625 -1.09375q-0.390625 -0.4375 -1.078125 -0.4375q-0.796875 0 -1.25 0.46875q-0.453125 0.453125 -0.453125 1.28125l-1.078125 0q0 -1.1875 0.75 -1.90625q0.765625 -0.734375 2.03125 -0.734375q1.203125 0 1.890625 0.625q0.6875 0.625 0.6875 1.671875q0 1.25 -1.609375 3.0l-2.28125 2.46875l4.28125 0l0 0.890625z" fill-rule="nonzero"></path><path fill="#000000" fill-opacity="0.0" d="m243.53543 93.002625l0 24.409447" fill-rule="evenodd"></path><path stroke="#000000" stroke-width="1.0" stroke-linejoin="round" stroke-linecap="butt" d="m243.53543 93.002625l0 18.409447" fill-rule="evenodd"></path><path fill="#000000" stroke="#000000" stroke-width="1.0" stroke-linecap="butt" d="m241.8837 111.41207l1.6517334 4.538101l1.6517334 -4.538101z" fill-rule="evenodd"></path><path fill="#000000" fill-opacity="0.0" d="m324.46457 56.435696l62.519684 0l0 36.56693l-62.519684 0z" fill-rule="evenodd"></path><path fill="#000000" d="m339.3552 73.47132l-3.375 0l0 3.484375l-1.75 0l0 -8.53125l5.546875 0l0 1.421875l-3.796875 0l0 2.203125l3.375 0l0 1.421875zm4.2460938 3.609375q-1.390625 0 -2.265625 -0.859375q-0.875 -0.859375 -0.875 -2.28125l0 -0.171875q0 -0.953125 0.359375 -1.703125q0.375 -0.75 1.046875 -1.15625q0.6875 -0.40625 1.546875 -0.40625q1.3125 0 2.046875 0.828125q0.75 0.8125 0.75 2.3125l0 0.6875l-4.03125 0q0.078125 0.625 0.484375 1.0q0.421875 0.375 1.0625 0.375q0.96875 0 1.515625 -0.703125l0.84375 0.921875q-0.390625 0.546875 -1.046875 0.859375q-0.640625 0.296875 -1.4375 0.296875zm-0.1875 -5.21875q-0.5 0 -0.8125 0.34375q-0.3125 0.34375 -0.40625 0.96875l2.359375 0l0 -0.125q-0.015625 -0.5625 -0.3125 -0.875q-0.28125 -0.3125 -0.828125 -0.3125zm7.439453 5.09375q-0.125 -0.234375 -0.171875 -0.5625q-0.609375 0.6875 -1.59375 0.6875q-0.9375 0 -1.546875 -0.546875q-0.609375 -0.546875 -0.609375 -1.359375q0 -1.015625 0.734375 -1.546875q0.75 -0.546875 2.171875 -0.546875l0.765625 0l0 -0.359375q0 -0.4375 -0.21875 -0.703125q-0.21875 -0.265625 -0.71875 -0.265625q-0.421875 0 -0.671875 0.203125q-0.234375 0.203125 -0.234375 0.5625l-1.6875 0q0 -0.546875 0.328125 -1.015625q0.34375 -0.46875 0.96875 -0.734375q0.625 -0.265625 1.390625 -0.265625q1.171875 0 1.859375 0.59375q0.6875 0.578125 0.6875 1.640625l0 2.75q0.015625 0.90625 0.25 1.375l0 0.09375l-1.703125 0zm-1.40625 -1.171875q0.375 0 0.6875 -0.171875q0.328125 -0.171875 0.46875 -0.453125l0 -1.09375l-0.625 0q-1.265625 0 -1.359375 0.890625l0 0.09375q0 0.3125 0.21875 0.53125q0.21875 0.203125 0.609375 0.203125zm6.1835938 -6.734375l0 1.5625l1.09375 0l0 1.25l-1.09375 0l0 3.15625q0 0.359375 0.140625 0.515625q0.140625 0.140625 0.515625 0.140625q0.28125 0 0.5 -0.03125l0 1.28125q-0.5 0.15625 -1.03125 0.15625q-1.78125 0 -1.8125 -1.8125l0 -3.40625l-0.921875 0l0 -1.25l0.921875 0l0 -1.5625l1.6875 0zm5.8359375 7.265625q-0.625 0.765625 -1.734375 0.765625q-1.03125 0 -1.5625 -0.59375q-0.53125 -0.59375 -0.546875 -1.71875l0 -4.15625l1.6875 0l0 4.09375q0 1.0 0.90625 1.0q0.859375 0 1.1875 -0.609375l0 -4.484375l1.703125 0l0 6.34375l-1.59375 0l-0.046875 -0.640625zm6.4804688 -4.109375q-0.34375 -0.046875 -0.609375 -0.046875q-0.96875 0 -1.265625 0.640625l0 4.15625l-1.6875 0l0 -6.34375l1.59375 0l0.046875 0.765625q0.515625 -0.875 1.40625 -0.875q0.28125 0 0.53125 0.078125l-0.015625 1.625zm3.7207031 4.875q-1.390625 0 -2.265625 -0.859375q-0.875 -0.859375 -0.875 -2.28125l0 -0.171875q0 -0.953125 0.359375 -1.703125q0.375 -0.75 1.046875 -1.15625q0.6875 -0.40625 1.546875 -0.40625q1.3125 0 2.046875 0.828125q0.75 0.8125 0.75 2.3125l0 0.6875l-4.03125 0q0.078125 0.625 0.484375 1.0q0.421875 0.375 1.0625 0.375q0.96875 0 1.515625 -0.703125l0.84375 0.921875q-0.390625 0.546875 -1.046875 0.859375q-0.640625 0.296875 -1.4375 0.296875zm-0.1875 -5.21875q-0.5 0 -0.8125 0.34375q-0.3125 0.34375 -0.40625 0.96875l2.359375 0l0 -0.125q-0.015625 -0.5625 -0.3125 -0.875q-0.28125 -0.3125 -0.828125 -0.3125z" fill-rule="nonzero"></path><path fill="#000000" fill-opacity="0.0" d="m363.8346 64.9895l37.322815 0l0 36.566925l-37.322815 0z" fill-rule="evenodd"></path><path fill="#000000" d="m374.67834 79.16575l0.03125 0.703125q0.6875 -0.8125 1.875 -0.8125q1.328125 0 1.8125 1.015625q0.3125 -0.453125 0.8125 -0.734375q0.515625 -0.28125 1.203125 -0.28125q2.09375 0 2.125 2.203125l0 4.25l-1.078125 0l0 -4.1875q0 -0.671875 -0.3125 -1.0q-0.3125 -0.34375 -1.046875 -0.34375q-0.609375 0 -1.015625 0.359375q-0.390625 0.359375 -0.453125 0.96875l0 4.203125l-1.078125 0l0 -4.15625q0 -1.375 -1.359375 -1.375q-1.0625 0 -1.453125 0.90625l0 4.625l-1.09375 0l0 -6.34375l1.03125 0z" fill-rule="nonzero"></path><path fill="#000000" fill-opacity="0.0" d="m355.7244 93.002625l0 24.409447" fill-rule="evenodd"></path><path stroke="#000000" stroke-width="1.0" stroke-linejoin="round" stroke-linecap="butt" d="m355.7244 93.002625l0 18.409447" fill-rule="evenodd"></path><path fill="#000000" stroke="#000000" stroke-width="1.0" stroke-linecap="butt" d="m354.07266 111.41207l1.6517334 4.538101l1.6517334 -4.538101z" fill-rule="evenodd"></path><path fill="#000000" fill-opacity="0.0" d="m287.3622 93.950134l37.322815 0l0 7.6220474l-37.322815 0z" fill-rule="evenodd"></path><path fill="#000000" fill-opacity="0.0" d="m280.97375 99.42519l43.590546 0l0 7.6220474l-43.590546 0z" fill-rule="evenodd"></path><path fill="#000000" fill-opacity="0.0" d="m331.11023 80.65354l0 18.771652l-48.787384 0l0 -18.771652z" fill-rule="evenodd"></path><path fill="#000000" d="m312.63586 89.16328q0.375 0 0.59375 0.25q0.234375 0.25 0.234375 0.625q0 0.390625 -0.234375 0.640625q-0.21875 0.25 -0.59375 0.25q-0.375 0 -0.609375 -0.25q-0.21875 -0.25 -0.21875 -0.640625q0 -0.375 0.21875 -0.625q0.234375 -0.25 0.609375 -0.25z" fill-rule="nonzero"></path><path fill="#000000" d="m299.63586 89.16328q0.375 0 0.59375 0.25q0.234375 0.25 0.234375 0.625q0 0.390625 -0.234375 0.640625q-0.21875 0.25 -0.59375 0.25q-0.375 0 -0.609375 -0.25q-0.21875 -0.25 -0.21875 -0.640625q0 -0.375 0.21875 -0.625q0.234375 -0.25 0.609375 -0.25z" fill-rule="nonzero"></path><path fill="#000000" d="m286.63586 89.16328q0.375 0 0.59375 0.25q0.234375 0.25 0.234375 0.625q0 0.390625 -0.234375 0.640625q-0.21875 0.25 -0.59375 0.25q-0.375 0 -0.609375 -0.25q-0.21875 -0.25 -0.21875 -0.640625q0 -0.375 0.21875 -0.625q0.234375 -0.25 0.609375 -0.25z" fill-rule="nonzero"></path><path fill="#6fa8dc" d="m166.48032 166.20735l56.094482 0l0 48.7874l-56.094482 0z" fill-rule="evenodd"></path><path stroke="#000000" stroke-width="1.0" stroke-linejoin="round" stroke-linecap="butt" d="m166.48032 166.20735l56.094482 0l0 48.7874l-56.094482 0z" fill-rule="evenodd"></path><path fill="#000000" d="m191.85213 191.46355q0 2.0625 -0.703125 3.0625q-0.703125 1.0 -2.203125 1.0q-1.484375 0 -2.203125 -0.96875q-0.703125 -0.984375 -0.71875 -2.9375l0 -1.5625q0 -2.046875 0.703125 -3.03125q0.703125 -1.0 2.203125 -1.0q1.5 0 2.203125 0.96875q0.703125 0.953125 0.71875 2.9375l0 1.53125zm-1.171875 -1.609375q0 -1.5 -0.421875 -2.171875q-0.421875 -0.6875 -1.328125 -0.6875q-0.890625 0 -1.3125 0.6875q-0.40625 0.671875 -0.421875 2.078125l0 1.875q0 1.5 0.4375 2.21875q0.4375 0.71875 1.3125 0.71875q0.875 0 1.296875 -0.671875q0.421875 -0.671875 0.4375 -2.125l0 -1.921875zm3.0153046 4.9375q0 -0.3125 0.171875 -0.515625q0.1875 -0.203125 0.546875 -0.203125q0.359375 0 0.546875 0.203125q0.1875 0.203125 0.1875 0.515625q0 0.28125 -0.1875 0.484375q-0.1875 0.1875 -0.546875 0.1875q-0.359375 0 -0.546875 -0.1875q-0.171875 -0.203125 -0.171875 -0.484375zm9.320251 -7.96875l-3.828125 8.578125l-1.234375 0l3.8125 -8.28125l-5.0 0l0 -0.96875l6.25 0l0 0.671875z" fill-rule="nonzero"></path><path fill="#000000" fill-opacity="0.0" d="m531.96326 32.32021l166.51965 0l0 56.535435l-166.51965 0z" fill-rule="evenodd"></path><path fill="#000000" d="m590.0102 49.99646q-0.09375 1.375 -1.015625 2.171875q-0.90625 0.796875 -2.40625 0.796875q-1.640625 0 -2.59375 -1.109375q-0.9375 -1.109375 -0.9375 -3.03125l0 -0.53125q0 -1.21875 0.4375 -2.15625q0.4375 -0.9375 1.234375 -1.4375q0.8125 -0.515625 1.875 -0.515625q1.484375 0 2.375 0.796875q0.90625 0.796875 1.046875 2.21875l-1.75 0q-0.0625 -0.828125 -0.46875 -1.1875q-0.390625 -0.375 -1.203125 -0.375q-0.875 0 -1.3125 0.625q-0.4375 0.625 -0.453125 1.953125l0 0.640625q0 1.390625 0.421875 2.03125q0.421875 0.640625 1.328125 0.640625q0.8125 0 1.203125 -0.375q0.40625 -0.375 0.46875 -1.15625l1.75 0zm2.8359375 2.84375l-1.703125 0l0 -9.0l1.703125 0l0 9.0zm5.0722656 0q-0.125 -0.234375 -0.171875 -0.5625q-0.609375 0.6875 -1.59375 0.6875q-0.9375 0 -1.546875 -0.546875q-0.609375 -0.546875 -0.609375 -1.359375q0 -1.015625 0.734375 -1.546875q0.75 -0.546875 2.171875 -0.546875l0.765625 0l0 -0.359375q0 -0.4375 -0.21875 -0.703125q-0.21875 -0.265625 -0.71875 -0.265625q-0.421875 0 -0.671875 0.203125q-0.234375 0.203125 -0.234375 0.5625l-1.6875 0q0 -0.546875 0.328125 -1.015625q0.34375 -0.46875 0.96875 -0.734375q0.625 -0.265625 1.390625 -0.265625q1.171875 0 1.859375 0.59375q0.6875 0.578125 0.6875 1.640625l0 2.75q0.015625 0.90625 0.25 1.375l0 0.09375l-1.703125 0zm-1.40625 -1.171875q0.375 0 0.6875 -0.171875q0.328125 -0.171875 0.46875 -0.453125l0 -1.09375l-0.625 0q-1.265625 0 -1.359375 0.890625l0 0.09375q0 0.3125 0.21875 0.53125q0.21875 0.203125 0.609375 0.203125zm7.5898438 -0.578125q0 -0.3125 -0.3125 -0.484375q-0.296875 -0.1875 -0.96875 -0.328125q-2.265625 -0.46875 -2.265625 -1.921875q0 -0.84375 0.6875 -1.40625q0.703125 -0.5625 1.84375 -0.5625q1.203125 0 1.921875 0.5625q0.734375 0.5625 0.734375 1.484375l-1.703125 0q0 -0.375 -0.234375 -0.609375q-0.234375 -0.234375 -0.734375 -0.234375q-0.421875 0 -0.65625 0.203125q-0.234375 0.1875 -0.234375 0.484375q0 0.28125 0.265625 0.453125q0.265625 0.171875 0.890625 0.296875q0.640625 0.125 1.078125 0.28125q1.34375 0.5 1.34375 1.703125q0 0.875 -0.75 1.421875q-0.734375 0.53125 -1.921875 0.53125q-0.796875 0 -1.421875 -0.28125q-0.609375 -0.296875 -0.96875 -0.78125q-0.34375 -0.5 -0.34375 -1.078125l1.609375 0q0.015625 0.453125 0.328125 0.703125q0.3125 0.234375 0.828125 0.234375q0.5 0 0.734375 -0.1875q0.25 -0.1875 0.25 -0.484375zm6.169922 0q0 -0.3125 -0.3125 -0.484375q-0.296875 -0.1875 -0.96875 -0.328125q-2.265625 -0.46875 -2.265625 -1.921875q0 -0.84375 0.6875 -1.40625q0.703125 -0.5625 1.84375 -0.5625q1.203125 0 1.921875 0.5625q0.734375 0.5625 0.734375 1.484375l-1.703125 0q0 -0.375 -0.234375 -0.609375q-0.234375 -0.234375 -0.734375 -0.234375q-0.421875 0 -0.65625 0.203125q-0.234375 0.1875 -0.234375 0.484375q0 0.28125 0.265625 0.453125q0.265625 0.171875 0.890625 0.296875q0.640625 0.125 1.078125 0.28125q1.34375 0.5 1.34375 1.703125q0 0.875 -0.75 1.421875q-0.734375 0.53125 -1.921875 0.53125q-0.796875 0 -1.421875 -0.28125q-0.609375 -0.296875 -0.96875 -0.78125q-0.34375 -0.5 -0.34375 -1.078125l1.609375 0q0.015625 0.453125 0.328125 0.703125q0.3125 0.234375 0.828125 0.234375q0.5 0 0.734375 -0.1875q0.25 -0.1875 0.25 -0.484375zm7.595703 0.34375l3.734375 0l0 1.40625l-5.484375 0l0 -8.53125l1.75 0l0 7.125zm8.310547 1.40625q-0.125 -0.234375 -0.171875 -0.5625q-0.609375 0.6875 -1.59375 0.6875q-0.9375 0 -1.546875 -0.546875q-0.609375 -0.546875 -0.609375 -1.359375q0 -1.015625 0.734375 -1.546875q0.75 -0.546875 2.171875 -0.546875l0.765625 0l0 -0.359375q0 -0.4375 -0.21875 -0.703125q-0.21875 -0.265625 -0.71875 -0.265625q-0.421875 0 -0.671875 0.203125q-0.234375 0.203125 -0.234375 0.5625l-1.6875 0q0 -0.546875 0.328125 -1.015625q0.34375 -0.46875 0.96875 -0.734375q0.625 -0.265625 1.390625 -0.265625q1.171875 0 1.859375 0.59375q0.6875 0.578125 0.6875 1.640625l0 2.75q0.015625 0.90625 0.25 1.375l0 0.09375l-1.703125 0zm-1.40625 -1.171875q0.375 0 0.6875 -0.171875q0.328125 -0.171875 0.46875 -0.453125l0 -1.09375l-0.625 0q-1.265625 0 -1.359375 0.890625l0 0.09375q0 0.3125 0.21875 0.53125q0.21875 0.203125 0.609375 0.203125zm9.871094 -1.9375q0 1.515625 -0.65625 2.375q-0.640625 0.859375 -1.8125 0.859375q-1.03125 0 -1.640625 -0.796875l-0.078125 0.671875l-1.515625 0l0 -9.0l1.6875 0l0 3.234375q0.59375 -0.6875 1.546875 -0.6875q1.15625 0 1.8125 0.859375q0.65625 0.84375 0.65625 2.390625l0 0.09375zm-1.6875 -0.125q0 -0.96875 -0.3125 -1.40625q-0.296875 -0.4375 -0.90625 -0.4375q-0.796875 0 -1.109375 0.65625l0 2.5q0.3125 0.671875 1.125 0.671875q0.828125 0 1.078125 -0.8125q0.125 -0.375 0.125 -1.171875zm5.6464844 3.359375q-1.390625 0 -2.265625 -0.859375q-0.875 -0.859375 -0.875 -2.28125l0 -0.171875q0 -0.953125 0.359375 -1.703125q0.375 -0.75 1.046875 -1.15625q0.6875 -0.40625 1.546875 -0.40625q1.3125 0 2.046875 0.828125q0.75 0.8125 0.75 2.3125l0 0.6875l-4.03125 0q0.078125 0.625 0.484375 1.0q0.421875 0.375 1.0625 0.375q0.96875 0 1.515625 -0.703125l0.84375 0.921875q-0.390625 0.546875 -1.046875 0.859375q-0.640625 0.296875 -1.4375 0.296875zm-0.1875 -5.21875q-0.5 0 -0.8125 0.34375q-0.3125 0.34375 -0.40625 0.96875l2.359375 0l0 -0.125q-0.015625 -0.5625 -0.3125 -0.875q-0.28125 -0.3125 -0.828125 -0.3125zm5.548828 5.09375l-1.703125 0l0 -9.0l1.703125 0l0 9.0zm4.8222656 -1.75q0 -0.3125 -0.3125 -0.484375q-0.296875 -0.1875 -0.96875 -0.328125q-2.265625 -0.46875 -2.265625 -1.921875q0 -0.84375 0.6875 -1.40625q0.703125 -0.5625 1.84375 -0.5625q1.203125 0 1.921875 0.5625q0.734375 0.5625 0.734375 1.484375l-1.703125 0q0 -0.375 -0.234375 -0.609375q-0.234375 -0.234375 -0.734375 -0.234375q-0.421875 0 -0.65625 0.203125q-0.234375 0.1875 -0.234375 0.484375q0 0.28125 0.265625 0.453125q0.265625 0.171875 0.890625 0.296875q0.640625 0.125 1.078125 0.28125q1.34375 0.5 1.34375 1.703125q0 0.875 -0.75 1.421875q-0.734375 0.53125 -1.921875 0.53125q-0.796875 0 -1.421875 -0.28125q-0.609375 -0.296875 -0.96875 -0.78125q-0.34375 -0.5 -0.34375 -1.078125l1.609375 0q0.015625 0.453125 0.328125 0.703125q0.3125 0.234375 0.828125 0.234375q0.5 0 0.734375 -0.1875q0.25 -0.1875 0.25 -0.484375z" fill-rule="nonzero"></path><path fill="#000000" d="m610.03265 63.605835q0 -0.9375 0.359375 -1.671875q0.359375 -0.75 1.046875 -1.140625q0.6875 -0.40625 1.578125 -0.40625q1.296875 0 2.09375 0.78125q0.8125 0.78125 0.90625 2.125l0.015625 0.4375q0 1.46875 -0.8125 2.359375q-0.8125 0.875 -2.1875 0.875q-1.375 0 -2.1875 -0.875q-0.8125 -0.890625 -0.8125 -2.40625l0 -0.078125zm1.6875 0.125q0 0.90625 0.34375 1.390625q0.34375 0.46875 0.96875 0.46875q0.625 0 0.96875 -0.46875q0.34375 -0.46875 0.34375 -1.515625q0 -0.875 -0.34375 -1.359375q-0.34375 -0.5 -0.984375 -0.5q-0.609375 0 -0.953125 0.484375q-0.34375 0.484375 -0.34375 1.5zm8.925781 -1.640625q-0.34375 -0.046875 -0.609375 -0.046875q-0.96875 0 -1.265625 0.640625l0 4.15625l-1.6875 0l0 -6.34375l1.59375 0l0.046875 0.765625q0.515625 -0.875 1.40625 -0.875q0.28125 0 0.53125 0.078125l-0.015625 1.625z" fill-rule="nonzero"></path><path fill="#000000" d="m571.91644 77.99646q-0.09375 1.375 -1.015625 2.171875q-0.90625 0.796875 -2.40625 0.796875q-1.640625 0 -2.59375 -1.109375q-0.9375 -1.109375 -0.9375 -3.03125l0 -0.53125q0 -1.21875 0.4375 -2.15625q0.4375 -0.9375 1.234375 -1.4375q0.8125 -0.515625 1.875 -0.515625q1.484375 0 2.375 0.796875q0.90625 0.796875 1.046875 2.21875l-1.75 0q-0.0625 -0.828125 -0.46875 -1.1875q-0.390625 -0.375 -1.203125 -0.375q-0.875 0 -1.3125 0.625q-0.4375 0.625 -0.453125 1.953125l0 0.640625q0 1.390625 0.421875 2.03125q0.421875 0.640625 1.328125 0.640625q0.8125 0 1.203125 -0.375q0.40625 -0.375 0.46875 -1.15625l1.75 0zm0.7890625 -0.390625q0 -0.9375 0.359375 -1.671875q0.359375 -0.75 1.046875 -1.140625q0.6875 -0.40625 1.578125 -0.40625q1.296875 0 2.09375 0.78125q0.8125 0.78125 0.90625 2.125l0.015625 0.4375q0 1.46875 -0.8125 2.359375q-0.8125 0.875 -2.1875 0.875q-1.375 0 -2.1875 -0.875q-0.8125 -0.890625 -0.8125 -2.40625l0 -0.078125zm1.6875 0.125q0 0.90625 0.34375 1.390625q0.34375 0.46875 0.96875 0.46875q0.625 0 0.96875 -0.46875q0.34375 -0.46875 0.34375 -1.515625q0 -0.875 -0.34375 -1.359375q-0.34375 -0.5 -0.984375 -0.5q-0.609375 0 -0.953125 0.484375q-0.34375 0.484375 -0.34375 1.5zm6.9101562 -3.234375l0.0625 0.734375q0.671875 -0.84375 1.8125 -0.84375q1.015625 0 1.5 0.59375q0.5 0.578125 0.515625 1.765625l0 4.09375l-1.703125 0l0 -4.0625q0 -0.53125 -0.234375 -0.765625q-0.234375 -0.25 -0.78125 -0.25q-0.703125 0 -1.0625 0.609375l0 4.46875l-1.703125 0l0 -6.34375l1.59375 0zm7.189453 -1.5625l0 1.5625l1.09375 0l0 1.25l-1.09375 0l0 3.15625q0 0.359375 0.140625 0.515625q0.140625 0.140625 0.515625 0.140625q0.28125 0 0.5 -0.03125l0 1.28125q-0.5 0.15625 -1.03125 0.15625q-1.78125 0 -1.8125 -1.8125l0 -3.40625l-0.921875 0l0 -1.25l0.921875 0l0 -1.5625l1.6875 0zm3.8203125 7.90625l-1.703125 0l0 -6.34375l1.703125 0l0 6.34375zm-1.796875 -7.984375q0 -0.375 0.25 -0.625q0.265625 -0.25 0.703125 -0.25q0.421875 0 0.671875 0.25q0.265625 0.25 0.265625 0.625q0 0.390625 -0.265625 0.640625q-0.25 0.234375 -0.6875 0.234375q-0.421875 0 -0.6875 -0.234375q-0.25 -0.25 -0.25 -0.640625zm4.7441406 1.640625l0.0625 0.734375q0.671875 -0.84375 1.8125 -0.84375q1.015625 0 1.5 0.59375q0.5 0.578125 0.515625 1.765625l0 4.09375l-1.703125 0l0 -4.0625q0 -0.53125 -0.234375 -0.765625q-0.234375 -0.25 -0.78125 -0.25q-0.703125 0 -1.0625 0.609375l0 4.46875l-1.703125 0l0 -6.34375l1.59375 0zm8.970703 5.703125q-0.625 0.765625 -1.734375 0.765625q-1.03125 0 -1.5625 -0.59375q-0.53125 -0.59375 -0.546875 -1.71875l0 -4.15625l1.6875 0l0 4.09375q0 1.0 0.90625 1.0q0.859375 0 1.1875 -0.609375l0 -4.484375l1.703125 0l0 6.34375l-1.59375 0l-0.046875 -0.640625zm2.6523438 -2.59375q0 -0.9375 0.359375 -1.671875q0.359375 -0.75 1.046875 -1.140625q0.6875 -0.40625 1.578125 -0.40625q1.296875 0 2.09375 0.78125q0.8125 0.78125 0.90625 2.125l0.015625 0.4375q0 1.46875 -0.8125 2.359375q-0.8125 0.875 -2.1875 0.875q-1.375 0 -2.1875 -0.875q-0.8125 -0.890625 -0.8125 -2.40625l0 -0.078125zm1.6875 0.125q0 0.90625 0.34375 1.390625q0.34375 0.46875 0.96875 0.46875q0.625 0 0.96875 -0.46875q0.34375 -0.46875 0.34375 -1.515625q0 -0.875 -0.34375 -1.359375q-0.34375 -0.5 -0.984375 -0.5q-0.609375 0 -0.953125 0.484375q-0.34375 0.484375 -0.34375 1.5zm9.160156 2.46875q-0.625 0.765625 -1.734375 0.765625q-1.03125 0 -1.5625 -0.59375q-0.53125 -0.59375 -0.546875 -1.71875l0 -4.15625l1.6875 0l0 4.09375q0 1.0 0.90625 1.0q0.859375 0 1.1875 -0.609375l0 -4.484375l1.703125 0l0 6.34375l-1.59375 0l-0.046875 -0.640625zm6.3398438 -1.109375q0 -0.3125 -0.3125 -0.484375q-0.296875 -0.1875 -0.96875 -0.328125q-2.265625 -0.46875 -2.265625 -1.921875q0 -0.84375 0.6875 -1.40625q0.703125 -0.5625 1.84375 -0.5625q1.203125 0 1.921875 0.5625q0.734375 0.5625 0.734375 1.484375l-1.703125 0q0 -0.375 -0.234375 -0.609375q-0.234375 -0.234375 -0.734375 -0.234375q-0.421875 0 -0.65625 0.203125q-0.234375 0.1875 -0.234375 0.484375q0 0.28125 0.265625 0.453125q0.265625 0.171875 0.890625 0.296875q0.640625 0.125 1.078125 0.28125q1.34375 0.5 1.34375 1.703125q0 0.875 -0.75 1.421875q-0.734375 0.53125 -1.921875 0.53125q-0.796875 0 -1.421875 -0.28125q-0.609375 -0.296875 -0.96875 -0.78125q-0.34375 -0.5 -0.34375 -1.078125l1.609375 0q0.015625 0.453125 0.328125 0.703125q0.3125 0.234375 0.828125 0.234375q0.5 0 0.734375 -0.1875q0.25 -0.1875 0.25 -0.484375zm9.001953 -0.359375l1.921875 -6.421875l1.96875 0l-2.984375 8.53125l-1.828125 0l-2.953125 -8.53125l1.953125 0l1.921875 6.421875zm8.251953 2.109375q-0.125 -0.234375 -0.171875 -0.5625q-0.609375 0.6875 -1.59375 0.6875q-0.9375 0 -1.546875 -0.546875q-0.609375 -0.546875 -0.609375 -1.359375q0 -1.015625 0.734375 -1.546875q0.75 -0.546875 2.171875 -0.546875l0.765625 0l0 -0.359375q0 -0.4375 -0.21875 -0.703125q-0.21875 -0.265625 -0.71875 -0.265625q-0.421875 0 -0.671875 0.203125q-0.234375 0.203125 -0.234375 0.5625l-1.6875 0q0 -0.546875 0.328125 -1.015625q0.34375 -0.46875 0.96875 -0.734375q0.625 -0.265625 1.390625 -0.265625q1.171875 0 1.859375 0.59375q0.6875 0.578125 0.6875 1.640625l0 2.75q0.015625 0.90625 0.25 1.375l0 0.09375l-1.703125 0zm-1.40625 -1.171875q0.375 0 0.6875 -0.171875q0.328125 -0.171875 0.46875 -0.453125l0 -1.09375l-0.625 0q-1.265625 0 -1.359375 0.890625l0 0.09375q0 0.3125 0.21875 0.53125q0.21875 0.203125 0.609375 0.203125zm5.9492188 1.171875l-1.703125 0l0 -9.0l1.703125 0l0 9.0zm5.1972656 -0.640625q-0.625 0.765625 -1.734375 0.765625q-1.03125 0 -1.5625 -0.59375q-0.53125 -0.59375 -0.546875 -1.71875l0 -4.15625l1.6875 0l0 4.09375q0 1.0 0.90625 1.0q0.859375 0 1.1875 -0.609375l0 -4.484375l1.703125 0l0 6.34375l-1.59375 0l-0.046875 -0.640625zm5.8242188 0.765625q-1.390625 0 -2.265625 -0.859375q-0.875 -0.859375 -0.875 -2.28125l0 -0.171875q0 -0.953125 0.359375 -1.703125q0.375 -0.75 1.046875 -1.15625q0.6875 -0.40625 1.546875 -0.40625q1.3125 0 2.046875 0.828125q0.75 0.8125 0.75 2.3125l0 0.6875l-4.03125 0q0.078125 0.625 0.484375 1.0q0.421875 0.375 1.0625 0.375q0.96875 0 1.515625 -0.703125l0.84375 0.921875q-0.390625 0.546875 -1.046875 0.859375q-0.640625 0.296875 -1.4375 0.296875zm-0.1875 -5.21875q-0.5 0 -0.8125 0.34375q-0.3125 0.34375 -0.40625 0.96875l2.359375 0l0 -0.125q-0.015625 -0.5625 -0.3125 -0.875q-0.28125 -0.3125 -0.828125 -0.3125zm7.189453 3.34375q0 -0.3125 -0.3125 -0.484375q-0.296875 -0.1875 -0.96875 -0.328125q-2.265625 -0.46875 -2.265625 -1.921875q0 -0.84375 0.6875 -1.40625q0.703125 -0.5625 1.84375 -0.5625q1.203125 0 1.921875 0.5625q0.734375 0.5625 0.734375 1.484375l-1.703125 0q0 -0.375 -0.234375 -0.609375q-0.234375 -0.234375 -0.734375 -0.234375q-0.421875 0 -0.65625 0.203125q-0.234375 0.1875 -0.234375 0.484375q0 0.28125 0.265625 0.453125q0.265625 0.171875 0.890625 0.296875q0.640625 0.125 1.078125 0.28125q1.34375 0.5 1.34375 1.703125q0 0.875 -0.75 1.421875q-0.734375 0.53125 -1.921875 0.53125q-0.796875 0 -1.421875 -0.28125q-0.609375 -0.296875 -0.96875 -0.78125q-0.34375 -0.5 -0.34375 -1.078125l1.609375 0q0.015625 0.453125 0.328125 0.703125q0.3125 0.234375 0.828125 0.234375q0.5 0 0.734375 -0.1875q0.25 -0.1875 0.25 -0.484375z" fill-rule="nonzero"></path><path fill="#000000" fill-opacity="0.0" d="m615.2231 88.855644l0 24.409447" fill-rule="evenodd"></path><path stroke="#000000" stroke-width="1.0" stroke-linejoin="round" stroke-linecap="butt" d="m615.2231 88.855644l0 18.409447" fill-rule="evenodd"></path><path fill="#000000" stroke="#000000" stroke-width="1.0" stroke-linecap="butt" d="m613.57135 107.26509l1.6517334 4.538101l1.6517334 -4.538101z" fill-rule="evenodd"></path><path fill="#000000" fill-opacity="0.0" d="m525.04724 119.254585l43.590576 0l0 46.33071l-43.590576 0z" fill-rule="evenodd"></path><path fill="#000000" d="m537.81287 139.33458l1.46875 -4.921875l2.265625 0l-3.171875 9.15625l-0.1875 0.40625q-0.703125 1.5625 -2.34375 1.5625q-0.453125 0 -0.9375 -0.140625l0 -1.609375l0.328125 0.015625q0.59375 0 0.890625 -0.1875q0.296875 -0.1875 0.46875 -0.609375l0.25 -0.65625l-2.78125 -7.9375l2.28125 0l1.46875 4.921875z" fill-rule="nonzero"></path><path fill="#000000" fill-opacity="0.0" d="m535.50446 128.276l33.13385 0l0 36.566925l-33.13385 0z" fill-rule="evenodd"></path><path fill="#000000" d="m548.7701 148.796l-1.078125 0l0 -7.21875l-2.1875 0.796875l0 -0.984375l3.109375 -1.171875l0.15625 0l0 8.578125z" fill-rule="nonzero"></path><path fill="#000000" fill-opacity="0.0" d="m568.6378 142.41994l25.35431 0" fill-rule="evenodd"></path><path stroke="#000000" stroke-width="1.0" stroke-linejoin="round" stroke-linecap="butt" d="m568.6378 142.41994l19.35431 0" fill-rule="evenodd"></path><path fill="#000000" stroke="#000000" stroke-width="1.0" stroke-linecap="butt" d="m587.9921 144.07167l4.538086 -1.6517334l-4.538086 -1.6517334z" fill-rule="evenodd"></path><path fill="#000000" fill-opacity="0.0" d="m525.0315 168.04199l43.590576 0l0 46.330704l-43.590576 0z" fill-rule="evenodd"></path><path fill="#000000" d="m537.7971 188.122l1.46875 -4.921875l2.265625 0l-3.171875 9.15625l-0.1875 0.40625q-0.703125 1.5625 -2.34375 1.5625q-0.453125 0 -0.9375 -0.140625l0 -1.609375l0.328125 0.015625q0.59375 0 0.890625 -0.1875q0.296875 -0.1875 0.46875 -0.609375l0.25 -0.65625l-2.78125 -7.9375l2.28125 0l1.46875 4.921875z" fill-rule="nonzero"></path><path fill="#000000" fill-opacity="0.0" d="m535.4887 177.0634l33.13385 0l0 36.566925l-33.13385 0z" fill-rule="evenodd"></path><path fill="#000000" d="m550.7856 197.5834l-5.59375 0l0 -0.78125l2.953125 -3.28125q0.65625 -0.75 0.90625 -1.203125q0.25 -0.46875 0.25 -0.96875q0 -0.671875 -0.40625 -1.09375q-0.390625 -0.4375 -1.078125 -0.4375q-0.796875 0 -1.25 0.46875q-0.453125 0.453125 -0.453125 1.28125l-1.078125 0q0 -1.1875 0.75 -1.90625q0.765625 -0.734375 2.03125 -0.734375q1.203125 0 1.890625 0.625q0.6875 0.625 0.6875 1.671875q0 1.25 -1.609375 3.0l-2.28125 2.46875l4.28125 0l0 0.890625z" fill-rule="nonzero"></path><path fill="#000000" fill-opacity="0.0" d="m568.6221 191.20734l25.35431 0" fill-rule="evenodd"></path><path stroke="#000000" stroke-width="1.0" stroke-linejoin="round" stroke-linecap="butt" d="m568.6221 191.20735l19.35431 0" fill-rule="evenodd"></path><path fill="#000000" stroke="#000000" stroke-width="1.0" stroke-linecap="butt" d="m587.9764 192.85909l4.538086 -1.6517334l-4.538086 -1.6517334z" fill-rule="evenodd"></path><path fill="#000000" fill-opacity="0.0" d="m525.0315 216.82939l43.590576 0l0 46.330704l-43.590576 0z" fill-rule="evenodd"></path><path fill="#000000" d="m537.7971 236.9094l1.46875 -4.921875l2.265625 0l-3.171875 9.15625l-0.1875 0.40625q-0.703125 1.5625 -2.34375 1.5625q-0.453125 0 -0.9375 -0.140625l0 -1.609375l0.328125 0.015625q0.59375 0 0.890625 -0.1875q0.296875 -0.1875 0.46875 -0.609375l0.25 -0.65625l-2.78125 -7.9375l2.28125 0l1.46875 4.921875z" fill-rule="nonzero"></path><path fill="#000000" fill-opacity="0.0" d="m535.4887 225.8508l33.13385 0l0 36.566925l-33.13385 0z" fill-rule="evenodd"></path><path fill="#000000" d="m546.76996 241.57393l0.8125 0q0.78125 -0.015625 1.21875 -0.40625q0.4375 -0.390625 0.4375 -1.0625q0 -1.5 -1.5 -1.5q-0.703125 0 -1.125 0.40625q-0.40625 0.40625 -0.40625 1.0625l-1.09375 0q0 -1.015625 0.734375 -1.6875q0.75 -0.671875 1.890625 -0.671875q1.203125 0 1.890625 0.640625q0.6875 0.640625 0.6875 1.78125q0 0.5625 -0.359375 1.078125q-0.359375 0.515625 -0.984375 0.78125q0.703125 0.21875 1.078125 0.734375q0.390625 0.515625 0.390625 1.265625q0 1.140625 -0.75 1.828125q-0.75 0.671875 -1.953125 0.671875q-1.1875 0 -1.953125 -0.65625q-0.75 -0.65625 -0.75 -1.71875l1.09375 0q0 0.671875 0.4375 1.078125q0.4375 0.40625 1.1875 0.40625q0.78125 0 1.1875 -0.40625q0.421875 -0.421875 0.421875 -1.1875q0 -0.734375 -0.453125 -1.125q-0.453125 -0.40625 -1.328125 -0.421875l-0.8125 0l0 -0.890625z" fill-rule="nonzero"></path><path fill="#000000" fill-opacity="0.0" d="m568.6221 239.99475l25.35431 0" fill-rule="evenodd"></path><path stroke="#000000" stroke-width="1.0" stroke-linejoin="round" stroke-linecap="butt" d="m568.6221 239.99475l19.35431 0" fill-rule="evenodd"></path><path fill="#000000" stroke="#000000" stroke-width="1.0" stroke-linecap="butt" d="m587.9764 241.64648l4.538086 -1.6517334l-4.538086 -1.6517334z" fill-rule="evenodd"></path><path fill="#000000" fill-opacity="0.0" d="m525.0315 313.17584l43.590576 0l0 46.33072l-43.590576 0z" fill-rule="evenodd"></path><path fill="#000000" d="m537.7971 333.25586l1.46875 -4.921875l2.265625 0l-3.171875 9.15625l-0.1875 0.40625q-0.703125 1.5625 -2.34375 1.5625q-0.453125 0 -0.9375 -0.140625l0 -1.609375l0.328125 0.015625q0.59375 0 0.890625 -0.1875q0.296875 -0.1875 0.46875 -0.609375l0.25 -0.65625l-2.78125 -7.9375l2.28125 0l1.46875 4.921875z" fill-rule="nonzero"></path><path fill="#000000" fill-opacity="0.0" d="m535.4887 322.19727l33.13385 0l0 36.566925l-33.13385 0z" fill-rule="evenodd"></path><path fill="#000000" d="m546.33246 336.3735l0.03125 0.796875q0.734375 -0.90625 1.90625 -0.90625q2.015625 0 2.03125 2.265625l0 4.1875l-1.09375 0l0 -4.203125q0 -0.671875 -0.3125 -1.0q-0.296875 -0.328125 -0.953125 -0.328125q-0.53125 0 -0.9375 0.28125q-0.390625 0.28125 -0.609375 0.734375l0 4.515625l-1.078125 0l0 -6.34375l1.015625 0z" fill-rule="nonzero"></path><path fill="#000000" fill-opacity="0.0" d="m568.6221 336.3412l25.35431 0" fill-rule="evenodd"></path><path stroke="#000000" stroke-width="1.0" stroke-linejoin="round" stroke-linecap="butt" d="m568.6221 336.34122l19.35431 0" fill-rule="evenodd"></path><path fill="#000000" stroke="#000000" stroke-width="1.0" stroke-linecap="butt" d="m587.9764 337.99295l4.538086 -1.6517334l-4.538086 -1.6517334z" fill-rule="evenodd"></path><path fill="#000000" fill-opacity="0.0" d="m535.48816 256.02887l18.771667 0l0 48.787415l-18.771667 0z" fill-rule="evenodd"></path><path fill="#000000" d="m545.16003 274.50323q0 -0.375 0.25 -0.59375q0.25 -0.234375 0.625 -0.234375q0.390625 0 0.640625 0.234375q0.25 0.21875 0.25 0.59375q0 0.375 -0.25 0.609375q-0.25 0.21875 -0.640625 0.21875q-0.375 0 -0.625 -0.21875q-0.25 -0.234375 -0.25 -0.609375z" fill-rule="nonzero"></path><path fill="#000000" d="m545.16003 287.50323q0 -0.375 0.25 -0.59375q0.25 -0.234375 0.625 -0.234375q0.390625 0 0.640625 0.234375q0.25 0.21875 0.25 0.59375q0 0.375 -0.25 0.609375q-0.25 0.21875 -0.640625 0.21875q-0.375 0 -0.625 -0.21875q-0.25 -0.234375 -0.25 -0.609375z" fill-rule="nonzero"></path><path fill="#000000" d="m545.16003 300.50323q0 -0.375 0.25 -0.59375q0.25 -0.234375 0.625 -0.234375q0.390625 0 0.640625 0.234375q0.25 0.21875 0.25 0.59375q0 0.375 -0.25 0.609375q-0.25 0.21875 -0.640625 0.21875q-0.375 0 -0.625 -0.21875q-0.25 -0.234375 -0.25 -0.609375z" fill-rule="nonzero"></path><path fill="#000000" fill-opacity="0.0" d="m13.624672 182.55905l313.88977 0l0 36.62993l-313.88977 0z" fill-rule="evenodd"></path></g></svg>

