<?xml version="1.0" standalone="yes"?>

<svg version="1.1" viewBox="0.0 0.0 911.5984251968504 388.3543307086614" fill="none" stroke="none" stroke-linecap="square" stroke-miterlimit="10" xmlns="http://www.w3.org/2000/svg" xmlns:xlink="http://www.w3.org/1999/xlink"><clipPath id="p.0"><path d="m0 0l911.59845 0l0 388.35434l-911.59845 0l0 -388.35434z" clip-rule="nonzero"></path></clipPath><g clip-path="url(#p.0)"><path fill="#000000" fill-opacity="0.0" d="m0 0l911.59845 0l0 388.35434l-911.59845 0z" fill-rule="evenodd"></path><path fill="#6d9eeb" d="m378.76904 71.30971l0 0c0 -18.508057 34.237854 -33.511806 76.47241 -33.511806l0 0c42.23459 0 76.47247 15.00375 76.47247 33.511806l0 0c0 18.508064 -34.237885 33.511818 -76.47247 33.511818l0 0c-42.23456 0 -76.47241 -15.003754 -76.47241 -33.511818z" fill-rule="evenodd"></path><path stroke="#000000" stroke-width="1.0" stroke-linejoin="round" stroke-linecap="butt" d="m378.76904 71.30971l0 0c0 -18.508057 34.237854 -33.511806 76.47241 -33.511806l0 0c42.23459 0 76.47247 15.00375 76.47247 33.511806l0 0c0 18.508064 -34.237885 33.511818 -76.47247 33.511818l0 0c-42.23456 0 -76.47241 -15.003754 -76.47241 -33.511818z" fill-rule="evenodd"></path><path fill="#000000" d="m422.6172 58.85971l0 6.296875q0 1.296875 -0.828125 2.140625q-0.8125 0.828125 -2.203125 0.921875l-0.328125 0.015625q-1.515625 0 -2.421875 -0.8125q-0.890625 -0.828125 -0.90625 -2.265625l0 -6.296875l1.203125 0l0 6.265625q0 1.0 0.546875 1.5625q0.5625 0.546875 1.578125 0.546875q1.03125 0 1.578125 -0.546875q0.5625 -0.546875 0.5625 -1.5625l0 -6.265625l1.21875 0zm3.064331 2.375l0.03125 0.875q0.796875 -1.0 2.0625 -1.0q2.171875 0 2.203125 2.46875l0 4.53125l-1.1875 0l0 -4.546875q0 -0.734375 -0.34375 -1.09375q-0.328125 -0.359375 -1.03125 -0.359375q-0.5625 0 -1.0 0.3125q-0.4375 0.296875 -0.671875 0.796875l0 4.890625l-1.171875 0l0 -6.875l1.109375 0zm10.244507 5.046875q0 -0.46875 -0.359375 -0.734375q-0.359375 -0.265625 -1.25 -0.453125q-0.890625 -0.1875 -1.421875 -0.453125q-0.515625 -0.265625 -0.765625 -0.625q-0.25 -0.375 -0.25 -0.890625q0 -0.84375 0.703125 -1.421875q0.71875 -0.59375 1.828125 -0.59375q1.171875 0 1.890625 0.609375q0.734375 0.59375 0.734375 1.546875l-1.1875 0q0 -0.484375 -0.40625 -0.828125q-0.40625 -0.359375 -1.03125 -0.359375q-0.640625 0 -1.0 0.28125q-0.359375 0.28125 -0.359375 0.734375q0 0.421875 0.328125 0.640625q0.34375 0.203125 1.21875 0.40625q0.875 0.203125 1.421875 0.484375q0.546875 0.265625 0.8125 0.65625q0.265625 0.375 0.265625 0.921875q0 0.921875 -0.734375 1.484375q-0.734375 0.546875 -1.90625 0.546875q-0.828125 0 -1.46875 -0.28125q-0.625 -0.296875 -0.984375 -0.8125q-0.359375 -0.53125 -0.359375 -1.140625l1.171875 0q0.03125 0.578125 0.46875 0.9375q0.4375 0.34375 1.171875 0.34375q0.65625 0 1.0625 -0.265625q0.40625 -0.28125 0.40625 -0.734375zm7.1066895 1.15625q-0.6875 0.796875 -2.015625 0.796875q-1.09375 0 -1.671875 -0.640625q-0.5625 -0.640625 -0.578125 -1.890625l0 -4.46875l1.171875 0l0 4.4375q0 1.5625 1.28125 1.5625q1.34375 0 1.78125 -1.0l0 -5.0l1.171875 0l0 6.875l-1.109375 0l-0.03125 -0.671875zm8.909912 -2.6875q0 1.5625 -0.71875 2.53125q-0.71875 0.953125 -1.9375 0.953125q-1.25 0 -1.96875 -0.796875l0 3.3125l-1.171875 0l0 -9.515625l1.078125 0l0.046875 0.765625q0.71875 -0.890625 2.0 -0.890625q1.234375 0 1.953125 0.9375q0.71875 0.9375 0.71875 2.59375l0 0.109375zm-1.171875 -0.125q0 -1.171875 -0.5 -1.84375q-0.484375 -0.671875 -1.359375 -0.671875q-1.0625 0 -1.59375 0.953125l0 3.28125q0.53125 0.9375 1.609375 0.9375q0.84375 0 1.34375 -0.671875q0.5 -0.671875 0.5 -1.984375zm5.696289 3.609375q-1.390625 0 -2.265625 -0.90625q-0.875 -0.921875 -0.875 -2.46875l0 -0.203125q0 -1.03125 0.390625 -1.828125q0.390625 -0.8125 1.09375 -1.265625q0.703125 -0.453125 1.515625 -0.453125q1.34375 0 2.078125 0.890625q0.75 0.875 0.75 2.515625l0 0.5l-4.65625 0q0.03125 1.015625 0.59375 1.640625q0.5625 0.625 1.4375 0.625q0.625 0 1.046875 -0.25q0.4375 -0.265625 0.765625 -0.6875l0.71875 0.5625q-0.859375 1.328125 -2.59375 1.328125zm-0.140625 -6.15625q-0.71875 0 -1.203125 0.515625q-0.46875 0.515625 -0.59375 1.453125l3.453125 0l0 -0.09375q-0.0625 -0.890625 -0.5 -1.375q-0.421875 -0.5 -1.15625 -0.5zm7.6704407 0.21875q-0.265625 -0.046875 -0.578125 -0.046875q-1.15625 0 -1.5625 0.984375l0 4.875l-1.171875 0l0 -6.875l1.140625 0l0.015625 0.796875q0.578125 -0.921875 1.640625 -0.921875q0.34375 0 0.515625 0.09375l0 1.09375zm3.4630737 4.21875l1.703125 -5.28125l1.203125 0l-2.46875 6.875l-0.890625 0l-2.5 -6.875l1.203125 0l1.75 5.28125zm5.4714355 1.59375l-1.1875 0l0 -6.875l1.1875 0l0 6.875zm-1.28125 -8.6875q0 -0.28125 0.171875 -0.484375q0.1875 -0.203125 0.53125 -0.203125q0.34375 0 0.515625 0.203125q0.171875 0.203125 0.171875 0.484375q0 0.28125 -0.171875 0.46875q-0.171875 0.1875 -0.515625 0.1875q-0.34375 0 -0.53125 -0.1875q-0.171875 -0.1875 -0.171875 -0.46875zm7.234436 6.859375q0 -0.46875 -0.359375 -0.734375q-0.359375 -0.265625 -1.25 -0.453125q-0.890625 -0.1875 -1.421875 -0.453125q-0.515625 -0.265625 -0.765625 -0.625q-0.25 -0.375 -0.25 -0.890625q0 -0.84375 0.703125 -1.421875q0.71875 -0.59375 1.828125 -0.59375q1.171875 0 1.890625 0.609375q0.734375 0.59375 0.734375 1.546875l-1.1875 0q0 -0.484375 -0.40625 -0.828125q-0.40625 -0.359375 -1.03125 -0.359375q-0.640625 0 -1.0 0.28125q-0.359375 0.28125 -0.359375 0.734375q0 0.421875 0.328125 0.640625q0.34375 0.203125 1.21875 0.40625q0.875 0.203125 1.421875 0.484375q0.546875 0.265625 0.8125 0.65625q0.265625 0.375 0.265625 0.921875q0 0.921875 -0.734375 1.484375q-0.734375 0.546875 -1.90625 0.546875q-0.828125 0 -1.46875 -0.28125q-0.625 -0.296875 -0.984375 -0.8125q-0.359375 -0.53125 -0.359375 -1.140625l1.171875 0q0.03125 0.578125 0.46875 0.9375q0.4375 0.34375 1.171875 0.34375q0.65625 0 1.0625 -0.265625q0.40625 -0.28125 0.40625 -0.734375zm5.7160645 1.953125q-1.390625 0 -2.265625 -0.90625q-0.875 -0.921875 -0.875 -2.46875l0 -0.203125q0 -1.03125 0.390625 -1.828125q0.390625 -0.8125 1.09375 -1.265625q0.703125 -0.453125 1.515625 -0.453125q1.34375 0 2.078125 0.890625q0.75 0.875 0.75 2.515625l0 0.5l-4.65625 0q0.03125 1.015625 0.59375 1.640625q0.5625 0.625 1.4375 0.625q0.625 0 1.046875 -0.25q0.4375 -0.265625 0.765625 -0.6875l0.71875 0.5625q-0.859375 1.328125 -2.59375 1.328125zm-0.140625 -6.15625q-0.71875 0 -1.203125 0.515625q-0.46875 0.515625 -0.59375 1.453125l3.453125 0l0 -0.09375q-0.0625 -0.890625 -0.5 -1.375q-0.421875 -0.5 -1.15625 -0.5zm4.07666 2.546875q0 -1.59375 0.734375 -2.546875q0.75 -0.96875 1.96875 -0.96875q1.203125 0 1.90625 0.828125l0 -3.578125l1.1875 0l0 9.75l-1.09375 0l-0.046875 -0.734375q-0.703125 0.859375 -1.96875 0.859375q-1.1875 0 -1.9375 -0.96875q-0.75 -0.984375 -0.75 -2.5625l0 -0.078125zm1.171875 0.125q0 1.171875 0.484375 1.828125q0.484375 0.65625 1.328125 0.65625q1.109375 0 1.625 -1.0l0 -3.15625q-0.515625 -0.96875 -1.609375 -0.96875q-0.859375 0 -1.34375 0.671875q-0.484375 0.65625 -0.484375 1.96875z" fill-rule="nonzero"></path><path fill="#000000" d="m431.8322 83.10971l4.375 0l0 1.0l-5.59375 0l0 -9.25l1.21875 0l0 8.25zm8.609192 1.125q-1.390625 0 -2.265625 -0.90625q-0.875 -0.921875 -0.875 -2.46875l0 -0.203125q0 -1.03125 0.390625 -1.828125q0.390625 -0.8125 1.09375 -1.265625q0.703125 -0.453125 1.515625 -0.453125q1.34375 0 2.078125 0.890625q0.75 0.875 0.75 2.515625l0 0.5l-4.65625 0q0.03125 1.015625 0.59375 1.640625q0.5625 0.625 1.4375 0.625q0.625 0 1.046875 -0.25q0.4375 -0.265625 0.765625 -0.6875l0.71875 0.5625q-0.859375 1.328125 -2.59375 1.328125zm-0.140625 -6.15625q-0.71875 0 -1.203125 0.515625q-0.46875 0.515625 -0.59375 1.453125l3.453125 0l0 -0.09375q-0.0625 -0.890625 -0.5 -1.375q-0.421875 -0.5 -1.15625 -0.5zm8.592285 6.03125q-0.09375 -0.203125 -0.15625 -0.71875q-0.828125 0.84375 -1.953125 0.84375q-1.015625 0 -1.671875 -0.5625q-0.65625 -0.578125 -0.65625 -1.46875q0 -1.078125 0.8125 -1.671875q0.828125 -0.59375 2.296875 -0.59375l1.140625 0l0 -0.53125q0 -0.609375 -0.375 -0.96875q-0.359375 -0.375 -1.078125 -0.375q-0.625 0 -1.046875 0.3125q-0.421875 0.3125 -0.421875 0.765625l-1.1875 0q0 -0.515625 0.359375 -0.984375q0.375 -0.484375 1.0 -0.765625q0.625 -0.28125 1.375 -0.28125q1.1875 0 1.859375 0.59375q0.671875 0.59375 0.703125 1.640625l0 3.15625q0 0.953125 0.234375 1.5l0 0.109375l-1.234375 0zm-1.9375 -0.890625q0.546875 0 1.03125 -0.28125q0.5 -0.296875 0.71875 -0.75l0 -1.40625l-0.90625 0q-2.171875 0 -2.171875 1.265625q0 0.546875 0.375 0.859375q0.375 0.3125 0.953125 0.3125zm8.265411 -4.921875q-0.265625 -0.046875 -0.578125 -0.046875q-1.15625 0 -1.5625 0.984375l0 4.875l-1.171875 0l0 -6.875l1.140625 0l0.015625 0.796875q0.578125 -0.921875 1.640625 -0.921875q0.34375 0 0.515625 0.09375l0 1.09375zm2.3068237 -1.0625l0.03125 0.875q0.796875 -1.0 2.0625 -1.0q2.171875 0 2.203125 2.46875l0 4.53125l-1.1875 0l0 -4.546875q0 -0.734375 -0.34375 -1.09375q-0.328125 -0.359375 -1.03125 -0.359375q-0.5625 0 -1.0 0.3125q-0.4375 0.296875 -0.671875 0.796875l0 4.890625l-1.171875 0l0 -6.875l1.109375 0zm7.5257874 6.875l-1.1875 0l0 -6.875l1.1875 0l0 6.875zm-1.28125 -8.6875q0 -0.28125 0.171875 -0.484375q0.1875 -0.203125 0.53125 -0.203125q0.34375 0 0.515625 0.203125q0.171875 0.203125 0.171875 0.484375q0 0.28125 -0.171875 0.46875q-0.171875 0.1875 -0.515625 0.1875q-0.34375 0 -0.53125 -0.1875q-0.171875 -0.1875 -0.171875 -0.46875zm4.3437805 1.8125l0.03125 0.875q0.796875 -1.0 2.0625 -1.0q2.171875 0 2.203125 2.46875l0 4.53125l-1.1875 0l0 -4.546875q0 -0.734375 -0.34375 -1.09375q-0.328125 -0.359375 -1.03125 -0.359375q-0.5625 0 -1.0 0.3125q-0.4375 0.296875 -0.671875 0.796875l0 4.890625l-1.171875 0l0 -6.875l1.109375 0zm5.9632874 3.390625q0 -1.609375 0.734375 -2.5625q0.75 -0.953125 1.96875 -0.953125q1.265625 0 1.96875 0.890625l0.0625 -0.765625l1.0625 0l0 6.703125q0 1.34375 -0.796875 2.109375q-0.78125 0.765625 -2.109375 0.765625q-0.75 0 -1.46875 -0.328125q-0.703125 -0.3125 -1.078125 -0.859375l0.609375 -0.703125q0.765625 0.9375 1.859375 0.9375q0.84375 0 1.328125 -0.484375q0.484375 -0.484375 0.484375 -1.359375l0 -0.59375q-0.703125 0.8125 -1.921875 0.8125q-1.21875 0 -1.96875 -0.96875q-0.734375 -0.96875 -0.734375 -2.640625zm1.1875 0.125q0 1.15625 0.46875 1.828125q0.484375 0.65625 1.328125 0.65625q1.109375 0 1.640625 -1.0l0 -3.140625q-0.546875 -0.984375 -1.625 -0.984375q-0.859375 0 -1.34375 0.671875q-0.46875 0.65625 -0.46875 1.96875z" fill-rule="nonzero"></path><path fill="#93c47d" d="m177.74016 207.07349l0 0c0 -18.508057 34.237885 -33.51181 76.47244 -33.51181l0 0c42.234573 0 76.47243 15.003754 76.47243 33.51181l0 0c0 18.508072 -34.237854 33.51181 -76.47243 33.51181l0 0c-42.23456 0 -76.47244 -15.003738 -76.47244 -33.51181z" fill-rule="evenodd"></path><path stroke="#000000" stroke-width="1.0" stroke-linejoin="round" stroke-linecap="butt" d="m177.74016 207.07349l0 0c0 -18.508057 34.237885 -33.51181 76.47244 -33.51181l0 0c42.234573 0 76.47243 15.003754 76.47243 33.51181l0 0c0 18.508072 -34.237854 33.51181 -76.47243 33.51181l0 0c-42.23456 0 -76.47244 -15.003738 -76.47244 -33.51181z" fill-rule="evenodd"></path><path fill="#000000" d="m220.63841 209.71223q-0.25 2.140625 -1.578125 3.3125q-1.328125 1.15625 -3.53125 1.15625q-2.40625 0 -3.84375 -1.71875q-1.4375 -1.71875 -1.4375 -4.59375l0 -1.296875q0 -1.890625 0.671875 -3.3125q0.671875 -1.421875 1.90625 -2.1875q1.234375 -0.765625 2.859375 -0.765625q2.140625 0 3.4375 1.203125q1.3125 1.1875 1.515625 3.3125l-1.78125 0q-0.234375 -1.609375 -1.015625 -2.328125q-0.765625 -0.734375 -2.15625 -0.734375q-1.71875 0 -2.6875 1.265625q-0.96875 1.265625 -0.96875 3.59375l0 1.3125q0 2.1875 0.921875 3.5q0.921875 1.296875 2.578125 1.296875q1.484375 0 2.265625 -0.671875q0.796875 -0.671875 1.0625 -2.34375l1.78125 0zm3.7992096 4.28125l-1.703125 0l0 -14.25l1.703125 0l0 14.25zm8.87117 -1.0q-1.0 1.1875 -2.9375 1.1875q-1.609375 0 -2.453125 -0.921875q-0.84375 -0.9375 -0.84375 -2.765625l0 -6.53125l1.71875 0l0 6.484375q0 2.28125 1.84375 2.28125q1.96875 0 2.625 -1.46875l0 -7.296875l1.71875 0l0 10.03125l-1.640625 0l-0.03125 -1.0zm9.925247 -1.65625q0 -0.703125 -0.53125 -1.078125q-0.515625 -0.390625 -1.828125 -0.671875q-1.296875 -0.28125 -2.0625 -0.671875q-0.765625 -0.390625 -1.140625 -0.921875q-0.359375 -0.546875 -0.359375 -1.28125q0 -1.234375 1.046875 -2.078125q1.046875 -0.859375 2.671875 -0.859375q1.703125 0 2.765625 0.875q1.0625 0.875 1.0625 2.25l-1.71875 0q0 -0.703125 -0.609375 -1.203125q-0.59375 -0.515625 -1.5 -0.515625q-0.9375 0 -1.46875 0.40625q-0.53125 0.40625 -0.53125 1.0625q0 0.625 0.484375 0.9375q0.5 0.3125 1.78125 0.609375q1.296875 0.28125 2.09375 0.6875q0.796875 0.390625 1.171875 0.953125q0.390625 0.5625 0.390625 1.375q0 1.34375 -1.078125 2.15625q-1.078125 0.8125 -2.796875 0.8125q-1.203125 0 -2.125 -0.421875q-0.921875 -0.4375 -1.453125 -1.203125q-0.53125 -0.765625 -0.53125 -1.65625l1.71875 0q0.046875 0.859375 0.6875 1.375q0.65625 0.5 1.703125 0.5q0.984375 0 1.5625 -0.390625q0.59375 -0.390625 0.59375 -1.046875zm6.104004 -9.8125l0 2.4375l1.875 0l0 1.3125l-1.875 0l0 6.234375q0 0.59375 0.25 0.90625q0.25 0.296875 0.859375 0.296875q0.296875 0 0.8125 -0.109375l0 1.390625q-0.671875 0.1875 -1.3125 0.1875q-1.15625 0 -1.75 -0.6875q-0.578125 -0.703125 -0.578125 -1.984375l0 -6.234375l-1.828125 0l0 -1.3125l1.828125 0l0 -2.4375l1.71875 0zm7.938019 12.65625q-2.0468903 0 -3.3281403 -1.34375q-1.28125 -1.34375 -1.28125 -3.578125l0 -0.328125q0 -1.484375 0.5625 -2.65625q0.578125 -1.171875 1.59375 -1.828125q1.03125 -0.671875 2.2343903 -0.671875q1.953125 0 3.03125 1.296875q1.09375 1.28125 1.09375 3.6875l0 0.703125l-6.7968903 0q0.03125 1.484375 0.859375 2.40625q0.84376526 0.90625 2.1250153 0.90625q0.90625 0 1.53125 -0.359375q0.640625 -0.375 1.109375 -0.984375l1.046875 0.8125q-1.265625 1.9375 -3.78125 1.9375zm-0.21875 -9.0q-1.03125 0 -1.7500153 0.765625q-0.703125 0.75 -0.859375 2.109375l5.0156403 0l0 -0.125q-0.0625 -1.3125 -0.703125 -2.03125q-0.625 -0.71875 -1.703125 -0.71875zm10.790039 0.3125q-0.390625 -0.0625 -0.84375 -0.0625q-1.6875 0 -2.296875 1.4375l0 7.125l-1.71875 0l0 -10.03125l1.671875 0l0.03125 1.15625q0.84375 -1.34375 2.390625 -1.34375q0.5 0 0.765625 0.125l0 1.59375zm3.3128967 8.5l-1.703125 0l0 -10.03125l1.703125 0l0 10.03125zm-1.84375 -12.703125q0 -0.421875 0.25 -0.703125q0.25 -0.28125 0.75 -0.28125q0.515625 0 0.765625 0.28125q0.265625 0.28125 0.265625 0.703125q0 0.421875 -0.265625 0.703125q-0.25 0.265625 -0.765625 0.265625q-0.5 0 -0.75 -0.265625q-0.25 -0.28125 -0.25 -0.703125zm6.13678 2.671875l0.0625 1.25q1.140625 -1.4375 3.0 -1.4375q3.1875 0 3.203125 3.578125l0 6.640625l-1.703125 0l0 -6.640625q-0.015625 -1.09375 -0.5 -1.609375q-0.484375 -0.515625 -1.515625 -0.515625q-0.84375 0 -1.46875 0.453125q-0.625 0.4375 -0.984375 1.15625l0 7.15625l-1.71875 0l0 -10.03125l1.625 0zm8.262482 4.921875q0 -2.34375 1.078125 -3.71875q1.09375 -1.390625 2.890625 -1.390625q1.828125 0 2.859375 1.296875l0.078125 -1.109375l1.578125 0l0 9.796875q0 1.9375 -1.15625 3.0625q-1.15625 1.125 -3.109375 1.125q-1.078125 0 -2.125 -0.46875q-1.03125 -0.453125 -1.578125 -1.265625l0.890625 -1.03125q1.09375 1.359375 2.6875 1.359375q1.265625 0 1.953125 -0.703125q0.703125 -0.703125 0.703125 -1.984375l0 -0.859375q-1.03125 1.1875 -2.8125 1.1875q-1.75 0 -2.84375 -1.421875q-1.09375 -1.421875 -1.09375 -3.875zm1.71875 0.203125q0 1.703125 0.703125 2.671875q0.703125 0.96875 1.953125 0.96875q1.625 0 2.375 -1.484375l0 -4.578125q-0.78125 -1.4375 -2.359375 -1.4375q-1.25 0 -1.96875 0.984375q-0.703125 0.96875 -0.703125 2.875z" fill-rule="nonzero"></path><path fill="#8e7cc3" d="m579.10236 207.07349l0 0c0 -18.508057 34.237854 -33.51181 76.47247 -33.51181l0 0c42.23456 0 76.47241 15.003754 76.47241 33.51181l0 0c0 18.508072 -34.237854 33.51181 -76.47241 33.51181l0 0c-42.23462 0 -76.47247 -15.003738 -76.47247 -33.51181z" fill-rule="evenodd"></path><path stroke="#000000" stroke-width="1.0" stroke-linejoin="round" stroke-linecap="butt" d="m579.10236 207.07349l0 0c0 -18.508057 34.237854 -33.51181 76.47247 -33.51181l0 0c42.23456 0 76.47241 15.003754 76.47241 33.51181l0 0c0 18.508072 -34.237854 33.51181 -76.47241 33.51181l0 0c-42.23462 0 -76.47247 -15.003738 -76.47247 -33.51181z" fill-rule="evenodd"></path><path fill="#000000" d="m612.8972 203.87349l0 -9.25l2.609375 0q1.203125 0 2.125 0.546875q0.921875 0.53125 1.421875 1.515625q0.515625 0.984375 0.515625 2.25l0 0.59375q0 1.3125 -0.5 2.296875q-0.5 0.984375 -1.4375 1.515625q-0.9375 0.515625 -2.1875 0.53125l-2.546875 0zm1.21875 -8.234375l0 7.234375l1.28125 0q1.40625 0 2.1875 -0.875q0.78125 -0.875 0.78125 -2.5l0 -0.53125q0 -1.578125 -0.734375 -2.453125q-0.734375 -0.875 -2.09375 -0.875l-1.421875 0zm8.615051 8.234375l-1.1875 0l0 -6.875l1.1875 0l0 6.875zm-1.28125 -8.6875q0 -0.28125 0.171875 -0.484375q0.1875 -0.203125 0.53125 -0.203125q0.34375 0 0.515625 0.203125q0.171875 0.203125 0.171875 0.484375q0 0.28125 -0.171875 0.46875q-0.171875 0.1875 -0.515625 0.1875q-0.34375 0 -0.53125 -0.1875q-0.171875 -0.1875 -0.171875 -0.46875zm4.343811 1.8125l0.03125 0.765625q0.75 -0.890625 2.03125 -0.890625q1.4375 0 1.96875 1.109375q0.328125 -0.5 0.875 -0.796875q0.5625 -0.3125 1.3125 -0.3125q2.25 0 2.296875 2.390625l0 4.609375l-1.171875 0l0 -4.53125q0 -0.734375 -0.34375 -1.09375q-0.328125 -0.375 -1.125 -0.375q-0.65625 0 -1.09375 0.390625q-0.421875 0.390625 -0.5 1.046875l0 4.5625l-1.171875 0l0 -4.5q0 -1.5 -1.46875 -1.5q-1.15625 0 -1.578125 0.984375l0 5.015625l-1.1875 0l0 -6.875l1.125 0zm13.416016 7.0q-1.390625 0 -2.265625 -0.90625q-0.875 -0.921875 -0.875 -2.46875l0 -0.203125q0 -1.03125 0.390625 -1.828125q0.390625 -0.8125 1.09375 -1.265625q0.703125 -0.453125 1.515625 -0.453125q1.34375 0 2.078125 0.890625q0.75 0.875 0.75 2.515625l0 0.5l-4.65625 0q0.03125 1.015625 0.59375 1.640625q0.5625 0.625 1.4375 0.625q0.625 0 1.046875 -0.25q0.4375 -0.265625 0.765625 -0.6875l0.71875 0.5625q-0.859375 1.328125 -2.59375 1.328125zm-0.140625 -6.15625q-0.71875 0 -1.203125 0.515625q-0.46875 0.515625 -0.59375 1.453125l3.453125 0l0 -0.09375q-0.0625 -0.890625 -0.5 -1.375q-0.421875 -0.5 -1.15625 -0.5zm5.467285 -0.84375l0.03125 0.875q0.796875 -1.0 2.0625 -1.0q2.171875 0 2.203125 2.46875l0 4.53125l-1.1875 0l0 -4.546875q0 -0.734375 -0.34375 -1.09375q-0.328125 -0.359375 -1.03125 -0.359375q-0.5625 0 -1.0 0.3125q-0.4375 0.296875 -0.671875 0.796875l0 4.890625l-1.171875 0l0 -6.875l1.109375 0zm10.244568 5.046875q0 -0.46875 -0.359375 -0.734375q-0.359375 -0.265625 -1.25 -0.453125q-0.890625 -0.1875 -1.421875 -0.453125q-0.515625 -0.265625 -0.765625 -0.625q-0.25 -0.375 -0.25 -0.890625q0 -0.84375 0.703125 -1.421875q0.71875 -0.59375 1.828125 -0.59375q1.171875 0 1.890625 0.609375q0.734375 0.59375 0.734375 1.546875l-1.1875 0q0 -0.484375 -0.40625 -0.828125q-0.40625 -0.359375 -1.03125 -0.359375q-0.640625 0 -1.0 0.28125q-0.359375 0.28125 -0.359375 0.734375q0 0.421875 0.328125 0.640625q0.34375 0.203125 1.21875 0.40625q0.875 0.203125 1.421875 0.484375q0.546875 0.265625 0.8125 0.65625q0.265625 0.375 0.265625 0.921875q0 0.921875 -0.734375 1.484375q-0.734375 0.546875 -1.90625 0.546875q-0.828125 0 -1.46875 -0.28125q-0.625 -0.296875 -0.984375 -0.8125q-0.359375 -0.53125 -0.359375 -1.140625l1.171875 0q0.03125 0.578125 0.46875 0.9375q0.4375 0.34375 1.171875 0.34375q0.65625 0 1.0625 -0.265625q0.40625 -0.28125 0.40625 -0.734375zm4.1535645 1.828125l-1.1875 0l0 -6.875l1.1875 0l0 6.875zm-1.28125 -8.6875q0 -0.28125 0.171875 -0.484375q0.1875 -0.203125 0.53125 -0.203125q0.34375 0 0.515625 0.203125q0.171875 0.203125 0.171875 0.484375q0 0.28125 -0.171875 0.46875q-0.171875 0.1875 -0.515625 0.1875q-0.34375 0 -0.53125 -0.1875q-0.171875 -0.1875 -0.171875 -0.46875zm2.921875 5.1875q0 -1.0 0.390625 -1.8125q0.40625 -0.8125 1.109375 -1.25q0.703125 -0.4375 1.609375 -0.4375q1.40625 0 2.265625 0.984375q0.875 0.96875 0.875 2.578125l0 0.078125q0 1.0 -0.390625 1.796875q-0.375 0.796875 -1.09375 1.25q-0.703125 0.4375 -1.640625 0.4375q-1.390625 0 -2.265625 -0.96875q-0.859375 -0.96875 -0.859375 -2.578125l0 -0.078125zm1.1875 0.140625q0 1.140625 0.515625 1.84375q0.53125 0.6875 1.421875 0.6875q0.90625 0 1.421875 -0.703125q0.53125 -0.703125 0.53125 -1.96875q0 -1.125 -0.546875 -1.828125q-0.53125 -0.703125 -1.421875 -0.703125q-0.859375 0 -1.390625 0.703125q-0.53125 0.6875 -0.53125 1.96875zm7.8355713 -3.515625l0.03125 0.875q0.796875 -1.0 2.0625 -1.0q2.171875 0 2.203125 2.46875l0 4.53125l-1.1875 0l0 -4.546875q0 -0.734375 -0.34375 -1.09375q-0.328125 -0.359375 -1.03125 -0.359375q-0.5625 0 -1.0 0.3125q-0.4375 0.296875 -0.671875 0.796875l0 4.890625l-1.171875 0l0 -6.875l1.109375 0zm10.478943 6.875q-0.09375 -0.203125 -0.15625 -0.71875q-0.828125 0.84375 -1.953125 0.84375q-1.015625 0 -1.671875 -0.5625q-0.65625 -0.578125 -0.65625 -1.46875q0 -1.078125 0.8125 -1.671875q0.828125 -0.59375 2.296875 -0.59375l1.140625 0l0 -0.53125q0 -0.609375 -0.375 -0.96875q-0.359375 -0.375 -1.078125 -0.375q-0.625 0 -1.046875 0.3125q-0.421875 0.3125 -0.421875 0.765625l-1.1875 0q0 -0.515625 0.359375 -0.984375q0.375 -0.484375 1.0 -0.765625q0.625 -0.28125 1.375 -0.28125q1.1875 0 1.859375 0.59375q0.671875 0.59375 0.703125 1.640625l0 3.15625q0 0.953125 0.234375 1.5l0 0.109375l-1.234375 0zm-1.9375 -0.890625q0.546875 0 1.03125 -0.28125q0.5 -0.296875 0.71875 -0.75l0 -1.40625l-0.90625 0q-2.171875 0 -2.171875 1.265625q0 0.546875 0.375 0.859375q0.375 0.3125 0.953125 0.3125zm6.234131 0.890625l-1.1875 0l0 -9.75l1.1875 0l0 9.75zm3.234436 0l-1.1875 0l0 -6.875l1.1875 0l0 6.875zm-1.28125 -8.6875q0 -0.28125 0.171875 -0.484375q0.1875 -0.203125 0.53125 -0.203125q0.34375 0 0.515625 0.203125q0.171875 0.203125 0.171875 0.484375q0 0.28125 -0.171875 0.46875q-0.171875 0.1875 -0.515625 0.1875q-0.34375 0 -0.53125 -0.1875q-0.171875 -0.1875 -0.171875 -0.46875zm4.828125 0.15625l0 1.65625l1.28125 0l0 0.921875l-1.28125 0l0 4.25q0 0.421875 0.171875 0.625q0.171875 0.203125 0.578125 0.203125q0.203125 0 0.5625 -0.078125l0 0.953125q-0.46875 0.125 -0.90625 0.125q-0.78125 0 -1.1875 -0.46875q-0.390625 -0.484375 -0.390625 -1.359375l0 -4.25l-1.25 0l0 -0.921875l1.25 0l0 -1.65625l1.171875 0zm5.010071 6.8125l1.59375 -5.15625l1.265625 0l-2.765625 7.9375q-0.640625 1.71875 -2.046875 1.71875l-0.21875 -0.03125l-0.4375 -0.078125l0 -0.953125l0.3125 0.03125q0.609375 0 0.9375 -0.25q0.328125 -0.234375 0.546875 -0.875l0.265625 -0.703125l-2.453125 -6.796875l1.28125 0l1.71875 5.15625z" fill-rule="nonzero"></path><path fill="#000000" d="m630.21796 216.13911l-2.171875 0l0 3.734375l-1.234375 0l0 -9.25l3.0625 0q1.5625 0 2.40625 0.71875q0.84375 0.703125 0.84375 2.0625q0 0.875 -0.46875 1.515625q-0.46875 0.640625 -1.296875 0.953125l2.171875 3.921875l0 0.078125l-1.3125 0l-2.0 -3.734375zm-2.171875 -1.0l1.875 0q0.90625 0 1.4375 -0.46875q0.53125 -0.46875 0.53125 -1.265625q0 -0.84375 -0.515625 -1.296875q-0.5 -0.46875 -1.46875 -0.46875l-1.859375 0l0 3.5zm9.643921 4.859375q-1.390625 0 -2.265625 -0.90625q-0.875 -0.921875 -0.875 -2.46875l0 -0.203125q0 -1.03125 0.390625 -1.828125q0.390625 -0.8125 1.09375 -1.265625q0.703125 -0.453125 1.515625 -0.453125q1.34375 0 2.078125 0.890625q0.75 0.875 0.75 2.515625l0 0.5l-4.65625 0q0.03125 1.015625 0.59375 1.640625q0.5625 0.625 1.4375 0.625q0.625 0 1.046875 -0.25q0.4375 -0.265625 0.765625 -0.6875l0.71875 0.5625q-0.859375 1.328125 -2.59375 1.328125zm-0.140625 -6.15625q-0.71875 0 -1.203125 0.515625q-0.46875 0.515625 -0.59375 1.453125l3.453125 0l0 -0.09375q-0.0625 -0.890625 -0.5 -1.375q-0.421875 -0.5 -1.15625 -0.5zm4.07666 2.546875q0 -1.59375 0.734375 -2.546875q0.75 -0.96875 1.96875 -0.96875q1.203125 0 1.90625 0.828125l0 -3.578125l1.1875 0l0 9.75l-1.09375 0l-0.046875 -0.734375q-0.703125 0.859375 -1.96875 0.859375q-1.1875 0 -1.9375 -0.96875q-0.75 -0.984375 -0.75 -2.5625l0 -0.078125zm1.171875 0.125q0 1.171875 0.484375 1.828125q0.484375 0.65625 1.328125 0.65625q1.109375 0 1.625 -1.0l0 -3.15625q-0.515625 -0.96875 -1.609375 -0.96875q-0.859375 0 -1.34375 0.671875q-0.484375 0.65625 -0.484375 1.96875zm10.860352 2.6875q-0.6875 0.796875 -2.015625 0.796875q-1.09375 0 -1.671875 -0.640625q-0.5625 -0.640625 -0.578125 -1.890625l0 -4.46875l1.171875 0l0 4.4375q0 1.5625 1.28125 1.5625q1.34375 0 1.78125 -1.0l0 -5.0l1.171875 0l0 6.875l-1.109375 0l-0.03125 -0.671875zm5.863037 -0.15625q0.625 0 1.09375 -0.375q0.484375 -0.390625 0.53125 -0.96875l1.109375 0q-0.03125 0.59375 -0.40625 1.125q-0.375 0.53125 -1.0 0.859375q-0.625 0.3125 -1.328125 0.3125q-1.40625 0 -2.234375 -0.9375q-0.828125 -0.9375 -0.828125 -2.5625l0 -0.1875q0 -1.015625 0.375 -1.78125q0.375 -0.78125 1.0625 -1.21875q0.6875 -0.4375 1.625 -0.4375q1.15625 0 1.921875 0.703125q0.765625 0.6875 0.8125 1.796875l-1.109375 0q-0.046875 -0.671875 -0.515625 -1.09375q-0.453125 -0.4375 -1.109375 -0.4375q-0.890625 0 -1.390625 0.65625q-0.484375 0.640625 -0.484375 1.859375l0 0.21875q0 1.1875 0.484375 1.828125q0.484375 0.640625 1.390625 0.640625zm5.8201904 -7.703125l0 1.65625l1.28125 0l0 0.921875l-1.28125 0l0 4.25q0 0.421875 0.171875 0.625q0.171875 0.203125 0.578125 0.203125q0.203125 0 0.5625 -0.078125l0 0.953125q-0.46875 0.125 -0.90625 0.125q-0.78125 0 -1.1875 -0.46875q-0.390625 -0.484375 -0.390625 -1.359375l0 -4.25l-1.25 0l0 -0.921875l1.25 0l0 -1.65625l1.171875 0zm4.04126 8.53125l-1.1875 0l0 -6.875l1.1875 0l0 6.875zm-1.28125 -8.6875q0 -0.28125 0.171875 -0.484375q0.1875 -0.203125 0.53125 -0.203125q0.34375 0 0.515625 0.203125q0.171875 0.203125 0.171875 0.484375q0 0.28125 -0.171875 0.46875q-0.171875 0.1875 -0.515625 0.1875q-0.34375 0 -0.53125 -0.1875q-0.171875 -0.1875 -0.171875 -0.46875zm2.921936 5.1875q0 -1.0 0.390625 -1.8125q0.40625 -0.8125 1.109375 -1.25q0.703125 -0.4375 1.609375 -0.4375q1.40625 0 2.265625 0.984375q0.875 0.96875 0.875 2.578125l0 0.078125q0 1.0 -0.390625 1.796875q-0.375 0.796875 -1.09375 1.25q-0.703125 0.4375 -1.640625 0.4375q-1.390625 0 -2.265625 -0.96875q-0.859375 -0.96875 -0.859375 -2.578125l0 -0.078125zm1.1875 0.140625q0 1.140625 0.515625 1.84375q0.53125 0.6875 1.421875 0.6875q0.90625 0 1.421875 -0.703125q0.53125 -0.703125 0.53125 -1.96875q0 -1.125 -0.546875 -1.828125q-0.53125 -0.703125 -1.421875 -0.703125q-0.859375 0 -1.390625 0.703125q-0.53125 0.6875 -0.53125 1.96875zm7.8355713 -3.515625l0.03125 0.875q0.796875 -1.0 2.0625 -1.0q2.171875 0 2.203125 2.46875l0 4.53125l-1.1875 0l0 -4.546875q0 -0.734375 -0.34375 -1.09375q-0.328125 -0.359375 -1.03125 -0.359375q-0.5625 0 -1.0 0.3125q-0.4375 0.296875 -0.671875 0.796875l0 4.890625l-1.171875 0l0 -6.875l1.109375 0z" fill-rule="nonzero"></path><path fill="#93c47d" d="m74.750656 321.8714l0 0c0 -18.508057 34.237877 -33.51181 76.47244 -33.51181l0 0c42.23456 0 76.47244 15.003754 76.47244 33.51181l0 0c0 18.508057 -34.237885 33.51181 -76.47244 33.51181l0 0c-42.234566 0 -76.47244 -15.003754 -76.47244 -33.51181z" fill-rule="evenodd"></path><path stroke="#000000" stroke-width="1.0" stroke-linejoin="round" stroke-linecap="butt" d="m74.750656 321.8714l0 0c0 -18.508057 34.237877 -33.51181 76.47244 -33.51181l0 0c42.23456 0 76.47244 15.003754 76.47244 33.51181l0 0c0 18.508057 -34.237885 33.51181 -76.47244 33.51181l0 0c-42.234566 0 -76.47244 -15.003754 -76.47244 -33.51181z" fill-rule="evenodd"></path><path fill="#000000" d="m125.5102 326.6714l0 -9.3125l1.234375 0l0 4.625l4.6249924 -4.625l1.65625 0l-3.890625 3.78125l4.0625 5.53125l-1.625 0l-3.3125 -4.703125l-1.5156174 1.484375l0 3.21875l-1.234375 0zm8.342873 -2.796875l0 -1.140625l3.515625 0l0 1.140625l-3.515625 0zm4.8914948 2.796875l0 -6.734375l1.015625 0l0 0.9375q0.328125 -0.5 0.84375 -0.796875q0.53125 -0.296875 1.203125 -0.296875q0.75 0 1.21875 0.3125q0.484375 0.3125 0.6875 0.859375q0.796875 -1.171875 2.078125 -1.171875q1.0 0 1.53125 0.5625q0.546875 0.546875 0.546875 1.703125l0 4.625l-1.125 0l0 -4.25q0 -0.6875 -0.109375 -0.984375q-0.109375 -0.296875 -0.40625 -0.484375q-0.296875 -0.1875 -0.6875 -0.1875q-0.71875 0 -1.1875 0.484375q-0.46875 0.46875 -0.46875 1.5l0 3.921875l-1.140625 0l0 -4.375q0 -0.765625 -0.28125 -1.140625q-0.28125 -0.390625 -0.90625 -0.390625q-0.484375 0 -0.890625 0.265625q-0.40625 0.25 -0.59375 0.734375q-0.1875 0.484375 -0.1875 1.40625l0 3.5l-1.140625 0zm15.711807 -2.171875l1.1875 0.140625q-0.28125 1.046875 -1.046875 1.625q-0.75 0.5625 -1.921875 0.5625q-1.484375 0 -2.359375 -0.90625q-0.859375 -0.921875 -0.859375 -2.5625q0 -1.703125 0.875 -2.640625q0.890625 -0.9375 2.28125 -0.9375q1.359375 0 2.203125 0.921875q0.859375 0.921875 0.859375 2.578125q0 0.109375 0 0.3125l-5.03125 0q0.0625 1.109375 0.625 1.703125q0.5625 0.59375 1.40625 0.59375q0.640625 0 1.078125 -0.328125q0.453125 -0.34375 0.703125 -1.0625zm-3.75 -1.84375l3.765625 0q-0.078125 -0.859375 -0.4375 -1.28125q-0.546875 -0.65625 -1.40625 -0.65625q-0.796875 0 -1.328125 0.53125q-0.53125 0.515625 -0.59375 1.40625zm10.943726 3.1875q-0.625 0.53125 -1.21875 0.765625q-0.578125 0.21875 -1.25 0.21875q-1.125 0 -1.71875 -0.546875q-0.59375 -0.546875 -0.59375 -1.390625q0 -0.484375 0.21875 -0.890625q0.234375 -0.421875 0.59375 -0.671875q0.375 -0.25 0.828125 -0.375q0.328125 -0.078125 1.015625 -0.171875q1.375 -0.15625 2.03125 -0.390625q0.015625 -0.234375 0.015625 -0.296875q0 -0.703125 -0.328125 -0.984375q-0.4375 -0.390625 -1.296875 -0.390625q-0.8125 0 -1.203125 0.28125q-0.375 0.28125 -0.5625 1.0l-1.109375 -0.140625q0.140625 -0.71875 0.484375 -1.15625q0.359375 -0.453125 1.015625 -0.6875q0.671875 -0.234375 1.53125 -0.234375q0.875 0 1.40625 0.203125q0.546875 0.203125 0.796875 0.515625q0.25 0.296875 0.359375 0.765625q0.046875 0.296875 0.046875 1.0625l0 1.515625q0 1.59375 0.078125 2.015625q0.078125 0.421875 0.28125 0.8125l-1.1875 0q-0.171875 -0.359375 -0.234375 -0.828125zm-0.09375 -2.5625q-0.625 0.265625 -1.859375 0.4375q-0.703125 0.109375 -1.0 0.234375q-0.296875 0.125 -0.453125 0.375q-0.15625 0.234375 -0.15625 0.53125q0 0.453125 0.34375 0.765625q0.34375 0.296875 1.015625 0.296875q0.65625 0 1.171875 -0.28125q0.515625 -0.296875 0.765625 -0.796875q0.171875 -0.375 0.171875 -1.140625l0 -0.421875zm3.1156006 3.390625l0 -6.734375l1.03125 0l0 0.953125q0.734375 -1.109375 2.140625 -1.109375q0.609375 0 1.109375 0.21875q0.515625 0.21875 0.765625 0.578125q0.265625 0.34375 0.359375 0.84375q0.0625 0.3125 0.0625 1.109375l0 4.140625l-1.140625 0l0 -4.09375q0 -0.703125 -0.140625 -1.046875q-0.125 -0.34375 -0.46875 -0.546875q-0.328125 -0.21875 -0.78125 -0.21875q-0.734375 0 -1.265625 0.46875q-0.53125 0.453125 -0.53125 1.75l0 3.6875l-1.140625 0zm6.9593506 -2.015625l1.125 -0.171875q0.09375 0.671875 0.53125 1.046875q0.4375 0.359375 1.21875 0.359375q0.78125 0 1.15625 -0.3125q0.390625 -0.328125 0.390625 -0.765625q0 -0.390625 -0.34375 -0.609375q-0.234375 -0.15625 -1.171875 -0.390625q-1.25 -0.3125 -1.734375 -0.546875q-0.484375 -0.234375 -0.734375 -0.640625q-0.25 -0.40625 -0.25 -0.90625q0 -0.453125 0.203125 -0.828125q0.203125 -0.390625 0.5625 -0.640625q0.265625 -0.203125 0.71875 -0.328125q0.46875 -0.140625 1.0 -0.140625q0.78125 0 1.375 0.234375q0.609375 0.21875 0.890625 0.609375q0.296875 0.390625 0.40625 1.046875l-1.125 0.15625q-0.078125 -0.53125 -0.4375 -0.8125q-0.359375 -0.296875 -1.03125 -0.296875q-0.78125 0 -1.125 0.265625q-0.34375 0.25 -0.34375 0.609375q0 0.21875 0.140625 0.390625q0.140625 0.1875 0.4375 0.3125q0.171875 0.0625 1.015625 0.28125q1.21875 0.328125 1.6875 0.53125q0.484375 0.203125 0.75 0.609375q0.28125 0.390625 0.28125 0.96875q0 0.578125 -0.34375 1.078125q-0.328125 0.5 -0.953125 0.78125q-0.625 0.28125 -1.421875 0.28125q-1.3125 0 -2.0 -0.546875q-0.6875 -0.546875 -0.875 -1.625z" fill-rule="nonzero"></path><path fill="#93c47d" d="m278.67105 321.8714l0 0c0 -18.508057 34.237854 -33.51181 76.47244 -33.51181l0 0c42.23456 0 76.47244 15.003754 76.47244 33.51181l0 0c0 18.508057 -34.237885 33.51181 -76.47244 33.51181l0 0c-42.23459 0 -76.47244 -15.003754 -76.47244 -33.51181z" fill-rule="evenodd"></path><path stroke="#000000" stroke-width="1.0" stroke-linejoin="round" stroke-linecap="butt" d="m278.67105 321.8714l0 0c0 -18.508057 34.237854 -33.51181 76.47244 -33.51181l0 0c42.23456 0 76.47244 15.003754 76.47244 33.51181l0 0c0 18.508057 -34.237885 33.51181 -76.47244 33.51181l0 0c-42.23459 0 -76.47244 -15.003754 -76.47244 -33.51181z" fill-rule="evenodd"></path><path fill="#000000" d="m327.77585 318.6714l-1.21875 0l0 -4.265625l-4.65625 0l0 4.265625l-1.21875 0l0 -9.25l1.21875 0l0 3.984375l4.65625 0l0 -3.984375l1.21875 0l0 9.25zm3.5014954 0l-1.1875 0l0 -6.875l1.1875 0l0 6.875zm-1.28125 -8.6875q0 -0.28125 0.171875 -0.484375q0.1875 -0.203125 0.53125 -0.203125q0.34375 0 0.515625 0.203125q0.171875 0.203125 0.171875 0.484375q0 0.28125 -0.171875 0.46875q-0.171875 0.1875 -0.515625 0.1875q-0.34375 0 -0.53125 -0.1875q-0.171875 -0.1875 -0.171875 -0.46875zm6.0781555 8.8125q-1.390625 0 -2.265625 -0.90625q-0.875 -0.921875 -0.875 -2.46875l0 -0.203125q0 -1.03125 0.390625 -1.828125q0.390625 -0.8125 1.09375 -1.265625q0.703125 -0.453125 1.515625 -0.453125q1.34375 0 2.078125 0.890625q0.75 0.875 0.75 2.515625l0 0.5l-4.65625 0q0.03125 1.015625 0.59375 1.640625q0.5625 0.625 1.4375 0.625q0.625 0 1.046875 -0.25q0.4375 -0.265625 0.765625 -0.6875l0.71875 0.5625q-0.859375 1.328125 -2.59375 1.328125zm-0.140625 -6.15625q-0.71875 0 -1.203125 0.515625q-0.46875 0.515625 -0.59375 1.453125l3.453125 0l0 -0.09375q-0.0625 -0.890625 -0.5 -1.375q-0.421875 -0.5 -1.15625 -0.5zm7.6704407 0.21875q-0.265625 -0.046875 -0.578125 -0.046875q-1.15625 0 -1.5625 0.984375l0 4.875l-1.171875 0l0 -6.875l1.140625 0l0.015625 0.796875q0.578125 -0.921875 1.640625 -0.921875q0.34375 0 0.515625 0.09375l0 1.09375zm5.4318237 5.8125q-0.09375 -0.203125 -0.15625 -0.71875q-0.828125 0.84375 -1.953125 0.84375q-1.015625 0 -1.671875 -0.5625q-0.65625 -0.578125 -0.65625 -1.46875q0 -1.078125 0.8125 -1.671875q0.828125 -0.59375 2.296875 -0.59375l1.140625 0l0 -0.53125q0 -0.609375 -0.375 -0.96875q-0.359375 -0.375 -1.078125 -0.375q-0.625 0 -1.046875 0.3125q-0.421875 0.3125 -0.421875 0.765625l-1.1875 0q0 -0.515625 0.359375 -0.984375q0.375 -0.484375 1.0 -0.765625q0.625 -0.28125 1.375 -0.28125q1.1875 0 1.859375 0.59375q0.671875 0.59375 0.703125 1.640625l0 3.15625q0 0.953125 0.234375 1.5l0 0.109375l-1.234375 0zm-1.9375 -0.890625q0.546875 0 1.03125 -0.28125q0.5 -0.296875 0.71875 -0.75l0 -1.40625l-0.90625 0q-2.171875 0 -2.171875 1.265625q0 0.546875 0.375 0.859375q0.375 0.3125 0.953125 0.3125zm8.265411 -4.921875q-0.265625 -0.046875 -0.578125 -0.046875q-1.15625 0 -1.5625 0.984375l0 4.875l-1.171875 0l0 -6.875l1.140625 0l0.015625 0.796875q0.578125 -0.921875 1.640625 -0.921875q0.34375 0 0.515625 0.09375l0 1.09375zm3.9474487 4.984375q0.625 0 1.09375 -0.375q0.484375 -0.390625 0.53125 -0.96875l1.109375 0q-0.03125 0.59375 -0.40625 1.125q-0.375 0.53125 -1.0 0.859375q-0.625 0.3125 -1.328125 0.3125q-1.40625 0 -2.234375 -0.9375q-0.828125 -0.9375 -0.828125 -2.5625l0 -0.1875q0 -1.015625 0.375 -1.78125q0.375 -0.78125 1.0625 -1.21875q0.6875 -0.4375 1.625 -0.4375q1.15625 0 1.921875 0.703125q0.765625 0.6875 0.8125 1.796875l-1.109375 0q-0.046875 -0.671875 -0.515625 -1.09375q-0.453125 -0.4375 -1.109375 -0.4375q-0.890625 0 -1.390625 0.65625q-0.484375 0.640625 -0.484375 1.859375l0 0.21875q0 1.1875 0.484375 1.828125q0.484375 0.640625 1.390625 0.640625zm5.3983154 -5.203125q0.78125 -0.96875 2.03125 -0.96875q2.171875 0 2.203125 2.46875l0 4.53125l-1.1875 0l0 -4.546875q0 -0.734375 -0.34375 -1.09375q-0.328125 -0.359375 -1.03125 -0.359375q-0.5625 0 -1.0 0.3125q-0.4375 0.296875 -0.671875 0.796875l0 4.890625l-1.171875 0l0 -9.75l1.171875 0l0 3.71875zm7.4502563 6.03125l-1.1875 0l0 -6.875l1.1875 0l0 6.875zm-1.28125 -8.6875q0 -0.28125 0.171875 -0.484375q0.1875 -0.203125 0.53125 -0.203125q0.34375 0 0.515625 0.203125q0.171875 0.203125 0.171875 0.484375q0 0.28125 -0.171875 0.46875q-0.171875 0.1875 -0.515625 0.1875q-0.34375 0 -0.53125 -0.1875q-0.171875 -0.1875 -0.171875 -0.46875zm5.984436 7.859375q0.625 0 1.09375 -0.375q0.484375 -0.390625 0.53125 -0.96875l1.109375 0q-0.03125 0.59375 -0.40625 1.125q-0.375 0.53125 -1.0 0.859375q-0.625 0.3125 -1.328125 0.3125q-1.40625 0 -2.234375 -0.9375q-0.828125 -0.9375 -0.828125 -2.5625l0 -0.1875q0 -1.015625 0.375 -1.78125q0.375 -0.78125 1.0625 -1.21875q0.6875 -0.4375 1.625 -0.4375q1.15625 0 1.921875 0.703125q0.765625 0.6875 0.8125 1.796875l-1.109375 0q-0.046875 -0.671875 -0.515625 -1.09375q-0.453125 -0.4375 -1.109375 -0.4375q-0.890625 0 -1.390625 0.65625q-0.484375 0.640625 -0.484375 1.859375l0 0.21875q0 1.1875 0.484375 1.828125q0.484375 0.640625 1.390625 0.640625zm8.460815 0.828125q-0.09375 -0.203125 -0.15625 -0.71875q-0.828125 0.84375 -1.953125 0.84375q-1.015625 0 -1.671875 -0.5625q-0.65625 -0.578125 -0.65625 -1.46875q0 -1.078125 0.8125 -1.671875q0.828125 -0.59375 2.296875 -0.59375l1.140625 0l0 -0.53125q0 -0.609375 -0.375 -0.96875q-0.359375 -0.375 -1.078125 -0.375q-0.625 0 -1.046875 0.3125q-0.421875 0.3125 -0.421875 0.765625l-1.1875 0q0 -0.515625 0.359375 -0.984375q0.375 -0.484375 1.0 -0.765625q0.625 -0.28125 1.375 -0.28125q1.1875 0 1.859375 0.59375q0.671875 0.59375 0.703125 1.640625l0 3.15625q0 0.953125 0.234375 1.5l0 0.109375l-1.234375 0zm-1.9375 -0.890625q0.546875 0 1.03125 -0.28125q0.5 -0.296875 0.71875 -0.75l0 -1.40625l-0.90625 0q-2.171875 0 -2.171875 1.265625q0 0.546875 0.375 0.859375q0.375 0.3125 0.953125 0.3125zm6.234131 0.890625l-1.1875 0l0 -9.75l1.1875 0l0 9.75z" fill-rule="nonzero"></path><path fill="#000000" d="m332.9586 331.7339q-0.171875 1.46875 -1.09375 2.265625q-0.90625 0.796875 -2.40625 0.796875q-1.640625 0 -2.640625 -1.171875q-0.984375 -1.171875 -0.984375 -3.140625l0 -0.890625q0 -1.28125 0.453125 -2.265625q0.46875 -0.984375 1.3125 -1.5q0.84375 -0.53125 1.953125 -0.53125q1.484375 0 2.359375 0.828125q0.890625 0.828125 1.046875 2.28125l-1.234375 0q-0.15625 -1.109375 -0.6875 -1.59375q-0.53125 -0.5 -1.484375 -0.5q-1.15625 0 -1.828125 0.859375q-0.65625 0.859375 -0.65625 2.453125l0 0.890625q0 1.515625 0.625 2.40625q0.625 0.875 1.765625 0.875q1.015625 0 1.546875 -0.453125q0.546875 -0.46875 0.71875 -1.609375l1.234375 0zm2.9718628 2.9375l-1.1875 0l0 -9.75l1.1875 0l0 9.75zm6.187561 -0.671875q-0.6875 0.796875 -2.015625 0.796875q-1.09375 0 -1.671875 -0.640625q-0.5625 -0.640625 -0.578125 -1.890625l0 -4.46875l1.171875 0l0 4.4375q0 1.5625 1.28125 1.5625q1.34375 0 1.78125 -1.0l0 -5.0l1.171875 0l0 6.875l-1.109375 0l-0.03125 -0.671875zm7.1130066 -1.15625q0 -0.46875 -0.359375 -0.734375q-0.359375 -0.265625 -1.25 -0.453125q-0.890625 -0.1875 -1.421875 -0.453125q-0.515625 -0.265625 -0.765625 -0.625q-0.25 -0.375 -0.25 -0.890625q0 -0.84375 0.703125 -1.421875q0.71875 -0.59375 1.828125 -0.59375q1.171875 0 1.890625 0.609375q0.734375 0.59375 0.734375 1.546875l-1.1875 0q0 -0.484375 -0.40625 -0.828125q-0.40625 -0.359375 -1.03125 -0.359375q-0.640625 0 -1.0 0.28125q-0.359375 0.28125 -0.359375 0.734375q0 0.421875 0.328125 0.640625q0.34375 0.203125 1.21875 0.40625q0.875 0.203125 1.421875 0.484375q0.546875 0.265625 0.8125 0.65625q0.265625 0.375 0.265625 0.921875q0 0.921875 -0.734375 1.484375q-0.734375 0.546875 -1.90625 0.546875q-0.828125 0 -1.46875 -0.28125q-0.625 -0.296875 -0.984375 -0.8125q-0.359375 -0.53125 -0.359375 -1.140625l1.171875 0q0.03125 0.578125 0.46875 0.9375q0.4375 0.34375 1.171875 0.34375q0.65625 0 1.0625 -0.265625q0.40625 -0.28125 0.40625 -0.734375zm4.4660645 -6.703125l0 1.65625l1.28125 0l0 0.921875l-1.28125 0l0 4.25q0 0.421875 0.171875 0.625q0.171875 0.203125 0.578125 0.203125q0.203125 0 0.5625 -0.078125l0 0.953125q-0.46875 0.125 -0.90625 0.125q-0.78125 0 -1.1875 -0.46875q-0.390625 -0.484375 -0.390625 -1.359375l0 -4.25l-1.25 0l0 -0.921875l1.25 0l0 -1.65625l1.171875 0zm5.6037903 8.65625q-1.390625 0 -2.265625 -0.90625q-0.875 -0.921875 -0.875 -2.46875l0 -0.203125q0 -1.03125 0.390625 -1.828125q0.390625 -0.8125 1.09375 -1.265625q0.703125 -0.453125 1.515625 -0.453125q1.34375 0 2.078125 0.890625q0.75 0.875 0.75 2.515625l0 0.5l-4.65625 0q0.03125 1.015625 0.59375 1.640625q0.5625 0.625 1.4375 0.625q0.625 0 1.046875 -0.25q0.4375 -0.265625 0.765625 -0.6875l0.71875 0.5625q-0.859375 1.328125 -2.59375 1.328125zm-0.140625 -6.15625q-0.71875 0 -1.203125 0.515625q-0.46875 0.515625 -0.59375 1.453125l3.453125 0l0 -0.09375q-0.0625 -0.890625 -0.5 -1.375q-0.421875 -0.5 -1.15625 -0.5zm7.67041 0.21875q-0.265625 -0.046875 -0.578125 -0.046875q-1.15625 0 -1.5625 0.984375l0 4.875l-1.171875 0l0 -6.875l1.140625 0l0.015625 0.796875q0.578125 -0.921875 1.640625 -0.921875q0.34375 0 0.515625 0.09375l0 1.09375zm2.4787292 5.8125l-1.1875 0l0 -6.875l1.1875 0l0 6.875zm-1.28125 -8.6875q0 -0.28125 0.171875 -0.484375q0.1875 -0.203125 0.53125 -0.203125q0.34375 0 0.515625 0.203125q0.171875 0.203125 0.171875 0.484375q0 0.28125 -0.171875 0.46875q-0.171875 0.1875 -0.515625 0.1875q-0.34375 0 -0.53125 -0.1875q-0.171875 -0.1875 -0.171875 -0.46875zm4.3437805 1.8125l0.03125 0.875q0.796875 -1.0 2.0625 -1.0q2.171875 0 2.203125 2.46875l0 4.53125l-1.1875 0l0 -4.546875q0 -0.734375 -0.34375 -1.09375q-0.328125 -0.359375 -1.03125 -0.359375q-0.5625 0 -1.0 0.3125q-0.4375 0.296875 -0.671875 0.796875l0 4.890625l-1.171875 0l0 -6.875l1.109375 0zm5.9632874 3.390625q0 -1.609375 0.734375 -2.5625q0.75 -0.953125 1.96875 -0.953125q1.265625 0 1.96875 0.890625l0.0625 -0.765625l1.0625 0l0 6.703125q0 1.34375 -0.796875 2.109375q-0.78125 0.765625 -2.109375 0.765625q-0.75 0 -1.46875 -0.328125q-0.703125 -0.3125 -1.078125 -0.859375l0.609375 -0.703125q0.765625 0.9375 1.859375 0.9375q0.84375 0 1.328125 -0.484375q0.484375 -0.484375 0.484375 -1.359375l0 -0.59375q-0.703125 0.8125 -1.921875 0.8125q-1.21875 0 -1.96875 -0.96875q-0.734375 -0.96875 -0.734375 -2.640625zm1.1875 0.125q0 1.15625 0.46875 1.828125q0.484375 0.65625 1.328125 0.65625q1.109375 0 1.640625 -1.0l0 -3.140625q-0.546875 -0.984375 -1.625 -0.984375q-0.859375 0 -1.34375 0.671875q-0.46875 0.65625 -0.46875 1.96875z" fill-rule="nonzero"></path><path fill="#8e7cc3" d="m482.59143 321.8714l0 0c0 -18.508057 34.237854 -33.51181 76.47241 -33.51181l0 0c42.23456 0 76.47247 15.003754 76.47247 33.51181l0 0c0 18.508057 -34.237915 33.51181 -76.47247 33.51181l0 0c-42.23456 0 -76.47241 -15.003754 -76.47241 -33.51181z" fill-rule="evenodd"></path><path stroke="#000000" stroke-width="1.0" stroke-linejoin="round" stroke-linecap="butt" d="m482.59143 321.8714l0 0c0 -18.508057 34.237854 -33.51181 76.47241 -33.51181l0 0c42.23456 0 76.47247 15.003754 76.47247 33.51181l0 0c0 18.508057 -34.237915 33.51181 -76.47247 33.51181l0 0c-42.23456 0 -76.47241 -15.003754 -76.47241 -33.51181z" fill-rule="evenodd"></path><path fill="#000000" d="m535.6156 307.0464l0 3.625l-1.21875 0l0 -9.25l3.40625 0q1.515625 0 2.375 0.78125q0.859375 0.78125 0.859375 2.046875q0 1.34375 -0.84375 2.078125q-0.84375 0.71875 -2.40625 0.71875l-2.171875 0zm0 -0.984375l2.1875 0q0.96875 0 1.484375 -0.453125q0.53125 -0.46875 0.53125 -1.34375q0 -0.828125 -0.53125 -1.3125q-0.515625 -0.5 -1.421875 -0.515625l-2.25 0l0 3.625zm10.314392 -1.203125q-0.265625 -0.046875 -0.578125 -0.046875q-1.15625 0 -1.5625 0.984375l0 4.875l-1.171875 0l0 -6.875l1.140625 0l0.015625 0.796875q0.578125 -0.921875 1.640625 -0.921875q0.34375 0 0.515625 0.09375l0 1.09375zm2.4786987 5.8125l-1.1875 0l0 -6.875l1.1875 0l0 6.875zm-1.28125 -8.6875q0 -0.28125 0.171875 -0.484375q0.1875 -0.203125 0.53125 -0.203125q0.34375 0 0.515625 0.203125q0.171875 0.203125 0.171875 0.484375q0 0.28125 -0.171875 0.46875q-0.171875 0.1875 -0.515625 0.1875q-0.34375 0 -0.53125 -0.1875q-0.171875 -0.1875 -0.171875 -0.46875zm4.343811 1.8125l0.03125 0.875q0.796875 -1.0 2.0625 -1.0q2.171875 0 2.203125 2.46875l0 4.53125l-1.1875 0l0 -4.546875q0 -0.734375 -0.34375 -1.09375q-0.328125 -0.359375 -1.03125 -0.359375q-0.5625 0 -1.0 0.3125q-0.4375 0.296875 -0.671875 0.796875l0 4.890625l-1.171875 0l0 -6.875l1.109375 0zm8.994507 6.046875q0.625 0 1.09375 -0.375q0.484375 -0.390625 0.53125 -0.96875l1.109375 0q-0.03125 0.59375 -0.40625 1.125q-0.375 0.53125 -1.0 0.859375q-0.625 0.3125 -1.328125 0.3125q-1.40625 0 -2.234375 -0.9375q-0.828125 -0.9375 -0.828125 -2.5625l0 -0.1875q0 -1.015625 0.375 -1.78125q0.375 -0.78125 1.0625 -1.21875q0.6875 -0.4375 1.625 -0.4375q1.15625 0 1.921875 0.703125q0.765625 0.6875 0.8125 1.796875l-1.109375 0q-0.046875 -0.671875 -0.515625 -1.09375q-0.453125 -0.4375 -1.109375 -0.4375q-0.890625 0 -1.390625 0.65625q-0.484375 0.640625 -0.484375 1.859375l0 0.21875q0 1.1875 0.484375 1.828125q0.484375 0.640625 1.390625 0.640625zm5.5076904 0.828125l-1.1875 0l0 -6.875l1.1875 0l0 6.875zm-1.28125 -8.6875q0 -0.28125 0.171875 -0.484375q0.1875 -0.203125 0.53125 -0.203125q0.34375 0 0.515625 0.203125q0.171875 0.203125 0.171875 0.484375q0 0.28125 -0.171875 0.46875q-0.171875 0.1875 -0.515625 0.1875q-0.34375 0 -0.53125 -0.1875q-0.171875 -0.1875 -0.171875 -0.46875zm9.031311 5.328125q0 1.5625 -0.71875 2.53125q-0.71875 0.953125 -1.9375 0.953125q-1.25 0 -1.96875 -0.796875l0 3.3125l-1.171875 0l0 -9.515625l1.078125 0l0.046875 0.765625q0.71875 -0.890625 2.0 -0.890625q1.234375 0 1.953125 0.9375q0.71875 0.9375 0.71875 2.59375l0 0.109375zm-1.171875 -0.125q0 -1.171875 -0.5 -1.84375q-0.484375 -0.671875 -1.359375 -0.671875q-1.0625 0 -1.59375 0.953125l0 3.28125q0.53125 0.9375 1.609375 0.9375q0.84375 0 1.34375 -0.671875q0.5 -0.671875 0.5 -1.984375zm4.133789 3.484375l-1.1875 0l0 -9.75l1.1875 0l0 9.75zm4.796936 0.125q-1.390625 0 -2.265625 -0.90625q-0.875 -0.921875 -0.875 -2.46875l0 -0.203125q0 -1.03125 0.390625 -1.828125q0.390625 -0.8125 1.09375 -1.265625q0.703125 -0.453125 1.515625 -0.453125q1.34375 0 2.078125 0.890625q0.75 0.875 0.75 2.515625l0 0.5l-4.65625 0q0.03125 1.015625 0.59375 1.640625q0.5625 0.625 1.4375 0.625q0.625 0 1.046875 -0.25q0.4375 -0.265625 0.765625 -0.6875l0.71875 0.5625q-0.859375 1.328125 -2.59375 1.328125zm-0.140625 -6.15625q-0.71875 0 -1.203125 0.515625q-0.46875 0.515625 -0.59375 1.453125l3.453125 0l0 -0.09375q-0.0625 -0.890625 -0.5 -1.375q-0.421875 -0.5 -1.15625 -0.5z" fill-rule="nonzero"></path><path fill="#000000" d="m532.35925 323.7339q-0.171875 1.46875 -1.09375 2.265625q-0.90625 0.796875 -2.40625 0.796875q-1.640625 0 -2.640625 -1.171875q-0.984375 -1.171875 -0.984375 -3.140625l0 -0.890625q0 -1.28125 0.453125 -2.265625q0.46875 -0.984375 1.3125 -1.5q0.84375 -0.53125 1.953125 -0.53125q1.484375 0 2.359375 0.828125q0.890625 0.828125 1.046875 2.28125l-1.234375 0q-0.15625 -1.109375 -0.6875 -1.59375q-0.53125 -0.5 -1.484375 -0.5q-1.15625 0 -1.828125 0.859375q-0.65625 0.859375 -0.65625 2.453125l0 0.890625q0 1.515625 0.625 2.40625q0.625 0.875 1.765625 0.875q1.015625 0 1.546875 -0.453125q0.546875 -0.46875 0.71875 -1.609375l1.234375 0zm1.3781128 -0.5625q0 -1.0 0.390625 -1.8125q0.40625 -0.8125 1.109375 -1.25q0.703125 -0.4375 1.609375 -0.4375q1.40625 0 2.265625 0.984375q0.875 0.96875 0.875 2.578125l0 0.078125q0 1.0 -0.390625 1.796875q-0.375 0.796875 -1.09375 1.25q-0.703125 0.4375 -1.640625 0.4375q-1.390625 0 -2.265625 -0.96875q-0.859375 -0.96875 -0.859375 -2.578125l0 -0.078125zm1.1875 0.140625q0 1.140625 0.515625 1.84375q0.53125 0.6875 1.421875 0.6875q0.90625 0 1.421875 -0.703125q0.53125 -0.703125 0.53125 -1.96875q0 -1.125 -0.546875 -1.828125q-0.53125 -0.703125 -1.421875 -0.703125q-0.859375 0 -1.390625 0.703125q-0.53125 0.6875 -0.53125 1.96875zm7.8355713 -3.515625l0.03125 0.765625q0.75 -0.890625 2.03125 -0.890625q1.4375 0 1.96875 1.109375q0.328125 -0.5 0.875 -0.796875q0.5625 -0.3125 1.3125 -0.3125q2.25 0 2.296875 2.390625l0 4.609375l-1.171875 0l0 -4.53125q0 -0.734375 -0.34375 -1.09375q-0.328125 -0.375 -1.125 -0.375q-0.65625 0 -1.09375 0.390625q-0.421875 0.390625 -0.5 1.046875l0 4.5625l-1.171875 0l0 -4.5q0 -1.5 -1.46875 -1.5q-1.15625 0 -1.578125 0.984375l0 5.015625l-1.1875 0l0 -6.875l1.125 0zm16.36914 3.515625q0 1.5625 -0.71875 2.53125q-0.71875 0.953125 -1.9375 0.953125q-1.25 0 -1.96875 -0.796875l0 3.3125l-1.171875 0l0 -9.515625l1.078125 0l0.046875 0.765625q0.71875 -0.890625 2.0 -0.890625q1.234375 0 1.953125 0.9375q0.71875 0.9375 0.71875 2.59375l0 0.109375zm-1.171875 -0.125q0 -1.171875 -0.5 -1.84375q-0.484375 -0.671875 -1.359375 -0.671875q-1.0625 0 -1.59375 0.953125l0 3.28125q0.53125 0.9375 1.609375 0.9375q0.84375 0 1.34375 -0.671875q0.5 -0.671875 0.5 -1.984375zm2.5401 -0.015625q0 -1.0 0.390625 -1.8125q0.40625 -0.8125 1.109375 -1.25q0.703125 -0.4375 1.609375 -0.4375q1.40625 0 2.265625 0.984375q0.875 0.96875 0.875 2.578125l0 0.078125q0 1.0 -0.390625 1.796875q-0.375 0.796875 -1.09375 1.25q-0.703125 0.4375 -1.640625 0.4375q-1.390625 0 -2.265625 -0.96875q-0.859375 -0.96875 -0.859375 -2.578125l0 -0.078125zm1.1875 0.140625q0 1.140625 0.515625 1.84375q0.53125 0.6875 1.421875 0.6875q0.90625 0 1.421875 -0.703125q0.53125 -0.703125 0.53125 -1.96875q0 -1.125 -0.546875 -1.828125q-0.53125 -0.703125 -1.421875 -0.703125q-0.859375 0 -1.390625 0.703125q-0.53125 0.6875 -0.53125 1.96875zm7.8355713 -3.515625l0.03125 0.875q0.796875 -1.0 2.0625 -1.0q2.171875 0 2.203125 2.46875l0 4.53125l-1.1875 0l0 -4.546875q0 -0.734375 -0.34375 -1.09375q-0.328125 -0.359375 -1.03125 -0.359375q-0.5625 0 -1.0 0.3125q-0.4375 0.296875 -0.671875 0.796875l0 4.890625l-1.171875 0l0 -6.875l1.109375 0zm9.088257 7.0q-1.390625 0 -2.265625 -0.90625q-0.875 -0.921875 -0.875 -2.46875l0 -0.203125q0 -1.03125 0.390625 -1.828125q0.390625 -0.8125 1.09375 -1.265625q0.703125 -0.453125 1.515625 -0.453125q1.34375 0 2.078125 0.890625q0.75 0.875 0.75 2.515625l0 0.5l-4.65625 0q0.03125 1.015625 0.59375 1.640625q0.5625 0.625 1.4375 0.625q0.625 0 1.046875 -0.25q0.4375 -0.265625 0.765625 -0.6875l0.71875 0.5625q-0.859375 1.328125 -2.59375 1.328125zm-0.140625 -6.15625q-0.71875 0 -1.203125 0.515625q-0.46875 0.515625 -0.59375 1.453125l3.453125 0l0 -0.09375q-0.0625 -0.890625 -0.5 -1.375q-0.421875 -0.5 -1.15625 -0.5zm5.467285 -0.84375l0.03125 0.875q0.796875 -1.0 2.0625 -1.0q2.171875 0 2.203125 2.46875l0 4.53125l-1.1875 0l0 -4.546875q0 -0.734375 -0.34375 -1.09375q-0.328125 -0.359375 -1.03125 -0.359375q-0.5625 0 -1.0 0.3125q-0.4375 0.296875 -0.671875 0.796875l0 4.890625l-1.171875 0l0 -6.875l1.109375 0zm7.838257 -1.65625l0 1.65625l1.28125 0l0 0.921875l-1.28125 0l0 4.25q0 0.421875 0.171875 0.625q0.171875 0.203125 0.578125 0.203125q0.203125 0 0.5625 -0.078125l0 0.953125q-0.46875 0.125 -0.90625 0.125q-0.78125 0 -1.1875 -0.46875q-0.390625 -0.484375 -0.390625 -1.359375l0 -4.25l-1.25 0l0 -0.921875l1.25 0l0 -1.65625l1.171875 0z" fill-rule="nonzero"></path><path fill="#000000" d="m540.32684 340.26514l-3.875 0l-0.859375 2.40625l-1.265625 0l3.53125 -9.25l1.078125 0l3.53125 9.25l-1.25 0l-0.890625 -2.40625zm-3.5 -1.015625l3.140625 0l-1.578125 -4.3125l-1.5625 4.3125zm8.022644 -3.453125l0.03125 0.875q0.796875 -1.0 2.0625 -1.0q2.171875 0 2.203125 2.46875l0 4.53125l-1.1875 0l0 -4.546875q0 -0.734375 -0.34375 -1.09375q-0.328125 -0.359375 -1.03125 -0.359375q-0.5625 0 -1.0 0.3125q-0.4375 0.296875 -0.671875 0.796875l0 4.890625l-1.171875 0l0 -6.875l1.109375 0zm10.478882 6.875q-0.09375 -0.203125 -0.15625 -0.71875q-0.828125 0.84375 -1.953125 0.84375q-1.015625 0 -1.671875 -0.5625q-0.65625 -0.578125 -0.65625 -1.46875q0 -1.078125 0.8125 -1.671875q0.828125 -0.59375 2.296875 -0.59375l1.140625 0l0 -0.53125q0 -0.609375 -0.375 -0.96875q-0.359375 -0.375 -1.078125 -0.375q-0.625 0 -1.046875 0.3125q-0.421875 0.3125 -0.421875 0.765625l-1.1875 0q0 -0.515625 0.359375 -0.984375q0.375 -0.484375 1.0 -0.765625q0.625 -0.28125 1.375 -0.28125q1.1875 0 1.859375 0.59375q0.671875 0.59375 0.703125 1.640625l0 3.15625q0 0.953125 0.234375 1.5l0 0.109375l-1.234375 0zm-1.9375 -0.890625q0.546875 0 1.03125 -0.28125q0.5 -0.296875 0.71875 -0.75l0 -1.40625l-0.90625 0q-2.171875 0 -2.171875 1.265625q0 0.546875 0.375 0.859375q0.375 0.3125 0.953125 0.3125zm6.234192 0.890625l-1.1875 0l0 -9.75l1.1875 0l0 9.75zm4.203125 -1.71875l1.59375 -5.15625l1.265625 0l-2.765625 7.9375q-0.640625 1.71875 -2.046875 1.71875l-0.21875 -0.03125l-0.4375 -0.078125l0 -0.953125l0.3125 0.03125q0.609375 0 0.9375 -0.25q0.328125 -0.234375 0.546875 -0.875l0.265625 -0.703125l-2.453125 -6.796875l1.28125 0l1.71875 5.15625zm8.056152 -0.109375q0 -0.46875 -0.359375 -0.734375q-0.359375 -0.265625 -1.25 -0.453125q-0.890625 -0.1875 -1.421875 -0.453125q-0.515625 -0.265625 -0.765625 -0.625q-0.25 -0.375 -0.25 -0.890625q0 -0.84375 0.703125 -1.421875q0.71875 -0.59375 1.828125 -0.59375q1.171875 0 1.890625 0.609375q0.734375 0.59375 0.734375 1.546875l-1.1875 0q0 -0.484375 -0.40625 -0.828125q-0.40625 -0.359375 -1.03125 -0.359375q-0.640625 0 -1.0 0.28125q-0.359375 0.28125 -0.359375 0.734375q0 0.421875 0.328125 0.640625q0.34375 0.203125 1.21875 0.40625q0.875 0.203125 1.421875 0.484375q0.546875 0.265625 0.8125 0.65625q0.265625 0.375 0.265625 0.921875q0 0.921875 -0.734375 1.484375q-0.734375 0.546875 -1.90625 0.546875q-0.828125 0 -1.46875 -0.28125q-0.625 -0.296875 -0.984375 -0.8125q-0.359375 -0.53125 -0.359375 -1.140625l1.171875 0q0.03125 0.578125 0.46875 0.9375q0.4375 0.34375 1.171875 0.34375q0.65625 0 1.0625 -0.265625q0.40625 -0.28125 0.40625 -0.734375zm4.1535645 1.828125l-1.1875 0l0 -6.875l1.1875 0l0 6.875zm-1.28125 -8.6875q0 -0.28125 0.171875 -0.484375q0.1875 -0.203125 0.53125 -0.203125q0.34375 0 0.515625 0.203125q0.171875 0.203125 0.171875 0.484375q0 0.28125 -0.171875 0.46875q-0.171875 0.1875 -0.515625 0.1875q-0.34375 0 -0.53125 -0.1875q-0.171875 -0.1875 -0.171875 -0.46875zm7.234436 6.859375q0 -0.46875 -0.359375 -0.734375q-0.359375 -0.265625 -1.25 -0.453125q-0.890625 -0.1875 -1.421875 -0.453125q-0.515625 -0.265625 -0.765625 -0.625q-0.25 -0.375 -0.25 -0.890625q0 -0.84375 0.703125 -1.421875q0.71875 -0.59375 1.828125 -0.59375q1.171875 0 1.890625 0.609375q0.734375 0.59375 0.734375 1.546875l-1.1875 0q0 -0.484375 -0.40625 -0.828125q-0.40625 -0.359375 -1.03125 -0.359375q-0.640625 0 -1.0 0.28125q-0.359375 0.28125 -0.359375 0.734375q0 0.421875 0.328125 0.640625q0.34375 0.203125 1.21875 0.40625q0.875 0.203125 1.421875 0.484375q0.546875 0.265625 0.8125 0.65625q0.265625 0.375 0.265625 0.921875q0 0.921875 -0.734375 1.484375q-0.734375 0.546875 -1.90625 0.546875q-0.828125 0 -1.46875 -0.28125q-0.625 -0.296875 -0.984375 -0.8125q-0.359375 -0.53125 -0.359375 -1.140625l1.171875 0q0.03125 0.578125 0.46875 0.9375q0.4375 0.34375 1.171875 0.34375q0.65625 0 1.0625 -0.265625q0.40625 -0.28125 0.40625 -0.734375z" fill-rule="nonzero"></path><path fill="#8e7cc3" d="m686.51184 321.8714l0 0c0 -18.508057 34.237854 -33.51181 76.47241 -33.51181l0 0c42.23456 0 76.47241 15.003754 76.47241 33.51181l0 0c0 18.508057 -34.237854 33.51181 -76.47241 33.51181l0 0c-42.23456 0 -76.47241 -15.003754 -76.47241 -33.51181z" fill-rule="evenodd"></path><path stroke="#000000" stroke-width="1.0" stroke-linejoin="round" stroke-linecap="butt" d="m686.51184 321.8714l0 0c0 -18.508057 34.237854 -33.51181 76.47241 -33.51181l0 0c42.23456 0 76.47241 15.003754 76.47241 33.51181l0 0c0 18.508057 -34.237854 33.51181 -76.47241 33.51181l0 0c-42.23456 0 -76.47241 -15.003754 -76.47241 -33.51181z" fill-rule="evenodd"></path><path fill="#000000" d="m746.9907 309.6714l4.375 0l0 1.0l-5.59375 0l0 -9.25l1.21875 0l0 8.25zm7.046692 1.0l-1.1875 0l0 -6.875l1.1875 0l0 6.875zm-1.28125 -8.6875q0 -0.28125 0.171875 -0.484375q0.1875 -0.203125 0.53125 -0.203125q0.34375 0 0.515625 0.203125q0.171875 0.203125 0.171875 0.484375q0 0.28125 -0.171875 0.46875q-0.171875 0.1875 -0.515625 0.1875q-0.34375 0 -0.53125 -0.1875q-0.171875 -0.1875 -0.171875 -0.46875zm4.343811 1.8125l0.03125 0.875q0.796875 -1.0 2.0625 -1.0q2.171875 0 2.203125 2.46875l0 4.53125l-1.1875 0l0 -4.546875q0 -0.734375 -0.34375 -1.09375q-0.328125 -0.359375 -1.03125 -0.359375q-0.5625 0 -1.0 0.3125q-0.4375 0.296875 -0.671875 0.796875l0 4.890625l-1.171875 0l0 -6.875l1.109375 0zm9.088257 7.0q-1.390625 0 -2.265625 -0.90625q-0.875 -0.921875 -0.875 -2.46875l0 -0.203125q0 -1.03125 0.390625 -1.828125q0.390625 -0.8125 1.09375 -1.265625q0.703125 -0.453125 1.515625 -0.453125q1.34375 0 2.078125 0.890625q0.75 0.875 0.75 2.515625l0 0.5l-4.65625 0q0.03125 1.015625 0.59375 1.640625q0.5625 0.625 1.4375 0.625q0.625 0 1.046875 -0.25q0.4375 -0.265625 0.765625 -0.6875l0.71875 0.5625q-0.859375 1.328125 -2.59375 1.328125zm-0.140625 -6.15625q-0.71875 0 -1.203125 0.515625q-0.46875 0.515625 -0.59375 1.453125l3.453125 0l0 -0.09375q-0.0625 -0.890625 -0.5 -1.375q-0.421875 -0.5 -1.15625 -0.5zm8.592285 6.03125q-0.09375 -0.203125 -0.15625 -0.71875q-0.828125 0.84375 -1.953125 0.84375q-1.015625 0 -1.671875 -0.5625q-0.65625 -0.578125 -0.65625 -1.46875q0 -1.078125 0.8125 -1.671875q0.828125 -0.59375 2.296875 -0.59375l1.140625 0l0 -0.53125q0 -0.609375 -0.375 -0.96875q-0.359375 -0.375 -1.078125 -0.375q-0.625 0 -1.046875 0.3125q-0.421875 0.3125 -0.421875 0.765625l-1.1875 0q0 -0.515625 0.359375 -0.984375q0.375 -0.484375 1.0 -0.765625q0.625 -0.28125 1.375 -0.28125q1.1875 0 1.859375 0.59375q0.671875 0.59375 0.703125 1.640625l0 3.15625q0 0.953125 0.234375 1.5l0 0.109375l-1.234375 0zm-1.9375 -0.890625q0.546875 0 1.03125 -0.28125q0.5 -0.296875 0.71875 -0.75l0 -1.40625l-0.90625 0q-2.171875 0 -2.171875 1.265625q0 0.546875 0.375 0.859375q0.375 0.3125 0.953125 0.3125zm8.265381 -4.921875q-0.265625 -0.046875 -0.578125 -0.046875q-1.15625 0 -1.5625 0.984375l0 4.875l-1.171875 0l0 -6.875l1.140625 0l0.015625 0.796875q0.578125 -0.921875 1.640625 -0.921875q0.34375 0 0.515625 0.09375l0 1.09375z" fill-rule="nonzero"></path><path fill="#000000" d="m726.66486 326.6714l0 -9.25l2.609375 0q1.203125 0 2.125 0.546875q0.921875 0.53125 1.421875 1.515625q0.515625 0.984375 0.515625 2.25l0 0.59375q0 1.3125 -0.5 2.296875q-0.5 0.984375 -1.4375 1.515625q-0.9375 0.515625 -2.1875 0.53125l-2.546875 0zm1.21875 -8.234375l0 7.234375l1.28125 0q1.40625 0 2.1875 -0.875q0.78125 -0.875 0.78125 -2.5l0 -0.53125q0 -1.578125 -0.734375 -2.453125q-0.734375 -0.875 -2.09375 -0.875l-1.421875 0zm8.615051 8.234375l-1.1875 0l0 -6.875l1.1875 0l0 6.875zm-1.28125 -8.6875q0 -0.28125 0.171875 -0.484375q0.1875 -0.203125 0.53125 -0.203125q0.34375 0 0.515625 0.203125q0.171875 0.203125 0.171875 0.484375q0 0.28125 -0.171875 0.46875q-0.171875 0.1875 -0.515625 0.1875q-0.34375 0 -0.53125 -0.1875q-0.171875 -0.1875 -0.171875 -0.46875zm7.234436 6.859375q0 -0.46875 -0.359375 -0.734375q-0.359375 -0.265625 -1.25 -0.453125q-0.890625 -0.1875 -1.421875 -0.453125q-0.515625 -0.265625 -0.765625 -0.625q-0.25 -0.375 -0.25 -0.890625q0 -0.84375 0.703125 -1.421875q0.71875 -0.59375 1.828125 -0.59375q1.171875 0 1.890625 0.609375q0.734375 0.59375 0.734375 1.546875l-1.1875 0q0 -0.484375 -0.40625 -0.828125q-0.40625 -0.359375 -1.03125 -0.359375q-0.640625 0 -1.0 0.28125q-0.359375 0.28125 -0.359375 0.734375q0 0.421875 0.328125 0.640625q0.34375 0.203125 1.21875 0.40625q0.875 0.203125 1.421875 0.484375q0.546875 0.265625 0.8125 0.65625q0.265625 0.375 0.265625 0.921875q0 0.921875 -0.734375 1.484375q-0.734375 0.546875 -1.90625 0.546875q-0.828125 0 -1.46875 -0.28125q-0.625 -0.296875 -0.984375 -0.8125q-0.359375 -0.53125 -0.359375 -1.140625l1.171875 0q0.03125 0.578125 0.46875 0.9375q0.4375 0.34375 1.171875 0.34375q0.65625 0 1.0625 -0.265625q0.40625 -0.28125 0.40625 -0.734375zm5.6223145 1.0q0.625 0 1.09375 -0.375q0.484375 -0.390625 0.53125 -0.96875l1.109375 0q-0.03125 0.59375 -0.40625 1.125q-0.375 0.53125 -1.0 0.859375q-0.625 0.3125 -1.328125 0.3125q-1.40625 0 -2.234375 -0.9375q-0.828125 -0.9375 -0.828125 -2.5625l0 -0.1875q0 -1.015625 0.375 -1.78125q0.375 -0.78125 1.0625 -1.21875q0.6875 -0.4375 1.625 -0.4375q1.15625 0 1.921875 0.703125q0.765625 0.6875 0.8125 1.796875l-1.109375 0q-0.046875 -0.671875 -0.515625 -1.09375q-0.453125 -0.4375 -1.109375 -0.4375q-0.890625 0 -1.390625 0.65625q-0.484375 0.640625 -0.484375 1.859375l0 0.21875q0 1.1875 0.484375 1.828125q0.484375 0.640625 1.390625 0.640625zm7.5389404 -4.984375q-0.265625 -0.046875 -0.578125 -0.046875q-1.15625 0 -1.5625 0.984375l0 4.875l-1.171875 0l0 -6.875l1.140625 0l0.015625 0.796875q0.578125 -0.921875 1.640625 -0.921875q0.34375 0 0.515625 0.09375l0 1.09375zm2.4786987 5.8125l-1.1875 0l0 -6.875l1.1875 0l0 6.875zm-1.28125 -8.6875q0 -0.28125 0.171875 -0.484375q0.1875 -0.203125 0.53125 -0.203125q0.34375 0 0.515625 0.203125q0.171875 0.203125 0.171875 0.484375q0 0.28125 -0.171875 0.46875q-0.171875 0.1875 -0.515625 0.1875q-0.34375 0 -0.53125 -0.1875q-0.171875 -0.1875 -0.171875 -0.46875zm4.343811 1.8125l0.03125 0.765625q0.75 -0.890625 2.03125 -0.890625q1.4375 0 1.96875 1.109375q0.328125 -0.5 0.875 -0.796875q0.5625 -0.3125 1.3125 -0.3125q2.25 0 2.296875 2.390625l0 4.609375l-1.171875 0l0 -4.53125q0 -0.734375 -0.34375 -1.09375q-0.328125 -0.375 -1.125 -0.375q-0.65625 0 -1.09375 0.390625q-0.421875 0.390625 -0.5 1.046875l0 4.5625l-1.171875 0l0 -4.5q0 -1.5 -1.46875 -1.5q-1.15625 0 -1.578125 0.984375l0 5.015625l-1.1875 0l0 -6.875l1.125 0zm11.853516 6.875l-1.1875 0l0 -6.875l1.1875 0l0 6.875zm-1.28125 -8.6875q0 -0.28125 0.171875 -0.484375q0.1875 -0.203125 0.53125 -0.203125q0.34375 0 0.515625 0.203125q0.171875 0.203125 0.171875 0.484375q0 0.28125 -0.171875 0.46875q-0.171875 0.1875 -0.515625 0.1875q-0.34375 0 -0.53125 -0.1875q-0.171875 -0.1875 -0.171875 -0.46875zm4.343811 1.8125l0.03125 0.875q0.796875 -1.0 2.0625 -1.0q2.171875 0 2.203125 2.46875l0 4.53125l-1.1875 0l0 -4.546875q0 -0.734375 -0.34375 -1.09375q-0.328125 -0.359375 -1.03125 -0.359375q-0.5625 0 -1.0 0.3125q-0.4375 0.296875 -0.671875 0.796875l0 4.890625l-1.171875 0l0 -6.875l1.109375 0zm10.478882 6.875q-0.09375 -0.203125 -0.15625 -0.71875q-0.828125 0.84375 -1.953125 0.84375q-1.015625 0 -1.671875 -0.5625q-0.65625 -0.578125 -0.65625 -1.46875q0 -1.078125 0.8125 -1.671875q0.828125 -0.59375 2.296875 -0.59375l1.140625 0l0 -0.53125q0 -0.609375 -0.375 -0.96875q-0.359375 -0.375 -1.078125 -0.375q-0.625 0 -1.046875 0.3125q-0.421875 0.3125 -0.421875 0.765625l-1.1875 0q0 -0.515625 0.359375 -0.984375q0.375 -0.484375 1.0 -0.765625q0.625 -0.28125 1.375 -0.28125q1.1875 0 1.859375 0.59375q0.671875 0.59375 0.703125 1.640625l0 3.15625q0 0.953125 0.234375 1.5l0 0.109375l-1.234375 0zm-1.9375 -0.890625q0.546875 0 1.03125 -0.28125q0.5 -0.296875 0.71875 -0.75l0 -1.40625l-0.90625 0q-2.171875 0 -2.171875 1.265625q0 0.546875 0.375 0.859375q0.375 0.3125 0.953125 0.3125zm6.062256 -5.984375l0.03125 0.875q0.796875 -1.0 2.0625 -1.0q2.171875 0 2.203125 2.46875l0 4.53125l-1.1875 0l0 -4.546875q0 -0.734375 -0.34375 -1.09375q-0.328125 -0.359375 -1.03125 -0.359375q-0.5625 0 -1.0 0.3125q-0.4375 0.296875 -0.671875 0.796875l0 4.890625l-1.171875 0l0 -6.875l1.109375 0zm7.838318 -1.65625l0 1.65625l1.28125 0l0 0.921875l-1.28125 0l0 4.25q0 0.421875 0.171875 0.625q0.171875 0.203125 0.578125 0.203125q0.203125 0 0.5625 -0.078125l0 0.953125q-0.46875 0.125 -0.90625 0.125q-0.78125 0 -1.1875 -0.46875q-0.390625 -0.484375 -0.390625 -1.359375l0 -4.25l-1.25 0l0 -0.921875l1.25 0l0 -1.65625l1.171875 0z" fill-rule="nonzero"></path><path fill="#000000" d="m744.24725 340.26514l-3.875 0l-0.859375 2.40625l-1.265625 0l3.53125 -9.25l1.078125 0l3.53125 9.25l-1.25 0l-0.890625 -2.40625zm-3.5 -1.015625l3.140625 0l-1.578125 -4.3125l-1.5625 4.3125zm8.022644 -3.453125l0.03125 0.875q0.796875 -1.0 2.0625 -1.0q2.171875 0 2.203125 2.46875l0 4.53125l-1.1875 0l0 -4.546875q0 -0.734375 -0.34375 -1.09375q-0.328125 -0.359375 -1.03125 -0.359375q-0.5625 0 -1.0 0.3125q-0.4375 0.296875 -0.671875 0.796875l0 4.890625l-1.171875 0l0 -6.875l1.109375 0zm10.478882 6.875q-0.09375 -0.203125 -0.15625 -0.71875q-0.828125 0.84375 -1.953125 0.84375q-1.015625 0 -1.671875 -0.5625q-0.65625 -0.578125 -0.65625 -1.46875q0 -1.078125 0.8125 -1.671875q0.828125 -0.59375 2.296875 -0.59375l1.140625 0l0 -0.53125q0 -0.609375 -0.375 -0.96875q-0.359375 -0.375 -1.078125 -0.375q-0.625 0 -1.046875 0.3125q-0.421875 0.3125 -0.421875 0.765625l-1.1875 0q0 -0.515625 0.359375 -0.984375q0.375 -0.484375 1.0 -0.765625q0.625 -0.28125 1.375 -0.28125q1.1875 0 1.859375 0.59375q0.671875 0.59375 0.703125 1.640625l0 3.15625q0 0.953125 0.234375 1.5l0 0.109375l-1.234375 0zm-1.9375 -0.890625q0.546875 0 1.03125 -0.28125q0.5 -0.296875 0.71875 -0.75l0 -1.40625l-0.90625 0q-2.171875 0 -2.171875 1.265625q0 0.546875 0.375 0.859375q0.375 0.3125 0.953125 0.3125zm6.234131 0.890625l-1.1875 0l0 -9.75l1.1875 0l0 9.75zm4.203186 -1.71875l1.59375 -5.15625l1.265625 0l-2.765625 7.9375q-0.640625 1.71875 -2.046875 1.71875l-0.21875 -0.03125l-0.4375 -0.078125l0 -0.953125l0.3125 0.03125q0.609375 0 0.9375 -0.25q0.328125 -0.234375 0.546875 -0.875l0.265625 -0.703125l-2.453125 -6.796875l1.28125 0l1.71875 5.15625zm8.056152 -0.109375q0 -0.46875 -0.359375 -0.734375q-0.359375 -0.265625 -1.25 -0.453125q-0.890625 -0.1875 -1.421875 -0.453125q-0.515625 -0.265625 -0.765625 -0.625q-0.25 -0.375 -0.25 -0.890625q0 -0.84375 0.703125 -1.421875q0.71875 -0.59375 1.828125 -0.59375q1.171875 0 1.890625 0.609375q0.734375 0.59375 0.734375 1.546875l-1.1875 0q0 -0.484375 -0.40625 -0.828125q-0.40625 -0.359375 -1.03125 -0.359375q-0.640625 0 -1.0 0.28125q-0.359375 0.28125 -0.359375 0.734375q0 0.421875 0.328125 0.640625q0.34375 0.203125 1.21875 0.40625q0.875 0.203125 1.421875 0.484375q0.546875 0.265625 0.8125 0.65625q0.265625 0.375 0.265625 0.921875q0 0.921875 -0.734375 1.484375q-0.734375 0.546875 -1.90625 0.546875q-0.828125 0 -1.46875 -0.28125q-0.625 -0.296875 -0.984375 -0.8125q-0.359375 -0.53125 -0.359375 -1.140625l1.171875 0q0.03125 0.578125 0.46875 0.9375q0.4375 0.34375 1.171875 0.34375q0.65625 0 1.0625 -0.265625q0.40625 -0.28125 0.40625 -0.734375zm4.1535645 1.828125l-1.1875 0l0 -6.875l1.1875 0l0 6.875zm-1.28125 -8.6875q0 -0.28125 0.171875 -0.484375q0.1875 -0.203125 0.53125 -0.203125q0.34375 0 0.515625 0.203125q0.171875 0.203125 0.171875 0.484375q0 0.28125 -0.171875 0.46875q-0.171875 0.1875 -0.515625 0.1875q-0.34375 0 -0.53125 -0.1875q-0.171875 -0.1875 -0.171875 -0.46875zm7.234375 6.859375q0 -0.46875 -0.359375 -0.734375q-0.359375 -0.265625 -1.25 -0.453125q-0.890625 -0.1875 -1.421875 -0.453125q-0.515625 -0.265625 -0.765625 -0.625q-0.25 -0.375 -0.25 -0.890625q0 -0.84375 0.703125 -1.421875q0.71875 -0.59375 1.828125 -0.59375q1.171875 0 1.890625 0.609375q0.734375 0.59375 0.734375 1.546875l-1.1875 0q0 -0.484375 -0.40625 -0.828125q-0.40625 -0.359375 -1.03125 -0.359375q-0.640625 0 -1.0 0.28125q-0.359375 0.28125 -0.359375 0.734375q0 0.421875 0.328125 0.640625q0.34375 0.203125 1.21875 0.40625q0.875 0.203125 1.421875 0.484375q0.546875 0.265625 0.8125 0.65625q0.265625 0.375 0.265625 0.921875q0 0.921875 -0.734375 1.484375q-0.734375 0.546875 -1.90625 0.546875q-0.828125 0 -1.46875 -0.28125q-0.625 -0.296875 -0.984375 -0.8125q-0.359375 -0.53125 -0.359375 -1.140625l1.171875 0q0.03125 0.578125 0.46875 0.9375q0.4375 0.34375 1.171875 0.34375q0.65625 0 1.0625 -0.265625q0.40625 -0.28125 0.40625 -0.734375z" fill-rule="nonzero"></path><path fill="#000000" fill-opacity="0.0" d="m151.2231 288.3596l0 -23.88739l102.99213 0l0 -23.89215" fill-rule="evenodd"></path><path stroke="#000000" stroke-width="1.0" stroke-linejoin="round" stroke-linecap="butt" d="m151.2231 288.3596l0 -23.88739l102.99213 0l0 -23.89215" fill-rule="evenodd"></path><path fill="#000000" fill-opacity="0.0" d="m254.2126 240.5853l0 23.88739l100.94487 0l0 23.89215" fill-rule="evenodd"></path><path stroke="#000000" stroke-width="1.0" stroke-linejoin="round" stroke-linecap="butt" d="m254.2126 240.5853l0 23.88739l100.94487 0l0 23.89215" fill-rule="evenodd"></path><path fill="#000000" fill-opacity="0.0" d="m254.2126 173.56168l0 -34.369766l201.03938 0l0 -34.354637" fill-rule="evenodd"></path><path stroke="#000000" stroke-width="1.0" stroke-linejoin="round" stroke-linecap="butt" d="m254.2126 173.56168l0 -34.369766l201.03938 0l0 -34.354637" fill-rule="evenodd"></path><path fill="#000000" fill-opacity="0.0" d="m455.24146 104.821526l0 34.385506l200.3465 0l0 34.37039" fill-rule="evenodd"></path><path stroke="#000000" stroke-width="1.0" stroke-linejoin="round" stroke-linecap="butt" d="m455.24146 104.821526l0 34.385506l200.3465 0l0 34.37039" fill-rule="evenodd"></path><path fill="#000000" fill-opacity="0.0" d="m655.5748 240.5853l0 23.88739l-96.50397 0l0 23.89215" fill-rule="evenodd"></path><path stroke="#000000" stroke-width="1.0" stroke-linejoin="round" stroke-linecap="butt" d="m655.5748 240.5853l0 23.88739l-96.50397 0l0 23.89215" fill-rule="evenodd"></path><path fill="#000000" fill-opacity="0.0" d="m655.5748 240.5853l0 23.88739l107.40155 0l0 23.89215" fill-rule="evenodd"></path><path stroke="#000000" stroke-width="1.0" stroke-linejoin="round" stroke-linecap="butt" d="m655.5748 240.5853l0 23.88739l107.40155 0l0 23.89215" fill-rule="evenodd"></path></g></svg>

