<?xml version="1.0" standalone="yes"?>

<svg version="1.1" viewBox="0.0 0.0 914.3727034120735 491.8635170603674" fill="none" stroke="none" stroke-linecap="square" stroke-miterlimit="10" xmlns="http://www.w3.org/2000/svg" xmlns:xlink="http://www.w3.org/1999/xlink"><clipPath id="p.0"><path d="m0 0l914.3727 0l0 491.86353l-914.3727 0l0 -491.86353z" clip-rule="nonzero"></path></clipPath><g clip-path="url(#p.0)"><path fill="#000000" fill-opacity="0.0" d="m0 0l914.3727 0l0 491.86353l-914.3727 0z" fill-rule="evenodd"></path><path fill="#6fa8dc" d="m374.32022 117.2021l56.094482 0l0 48.7874l-56.094482 0z" fill-rule="evenodd"></path><path stroke="#000000" stroke-width="1.0" stroke-linejoin="round" stroke-linecap="butt" d="m374.32022 117.2021l56.094482 0l0 48.7874l-56.094482 0z" fill-rule="evenodd"></path><path fill="#000000" d="m399.69202 142.4583q0 2.0625 -0.703125 3.0625q-0.703125 1.0 -2.203125 1.0q-1.484375 0 -2.203125 -0.96875q-0.703125 -0.984375 -0.71875 -2.9375l0 -1.5625q0 -2.046875 0.703125 -3.03125q0.703125 -1.0 2.203125 -1.0q1.5 0 2.203125 0.96875q0.703125 0.953125 0.71875 2.9375l0 1.53125zm-1.171875 -1.609375q0 -1.5 -0.421875 -2.171875q-0.421875 -0.6875 -1.328125 -0.6875q-0.890625 0 -1.3125 0.6875q-0.40625 0.671875 -0.421875 2.078125l0 1.875q0 1.5 0.4375 2.21875q0.4375 0.71875 1.3125 0.71875q0.875 0 1.296875 -0.671875q0.421875 -0.671875 0.4375 -2.125l0 -1.921875zm3.0153198 4.9375q0 -0.3125 0.171875 -0.515625q0.1875 -0.203125 0.546875 -0.203125q0.359375 0 0.546875 0.203125q0.1875 0.203125 0.1875 0.515625q0 0.28125 -0.1875 0.484375q-0.1875 0.1875 -0.546875 0.1875q-0.359375 0 -0.546875 -0.1875q-0.171875 -0.203125 -0.171875 -0.484375zm3.8983765 -4.03125l0.46875 -4.609375l4.734375 0l0 1.09375l-3.734375 0l-0.28125 2.515625q0.671875 -0.390625 1.53125 -0.390625q1.265625 0 2.0 0.828125q0.75 0.828125 0.75 2.25q0 1.4375 -0.765625 2.265625q-0.765625 0.8125 -2.15625 0.8125q-1.21875 0 -2.0 -0.671875q-0.78125 -0.6875 -0.875 -1.890625l1.109375 0q0.109375 0.796875 0.5625 1.203125q0.453125 0.40625 1.203125 0.40625q0.8125 0 1.28125 -0.5625q0.46875 -0.5625 0.46875 -1.546875q0 -0.921875 -0.5 -1.484375q-0.5 -0.5625 -1.34375 -0.5625q-0.765625 0 -1.203125 0.34375l-0.3125 0.25l-0.9375 -0.25z" fill-rule="nonzero"></path><path fill="#6fa8dc" d="m374.32022 165.9895l56.094482 0l0 48.7874l-56.094482 0z" fill-rule="evenodd"></path><path stroke="#000000" stroke-width="1.0" stroke-linejoin="round" stroke-linecap="butt" d="m374.32022 165.9895l56.094482 0l0 48.7874l-56.094482 0z" fill-rule="evenodd"></path><path fill="#000000" d="m384.10147 190.60007q0 -2.421875 0.5 -3.890625q0.5 -1.46875 1.46875 -2.265625q0.984375 -0.796875 2.46875 -0.796875q1.09375 0 1.921875 0.4375q0.828125 0.4375 1.359375 1.28125q0.546875 0.828125 0.84375 2.015625q0.3125 1.1875 0.3125 3.21875q0 2.390625 -0.5 3.859375q-0.484375 1.46875 -1.46875 2.28125q-0.96875 0.796875 -2.46875 0.796875q-1.96875 0 -3.078125 -1.40625q-1.359375 -1.703125 -1.359375 -5.53125zm1.71875 0q0 3.34375 0.78125 4.453125q0.796875 1.109375 1.9375 1.109375q1.15625 0 1.9375 -1.109375q0.78125 -1.125 0.78125 -4.453125q0 -3.359375 -0.78125 -4.46875q-0.78125 -1.109375 -1.953125 -1.109375q-1.15625 0 -1.828125 0.984375q-0.875 1.234375 -0.875 4.59375zm9.594452 6.703125l0 -1.90625l1.90625 0l0 1.90625l-1.90625 0zm4.370819 -11.8125l0 -1.609375l8.796875 0l0 1.296875q-1.296875 1.375 -2.578125 3.671875q-1.265625 2.296875 -1.96875 4.71875q-0.5 1.703125 -0.640625 3.734375l-1.71875 0q0.03125 -1.609375 0.625 -3.875q0.609375 -2.28125 1.734375 -4.390625q1.140625 -2.109375 2.40625 -3.546875l-6.65625 0z" fill-rule="nonzero"></path><path fill="#6fa8dc" d="m374.32022 214.7769l56.094482 0l0 48.7874l-56.094482 0z" fill-rule="evenodd"></path><path stroke="#000000" stroke-width="1.0" stroke-linejoin="round" stroke-linecap="butt" d="m374.32022 214.7769l56.094482 0l0 48.7874l-56.094482 0z" fill-rule="evenodd"></path><path fill="#000000" d="m397.75452 243.9706l-1.171875 0l0 -7.828125l-2.375 0.875l0 -1.078125l3.359375 -1.25l0.1875 0l0 9.28125zm3.7809448 -0.609375q0 -0.3125 0.171875 -0.515625q0.1875 -0.203125 0.546875 -0.203125q0.359375 0 0.546875 0.203125q0.1875 0.203125 0.1875 0.515625q0 0.28125 -0.1875 0.484375q-0.1875 0.1875 -0.546875 0.1875q-0.359375 0 -0.546875 -0.1875q-0.171875 -0.203125 -0.171875 -0.484375zm9.414001 0.609375l-6.0625 0l0 -0.84375l3.203125 -3.5625q0.703125 -0.796875 0.96875 -1.296875q0.28125 -0.515625 0.28125 -1.046875q0 -0.734375 -0.4375 -1.1875q-0.4375 -0.46875 -1.171875 -0.46875q-0.875 0 -1.359375 0.5q-0.484375 0.5 -0.484375 1.390625l-1.171875 0q0 -1.28125 0.8125 -2.0625q0.828125 -0.796875 2.203125 -0.796875q1.296875 0 2.046875 0.6875q0.75 0.671875 0.75 1.796875q0 1.359375 -1.75 3.25l-2.46875 2.6875l4.640625 0l0 0.953125z" fill-rule="nonzero"></path><path fill="#6fa8dc" d="m374.32022 263.5643l56.094482 0l0 48.787415l-56.094482 0z" fill-rule="evenodd"></path><path stroke="#000000" stroke-width="1.0" stroke-linejoin="round" stroke-linecap="butt" d="m374.32022 263.5643l56.094482 0l0 48.787415l-56.094482 0z" fill-rule="evenodd"></path><path fill="#000000" d="m398.0277 292.14862q0 -0.3125 0.171875 -0.515625q0.1875 -0.203125 0.546875 -0.203125q0.359375 0 0.546875 0.203125q0.1875 0.203125 0.1875 0.515625q0 0.28125 -0.1875 0.484375q-0.1875 0.1875 -0.546875 0.1875q-0.359375 0 -0.546875 -0.1875q-0.171875 -0.203125 -0.171875 -0.484375zm3.5077515 0q0 -0.3125 0.171875 -0.515625q0.1875 -0.203125 0.546875 -0.203125q0.359375 0 0.546875 0.203125q0.1875 0.203125 0.1875 0.515625q0 0.28125 -0.1875 0.484375q-0.1875 0.1875 -0.546875 0.1875q-0.359375 0 -0.546875 -0.1875q-0.171875 -0.203125 -0.171875 -0.484375zm3.5077515 0q0 -0.3125 0.171875 -0.515625q0.1875 -0.203125 0.546875 -0.203125q0.359375 0 0.546875 0.203125q0.1875 0.203125 0.1875 0.515625q0 0.28125 -0.1875 0.484375q-0.1875 0.1875 -0.546875 0.1875q-0.359375 0 -0.546875 -0.1875q-0.171875 -0.203125 -0.171875 -0.484375z" fill-rule="nonzero"></path><path fill="#6fa8dc" d="m374.32022 312.3517l56.094482 0l0 48.787384l-56.094482 0z" fill-rule="evenodd"></path><path stroke="#000000" stroke-width="1.0" stroke-linejoin="round" stroke-linecap="butt" d="m374.32022 312.3517l56.094482 0l0 48.787384l-56.094482 0z" fill-rule="evenodd"></path><path fill="#000000" d="m399.69202 337.6079q0 2.0625 -0.703125 3.0625q-0.703125 1.0 -2.203125 1.0q-1.484375 0 -2.203125 -0.96875q-0.703125 -0.984375 -0.71875 -2.9375l0 -1.5625q0 -2.046875 0.703125 -3.03125q0.703125 -1.0 2.203125 -1.0q1.5 0 2.203125 0.96875q0.703125 0.953125 0.71875 2.9375l0 1.53125zm-1.171875 -1.609375q0 -1.5 -0.421875 -2.171875q-0.421875 -0.6875 -1.328125 -0.6875q-0.890625 0 -1.3125 0.6875q-0.40625 0.671875 -0.421875 2.078125l0 1.875q0 1.5 0.4375 2.21875q0.4375 0.71875 1.3125 0.71875q0.875 0 1.296875 -0.671875q0.421875 -0.671875 0.4375 -2.125l0 -1.921875zm3.0153198 4.9375q0 -0.3125 0.171875 -0.515625q0.1875 -0.203125 0.546875 -0.203125q0.359375 0 0.546875 0.203125q0.1875 0.203125 0.1875 0.515625q0 0.28125 -0.1875 0.484375q-0.1875 0.1875 -0.546875 0.1875q-0.359375 0 -0.546875 -0.1875q-0.171875 -0.203125 -0.171875 -0.484375zm9.320251 -7.96875l-3.828125 8.578125l-1.234375 0l3.8125 -8.28125l-5.0 0l0 -0.96875l6.25 0l0 0.671875z" fill-rule="nonzero"></path><path fill="#6fa8dc" d="m430.4147 117.2021l56.094482 0l0 48.7874l-56.094482 0z" fill-rule="evenodd"></path><path stroke="#000000" stroke-width="1.0" stroke-linejoin="round" stroke-linecap="butt" d="m430.4147 117.2021l56.094482 0l0 48.7874l-56.094482 0z" fill-rule="evenodd"></path><path fill="#000000" d="m455.7865 142.4583q0 2.0625 -0.703125 3.0625q-0.703125 1.0 -2.203125 1.0q-1.484375 0 -2.203125 -0.96875q-0.703125 -0.984375 -0.71875 -2.9375l0 -1.5625q0 -2.046875 0.703125 -3.03125q0.703125 -1.0 2.203125 -1.0q1.5 0 2.203125 0.96875q0.703125 0.953125 0.71875 2.9375l0 1.53125zm-1.171875 -1.609375q0 -1.5 -0.421875 -2.171875q-0.421875 -0.6875 -1.328125 -0.6875q-0.890625 0 -1.3125 0.6875q-0.40625 0.671875 -0.421875 2.078125l0 1.875q0 1.5 0.4375 2.21875q0.4375 0.71875 1.3125 0.71875q0.875 0 1.296875 -0.671875q0.421875 -0.671875 0.4375 -2.125l0 -1.921875zm3.0153198 4.9375q0 -0.3125 0.171875 -0.515625q0.1875 -0.203125 0.546875 -0.203125q0.359375 0 0.546875 0.203125q0.1875 0.203125 0.1875 0.515625q0 0.28125 -0.1875 0.484375q-0.1875 0.1875 -0.546875 0.1875q-0.359375 0 -0.546875 -0.1875q-0.171875 -0.203125 -0.171875 -0.484375zm5.0546265 -4.578125l0.890625 0q0.828125 -0.015625 1.296875 -0.4375q0.484375 -0.4375 0.484375 -1.15625q0 -1.625 -1.625 -1.625q-0.75 0 -1.203125 0.4375q-0.453125 0.4375 -0.453125 1.15625l-1.1875 0q0 -1.109375 0.796875 -1.828125q0.8125 -0.734375 2.046875 -0.734375q1.3125 0 2.046875 0.703125q0.75 0.6875 0.75 1.921875q0 0.59375 -0.390625 1.171875q-0.390625 0.5625 -1.0625 0.84375q0.765625 0.234375 1.171875 0.796875q0.421875 0.546875 0.421875 1.359375q0 1.25 -0.8125 1.984375q-0.8125 0.71875 -2.109375 0.71875q-1.296875 0 -2.125 -0.703125q-0.8125 -0.703125 -0.8125 -1.859375l1.1875 0q0 0.734375 0.46875 1.171875q0.484375 0.4375 1.28125 0.4375q0.84375 0 1.296875 -0.4375q0.453125 -0.453125 0.453125 -1.28125q0 -0.8125 -0.5 -1.234375q-0.484375 -0.4375 -1.421875 -0.453125l-0.890625 0l0 -0.953125z" fill-rule="nonzero"></path><path fill="#6fa8dc" d="m430.4147 165.9895l56.094482 0l0 48.7874l-56.094482 0z" fill-rule="evenodd"></path><path stroke="#000000" stroke-width="1.0" stroke-linejoin="round" stroke-linecap="butt" d="m430.4147 165.9895l56.094482 0l0 48.7874l-56.094482 0z" fill-rule="evenodd"></path><path fill="#000000" d="m456.05212 195.1832l-6.0625 0l0 -0.84375l3.203125 -3.5625q0.703125 -0.796875 0.96875 -1.296875q0.28125 -0.515625 0.28125 -1.046875q0 -0.734375 -0.4375 -1.1875q-0.4375 -0.46875 -1.171875 -0.46875q-0.875 0 -1.359375 0.5q-0.484375 0.5 -0.484375 1.390625l-1.171875 0q0 -1.28125 0.8125 -2.0625q0.828125 -0.796875 2.203125 -0.796875q1.296875 0 2.046875 0.6875q0.75 0.671875 0.75 1.796875q0 1.359375 -1.75 3.25l-2.46875 2.6875l4.640625 0l0 0.953125zm1.5778198 -0.609375q0 -0.3125 0.171875 -0.515625q0.1875 -0.203125 0.546875 -0.203125q0.359375 0 0.546875 0.203125q0.1875 0.203125 0.1875 0.515625q0 0.28125 -0.1875 0.484375q-0.1875 0.1875 -0.546875 0.1875q-0.359375 0 -0.546875 -0.1875q-0.171875 -0.203125 -0.171875 -0.484375zm3.8983765 -4.03125l0.46875 -4.609375l4.734375 0l0 1.09375l-3.734375 0l-0.28125 2.515625q0.671875 -0.390625 1.53125 -0.390625q1.265625 0 2.0 0.828125q0.75 0.828125 0.75 2.25q0 1.4375 -0.765625 2.265625q-0.765625 0.8125 -2.15625 0.8125q-1.21875 0 -2.0 -0.671875q-0.78125 -0.6875 -0.875 -1.890625l1.109375 0q0.109375 0.796875 0.5625 1.203125q0.453125 0.40625 1.203125 0.40625q0.8125 0 1.28125 -0.5625q0.46875 -0.5625 0.46875 -1.546875q0 -0.921875 -0.5 -1.484375q-0.5 -0.5625 -1.34375 -0.5625q-0.765625 0 -1.203125 0.34375l-0.3125 0.25l-0.9375 -0.25z" fill-rule="nonzero"></path><path fill="#6fa8dc" d="m430.4147 214.7769l56.094482 0l0 48.7874l-56.094482 0z" fill-rule="evenodd"></path><path stroke="#000000" stroke-width="1.0" stroke-linejoin="round" stroke-linecap="butt" d="m430.4147 214.7769l56.094482 0l0 48.7874l-56.094482 0z" fill-rule="evenodd"></path><path fill="#000000" d="m453.849 243.9706l-1.171875 0l0 -7.828125l-2.375 0.875l0 -1.078125l3.359375 -1.25l0.1875 0l0 9.28125zm3.7809448 -0.609375q0 -0.3125 0.171875 -0.515625q0.1875 -0.203125 0.546875 -0.203125q0.359375 0 0.546875 0.203125q0.1875 0.203125 0.1875 0.515625q0 0.28125 -0.1875 0.484375q-0.1875 0.1875 -0.546875 0.1875q-0.359375 0 -0.546875 -0.1875q-0.171875 -0.203125 -0.171875 -0.484375zm3.8983765 -4.03125l0.46875 -4.609375l4.734375 0l0 1.09375l-3.734375 0l-0.28125 2.515625q0.671875 -0.390625 1.53125 -0.390625q1.265625 0 2.0 0.828125q0.75 0.828125 0.75 2.25q0 1.4375 -0.765625 2.265625q-0.765625 0.8125 -2.15625 0.8125q-1.21875 0 -2.0 -0.671875q-0.78125 -0.6875 -0.875 -1.890625l1.109375 0q0.109375 0.796875 0.5625 1.203125q0.453125 0.40625 1.203125 0.40625q0.8125 0 1.28125 -0.5625q0.46875 -0.5625 0.46875 -1.546875q0 -0.921875 -0.5 -1.484375q-0.5 -0.5625 -1.34375 -0.5625q-0.765625 0 -1.203125 0.34375l-0.3125 0.25l-0.9375 -0.25z" fill-rule="nonzero"></path><path fill="#6fa8dc" d="m430.4147 263.5643l56.094482 0l0 48.787415l-56.094482 0z" fill-rule="evenodd"></path><path stroke="#000000" stroke-width="1.0" stroke-linejoin="round" stroke-linecap="butt" d="m430.4147 263.5643l56.094482 0l0 48.787415l-56.094482 0z" fill-rule="evenodd"></path><path fill="#000000" d="m454.1222 292.14862q0 -0.3125 0.171875 -0.515625q0.1875 -0.203125 0.546875 -0.203125q0.359375 0 0.546875 0.203125q0.1875 0.203125 0.1875 0.515625q0 0.28125 -0.1875 0.484375q-0.1875 0.1875 -0.546875 0.1875q-0.359375 0 -0.546875 -0.1875q-0.171875 -0.203125 -0.171875 -0.484375zm3.5077515 0q0 -0.3125 0.171875 -0.515625q0.1875 -0.203125 0.546875 -0.203125q0.359375 0 0.546875 0.203125q0.1875 0.203125 0.1875 0.515625q0 0.28125 -0.1875 0.484375q-0.1875 0.1875 -0.546875 0.1875q-0.359375 0 -0.546875 -0.1875q-0.171875 -0.203125 -0.171875 -0.484375zm3.5077515 0q0 -0.3125 0.171875 -0.515625q0.1875 -0.203125 0.546875 -0.203125q0.359375 0 0.546875 0.203125q0.1875 0.203125 0.1875 0.515625q0 0.28125 -0.1875 0.484375q-0.1875 0.1875 -0.546875 0.1875q-0.359375 0 -0.546875 -0.1875q-0.171875 -0.203125 -0.171875 -0.484375z" fill-rule="nonzero"></path><path fill="#6fa8dc" d="m430.4147 312.3517l56.094482 0l0 48.787384l-56.094482 0z" fill-rule="evenodd"></path><path stroke="#000000" stroke-width="1.0" stroke-linejoin="round" stroke-linecap="butt" d="m430.4147 312.3517l56.094482 0l0 48.787384l-56.094482 0z" fill-rule="evenodd"></path><path fill="#000000" d="m455.7865 337.6079q0 2.0625 -0.703125 3.0625q-0.703125 1.0 -2.203125 1.0q-1.484375 0 -2.203125 -0.96875q-0.703125 -0.984375 -0.71875 -2.9375l0 -1.5625q0 -2.046875 0.703125 -3.03125q0.703125 -1.0 2.203125 -1.0q1.5 0 2.203125 0.96875q0.703125 0.953125 0.71875 2.9375l0 1.53125zm-1.171875 -1.609375q0 -1.5 -0.421875 -2.171875q-0.421875 -0.6875 -1.328125 -0.6875q-0.890625 0 -1.3125 0.6875q-0.40625 0.671875 -0.421875 2.078125l0 1.875q0 1.5 0.4375 2.21875q0.4375 0.71875 1.3125 0.71875q0.875 0 1.296875 -0.671875q0.421875 -0.671875 0.4375 -2.125l0 -1.921875zm3.0153198 4.9375q0 -0.3125 0.171875 -0.515625q0.1875 -0.203125 0.546875 -0.203125q0.359375 0 0.546875 0.203125q0.1875 0.203125 0.1875 0.515625q0 0.28125 -0.1875 0.484375q-0.1875 0.1875 -0.546875 0.1875q-0.359375 0 -0.546875 -0.1875q-0.171875 -0.203125 -0.171875 -0.484375zm8.304626 -2.5l1.296875 0l0 0.96875l-1.296875 0l0 2.140625l-1.171875 0l0 -2.140625l-4.203125 0l0 -0.703125l4.125 -6.40625l1.25 0l0 6.140625zm-4.046875 0l2.875 0l0 -4.53125l-0.140625 0.265625l-2.734375 4.265625z" fill-rule="nonzero"></path><path fill="#6fa8dc" d="m486.5092 117.2021l56.094513 0l0 48.7874l-56.094513 0z" fill-rule="evenodd"></path><path stroke="#000000" stroke-width="1.0" stroke-linejoin="round" stroke-linecap="butt" d="m486.5092 117.2021l56.094513 0l0 48.7874l-56.094513 0z" fill-rule="evenodd"></path><path fill="#000000" d="m510.21667 145.78642q0 -0.3125 0.171875 -0.515625q0.1875 -0.203125 0.546875 -0.203125q0.359375 0 0.546875 0.203125q0.1875 0.203125 0.1875 0.515625q0 0.28125 -0.1875 0.484375q-0.1875 0.1875 -0.546875 0.1875q-0.359375 0 -0.546875 -0.1875q-0.171875 -0.203125 -0.171875 -0.484375zm3.5077515 0q0 -0.3125 0.171875 -0.515625q0.1875 -0.203125 0.546875 -0.203125q0.359375 0 0.546875 0.203125q0.1875 0.203125 0.1875 0.515625q0 0.28125 -0.1875 0.484375q-0.1875 0.1875 -0.546875 0.1875q-0.359375 0 -0.546875 -0.1875q-0.171875 -0.203125 -0.171875 -0.484375zm3.5077515 0q0 -0.3125 0.171875 -0.515625q0.1875 -0.203125 0.546875 -0.203125q0.359375 0 0.546875 0.203125q0.1875 0.203125 0.1875 0.515625q0 0.28125 -0.1875 0.484375q-0.1875 0.1875 -0.546875 0.1875q-0.359375 0 -0.546875 -0.1875q-0.171875 -0.203125 -0.171875 -0.484375z" fill-rule="nonzero"></path><path fill="#6fa8dc" d="m486.5092 165.9895l56.094513 0l0 48.7874l-56.094513 0z" fill-rule="evenodd"></path><path stroke="#000000" stroke-width="1.0" stroke-linejoin="round" stroke-linecap="butt" d="m486.5092 165.9895l56.094513 0l0 48.7874l-56.094513 0z" fill-rule="evenodd"></path><path fill="#000000" d="m510.21667 194.57382q0 -0.3125 0.171875 -0.515625q0.1875 -0.203125 0.546875 -0.203125q0.359375 0 0.546875 0.203125q0.1875 0.203125 0.1875 0.515625q0 0.28125 -0.1875 0.484375q-0.1875 0.1875 -0.546875 0.1875q-0.359375 0 -0.546875 -0.1875q-0.171875 -0.203125 -0.171875 -0.484375zm3.5077515 0q0 -0.3125 0.171875 -0.515625q0.1875 -0.203125 0.546875 -0.203125q0.359375 0 0.546875 0.203125q0.1875 0.203125 0.1875 0.515625q0 0.28125 -0.1875 0.484375q-0.1875 0.1875 -0.546875 0.1875q-0.359375 0 -0.546875 -0.1875q-0.171875 -0.203125 -0.171875 -0.484375zm3.5077515 0q0 -0.3125 0.171875 -0.515625q0.1875 -0.203125 0.546875 -0.203125q0.359375 0 0.546875 0.203125q0.1875 0.203125 0.1875 0.515625q0 0.28125 -0.1875 0.484375q-0.1875 0.1875 -0.546875 0.1875q-0.359375 0 -0.546875 -0.1875q-0.171875 -0.203125 -0.171875 -0.484375z" fill-rule="nonzero"></path><path fill="#6fa8dc" d="m486.5092 214.7769l56.094513 0l0 48.7874l-56.094513 0z" fill-rule="evenodd"></path><path stroke="#000000" stroke-width="1.0" stroke-linejoin="round" stroke-linecap="butt" d="m486.5092 214.7769l56.094513 0l0 48.7874l-56.094513 0z" fill-rule="evenodd"></path><path fill="#000000" d="m510.21667 243.36122q0 -0.3125 0.171875 -0.515625q0.1875 -0.203125 0.546875 -0.203125q0.359375 0 0.546875 0.203125q0.1875 0.203125 0.1875 0.515625q0 0.28125 -0.1875 0.484375q-0.1875 0.1875 -0.546875 0.1875q-0.359375 0 -0.546875 -0.1875q-0.171875 -0.203125 -0.171875 -0.484375zm3.5077515 0q0 -0.3125 0.171875 -0.515625q0.1875 -0.203125 0.546875 -0.203125q0.359375 0 0.546875 0.203125q0.1875 0.203125 0.1875 0.515625q0 0.28125 -0.1875 0.484375q-0.1875 0.1875 -0.546875 0.1875q-0.359375 0 -0.546875 -0.1875q-0.171875 -0.203125 -0.171875 -0.484375zm3.5077515 0q0 -0.3125 0.171875 -0.515625q0.1875 -0.203125 0.546875 -0.203125q0.359375 0 0.546875 0.203125q0.1875 0.203125 0.1875 0.515625q0 0.28125 -0.1875 0.484375q-0.1875 0.1875 -0.546875 0.1875q-0.359375 0 -0.546875 -0.1875q-0.171875 -0.203125 -0.171875 -0.484375z" fill-rule="nonzero"></path><path fill="#6fa8dc" d="m486.5092 263.5643l56.094513 0l0 48.787415l-56.094513 0z" fill-rule="evenodd"></path><path stroke="#000000" stroke-width="1.0" stroke-linejoin="round" stroke-linecap="butt" d="m486.5092 263.5643l56.094513 0l0 48.787415l-56.094513 0z" fill-rule="evenodd"></path><path fill="#000000" d="m510.21667 292.14862q0 -0.3125 0.171875 -0.515625q0.1875 -0.203125 0.546875 -0.203125q0.359375 0 0.546875 0.203125q0.1875 0.203125 0.1875 0.515625q0 0.28125 -0.1875 0.484375q-0.1875 0.1875 -0.546875 0.1875q-0.359375 0 -0.546875 -0.1875q-0.171875 -0.203125 -0.171875 -0.484375zm3.5077515 0q0 -0.3125 0.171875 -0.515625q0.1875 -0.203125 0.546875 -0.203125q0.359375 0 0.546875 0.203125q0.1875 0.203125 0.1875 0.515625q0 0.28125 -0.1875 0.484375q-0.1875 0.1875 -0.546875 0.1875q-0.359375 0 -0.546875 -0.1875q-0.171875 -0.203125 -0.171875 -0.484375zm3.5077515 0q0 -0.3125 0.171875 -0.515625q0.1875 -0.203125 0.546875 -0.203125q0.359375 0 0.546875 0.203125q0.1875 0.203125 0.1875 0.515625q0 0.28125 -0.1875 0.484375q-0.1875 0.1875 -0.546875 0.1875q-0.359375 0 -0.546875 -0.1875q-0.171875 -0.203125 -0.171875 -0.484375z" fill-rule="nonzero"></path><path fill="#6fa8dc" d="m486.5092 312.3517l56.094513 0l0 48.787384l-56.094513 0z" fill-rule="evenodd"></path><path stroke="#000000" stroke-width="1.0" stroke-linejoin="round" stroke-linecap="butt" d="m486.5092 312.3517l56.094513 0l0 48.787384l-56.094513 0z" fill-rule="evenodd"></path><path fill="#000000" d="m510.21667 340.93604q0 -0.3125 0.171875 -0.515625q0.1875 -0.203125 0.546875 -0.203125q0.359375 0 0.546875 0.203125q0.1875 0.203125 0.1875 0.515625q0 0.28125 -0.1875 0.484375q-0.1875 0.1875 -0.546875 0.1875q-0.359375 0 -0.546875 -0.1875q-0.171875 -0.203125 -0.171875 -0.484375zm3.5077515 0q0 -0.3125 0.171875 -0.515625q0.1875 -0.203125 0.546875 -0.203125q0.359375 0 0.546875 0.203125q0.1875 0.203125 0.1875 0.515625q0 0.28125 -0.1875 0.484375q-0.1875 0.1875 -0.546875 0.1875q-0.359375 0 -0.546875 -0.1875q-0.171875 -0.203125 -0.171875 -0.484375zm3.5077515 0q0 -0.3125 0.171875 -0.515625q0.1875 -0.203125 0.546875 -0.203125q0.359375 0 0.546875 0.203125q0.1875 0.203125 0.1875 0.515625q0 0.28125 -0.1875 0.484375q-0.1875 0.1875 -0.546875 0.1875q-0.359375 0 -0.546875 -0.1875q-0.171875 -0.203125 -0.171875 -0.484375z" fill-rule="nonzero"></path><path fill="#6fa8dc" d="m542.6037 117.2021l56.094482 0l0 48.7874l-56.094482 0z" fill-rule="evenodd"></path><path stroke="#000000" stroke-width="1.0" stroke-linejoin="round" stroke-linecap="butt" d="m542.6037 117.2021l56.094482 0l0 48.7874l-56.094482 0z" fill-rule="evenodd"></path><path fill="#000000" d="m567.97546 142.4583q0 2.0625 -0.703125 3.0625q-0.703125 1.0 -2.203125 1.0q-1.484375 0 -2.203125 -0.96875q-0.703125 -0.984375 -0.71875 -2.9375l0 -1.5625q0 -2.046875 0.703125 -3.03125q0.703125 -1.0 2.203125 -1.0q1.5 0 2.203125 0.96875q0.703125 0.953125 0.71875 2.9375l0 1.53125zm-1.171875 -1.609375q0 -1.5 -0.421875 -2.171875q-0.421875 -0.6875 -1.328125 -0.6875q-0.890625 0 -1.3125 0.6875q-0.40625 0.671875 -0.421875 2.078125l0 1.875q0 1.5 0.4375 2.21875q0.4375 0.71875 1.3125 0.71875q0.875 0 1.296875 -0.671875q0.421875 -0.671875 0.4375 -2.125l0 -1.921875zm3.0153198 4.9375q0 -0.3125 0.171875 -0.515625q0.1875 -0.203125 0.546875 -0.203125q0.359375 0 0.546875 0.203125q0.1875 0.203125 0.1875 0.515625q0 0.28125 -0.1875 0.484375q-0.1875 0.1875 -0.546875 0.1875q-0.359375 0 -0.546875 -0.1875q-0.171875 -0.203125 -0.171875 -0.484375zm7.8515015 -3.453125q-0.359375 0.4375 -0.875 0.703125q-0.515625 0.265625 -1.125 0.265625q-0.796875 0 -1.390625 -0.390625q-0.59375 -0.390625 -0.921875 -1.109375q-0.3125 -0.71875 -0.3125 -1.578125q0 -0.921875 0.34375 -1.65625q0.359375 -0.75 1.0 -1.140625q0.65625 -0.40625 1.515625 -0.40625q1.375 0 2.15625 1.03125q0.796875 1.03125 0.796875 2.796875l0 0.34375q0 2.703125 -1.078125 3.9375q-1.0625 1.234375 -3.203125 1.265625l-0.234375 0l0 -0.984375l0.25 0q1.453125 -0.03125 2.234375 -0.75q0.78125 -0.734375 0.84375 -2.328125zm-1.8125 0q0.59375 0 1.09375 -0.359375q0.5 -0.359375 0.734375 -0.890625l0 -0.484375q0 -1.140625 -0.515625 -1.859375q-0.5 -0.734375 -1.265625 -0.734375q-0.765625 0 -1.234375 0.59375q-0.46875 0.59375 -0.46875 1.5625q0 0.953125 0.453125 1.5625q0.453125 0.609375 1.203125 0.609375z" fill-rule="nonzero"></path><path fill="#6fa8dc" d="m542.6037 165.9895l56.094482 0l0 48.7874l-56.094482 0z" fill-rule="evenodd"></path><path stroke="#000000" stroke-width="1.0" stroke-linejoin="round" stroke-linecap="butt" d="m542.6037 165.9895l56.094482 0l0 48.7874l-56.094482 0z" fill-rule="evenodd"></path><path fill="#000000" d="m567.97546 191.2457q0 2.0625 -0.703125 3.0625q-0.703125 1.0 -2.203125 1.0q-1.484375 0 -2.203125 -0.96875q-0.703125 -0.984375 -0.71875 -2.9375l0 -1.5625q0 -2.046875 0.703125 -3.03125q0.703125 -1.0 2.203125 -1.0q1.5 0 2.203125 0.96875q0.703125 0.953125 0.71875 2.9375l0 1.53125zm-1.171875 -1.609375q0 -1.5 -0.421875 -2.171875q-0.421875 -0.6875 -1.328125 -0.6875q-0.890625 0 -1.3125 0.6875q-0.40625 0.671875 -0.421875 2.078125l0 1.875q0 1.5 0.4375 2.21875q0.4375 0.71875 1.3125 0.71875q0.875 0 1.296875 -0.671875q0.421875 -0.671875 0.4375 -2.125l0 -1.921875zm3.0153198 4.9375q0 -0.3125 0.171875 -0.515625q0.1875 -0.203125 0.546875 -0.203125q0.359375 0 0.546875 0.203125q0.1875 0.203125 0.1875 0.515625q0 0.28125 -0.1875 0.484375q-0.1875 0.1875 -0.546875 0.1875q-0.359375 0 -0.546875 -0.1875q-0.171875 -0.203125 -0.171875 -0.484375zm9.320251 -7.96875l-3.828125 8.578125l-1.234375 0l3.8125 -8.28125l-5.0 0l0 -0.96875l6.25 0l0 0.671875z" fill-rule="nonzero"></path><path fill="#6fa8dc" d="m542.6037 214.7769l56.094482 0l0 48.7874l-56.094482 0z" fill-rule="evenodd"></path><path stroke="#000000" stroke-width="1.0" stroke-linejoin="round" stroke-linecap="butt" d="m542.6037 214.7769l56.094482 0l0 48.7874l-56.094482 0z" fill-rule="evenodd"></path><path fill="#000000" d="m566.03796 243.9706l-1.171875 0l0 -7.828125l-2.375 0.875l0 -1.078125l3.359375 -1.25l0.1875 0l0 9.28125zm3.7809448 -0.609375q0 -0.3125 0.171875 -0.515625q0.1875 -0.203125 0.546875 -0.203125q0.359375 0 0.546875 0.203125q0.1875 0.203125 0.1875 0.515625q0 0.28125 -0.1875 0.484375q-0.1875 0.1875 -0.546875 0.1875q-0.359375 0 -0.546875 -0.1875q-0.171875 -0.203125 -0.171875 -0.484375zm9.320251 -7.96875l-3.828125 8.578125l-1.234375 0l3.8125 -8.28125l-5.0 0l0 -0.96875l6.25 0l0 0.671875z" fill-rule="nonzero"></path><path fill="#6fa8dc" d="m542.6037 263.5643l56.094482 0l0 48.787415l-56.094482 0z" fill-rule="evenodd"></path><path stroke="#000000" stroke-width="1.0" stroke-linejoin="round" stroke-linecap="butt" d="m542.6037 263.5643l56.094482 0l0 48.787415l-56.094482 0z" fill-rule="evenodd"></path><path fill="#000000" d="m566.31116 292.14862q0 -0.3125 0.171875 -0.515625q0.1875 -0.203125 0.546875 -0.203125q0.359375 0 0.546875 0.203125q0.1875 0.203125 0.1875 0.515625q0 0.28125 -0.1875 0.484375q-0.1875 0.1875 -0.546875 0.1875q-0.359375 0 -0.546875 -0.1875q-0.171875 -0.203125 -0.171875 -0.484375zm3.5077515 0q0 -0.3125 0.171875 -0.515625q0.1875 -0.203125 0.546875 -0.203125q0.359375 0 0.546875 0.203125q0.1875 0.203125 0.1875 0.515625q0 0.28125 -0.1875 0.484375q-0.1875 0.1875 -0.546875 0.1875q-0.359375 0 -0.546875 -0.1875q-0.171875 -0.203125 -0.171875 -0.484375zm3.5077515 0q0 -0.3125 0.171875 -0.515625q0.1875 -0.203125 0.546875 -0.203125q0.359375 0 0.546875 0.203125q0.1875 0.203125 0.1875 0.515625q0 0.28125 -0.1875 0.484375q-0.1875 0.1875 -0.546875 0.1875q-0.359375 0 -0.546875 -0.1875q-0.171875 -0.203125 -0.171875 -0.484375z" fill-rule="nonzero"></path><path fill="#6fa8dc" d="m542.6037 312.3517l56.094482 0l0 48.787384l-56.094482 0z" fill-rule="evenodd"></path><path stroke="#000000" stroke-width="1.0" stroke-linejoin="round" stroke-linecap="butt" d="m542.6037 312.3517l56.094482 0l0 48.787384l-56.094482 0z" fill-rule="evenodd"></path><path fill="#000000" d="m567.97546 337.6079q0 2.0625 -0.703125 3.0625q-0.703125 1.0 -2.203125 1.0q-1.484375 0 -2.203125 -0.96875q-0.703125 -0.984375 -0.71875 -2.9375l0 -1.5625q0 -2.046875 0.703125 -3.03125q0.703125 -1.0 2.203125 -1.0q1.5 0 2.203125 0.96875q0.703125 0.953125 0.71875 2.9375l0 1.53125zm-1.171875 -1.609375q0 -1.5 -0.421875 -2.171875q-0.421875 -0.6875 -1.328125 -0.6875q-0.890625 0 -1.3125 0.6875q-0.40625 0.671875 -0.421875 2.078125l0 1.875q0 1.5 0.4375 2.21875q0.4375 0.71875 1.3125 0.71875q0.875 0 1.296875 -0.671875q0.421875 -0.671875 0.4375 -2.125l0 -1.921875zm3.0153198 4.9375q0 -0.3125 0.171875 -0.515625q0.1875 -0.203125 0.546875 -0.203125q0.359375 0 0.546875 0.203125q0.1875 0.203125 0.1875 0.515625q0 0.28125 -0.1875 0.484375q-0.1875 0.1875 -0.546875 0.1875q-0.359375 0 -0.546875 -0.1875q-0.171875 -0.203125 -0.171875 -0.484375zm7.2108765 0.609375l-1.171875 0l0 -7.828125l-2.375 0.875l0 -1.078125l3.359375 -1.25l0.1875 0l0 9.28125z" fill-rule="nonzero"></path><path fill="#000000" fill-opacity="0.0" d="m305.39108 118.43044l43.590546 0l0 46.33071l-43.590546 0z" fill-rule="evenodd"></path><path fill="#000000" d="m319.1567 134.52606l2.0 -3.6875l2.53125 0l-3.109375 5.296875l3.1875 5.375l-2.5625 0l-2.046875 -3.734375l-2.046875 3.734375l-2.5625 0l3.1875 -5.375l-3.109375 -5.296875l2.53125 0l2.0 3.6875z" fill-rule="nonzero"></path><path fill="#000000" fill-opacity="0.0" d="m315.84827 127.45185l33.13385 0l0 36.566933l-33.13385 0z" fill-rule="evenodd"></path><path fill="#000000" d="m329.1139 147.97185l-1.078125 0l0 -7.21875l-2.1875 0.796875l0 -0.984375l3.109375 -1.171875l0.15625 0l0 8.578125z" fill-rule="nonzero"></path><path fill="#000000" fill-opacity="0.0" d="m348.98163 141.5958l25.35434 0" fill-rule="evenodd"></path><path stroke="#000000" stroke-width="1.0" stroke-linejoin="round" stroke-linecap="butt" d="m348.98163 141.5958l19.35434 0" fill-rule="evenodd"></path><path fill="#000000" stroke="#000000" stroke-width="1.0" stroke-linecap="butt" d="m368.33597 143.24753l4.538086 -1.6517334l-4.538086 -1.6517334z" fill-rule="evenodd"></path><path fill="#000000" fill-opacity="0.0" d="m305.37534 167.21783l43.590546 0l0 46.33072l-43.590546 0z" fill-rule="evenodd"></path><path fill="#000000" d="m319.14096 183.31346l2.0 -3.6875l2.53125 0l-3.109375 5.296875l3.1875 5.375l-2.5625 0l-2.046875 -3.734375l-2.046875 3.734375l-2.5625 0l3.1875 -5.375l-3.109375 -5.296875l2.53125 0l2.0 3.6875z" fill-rule="nonzero"></path><path fill="#000000" fill-opacity="0.0" d="m315.83252 176.23926l33.13385 0l0 36.566925l-33.13385 0z" fill-rule="evenodd"></path><path fill="#000000" d="m331.1294 196.75925l-5.59375 0l0 -0.78125l2.953125 -3.28125q0.65625 -0.75 0.90625 -1.203125q0.25 -0.46875 0.25 -0.96875q0 -0.671875 -0.40625 -1.09375q-0.390625 -0.4375 -1.078125 -0.4375q-0.796875 0 -1.25 0.46875q-0.453125 0.453125 -0.453125 1.28125l-1.078125 0q0 -1.1875 0.75 -1.90625q0.765625 -0.734375 2.03125 -0.734375q1.203125 0 1.890625 0.625q0.6875 0.625 0.6875 1.671875q0 1.25 -1.609375 3.0l-2.28125 2.46875l4.28125 0l0 0.890625z" fill-rule="nonzero"></path><path fill="#000000" fill-opacity="0.0" d="m348.96588 190.3832l25.35434 0" fill-rule="evenodd"></path><path stroke="#000000" stroke-width="1.0" stroke-linejoin="round" stroke-linecap="butt" d="m348.96588 190.38321l19.35434 0" fill-rule="evenodd"></path><path fill="#000000" stroke="#000000" stroke-width="1.0" stroke-linecap="butt" d="m368.32022 192.03493l4.538086 -1.6517181l-4.538086 -1.6517334z" fill-rule="evenodd"></path><path fill="#000000" fill-opacity="0.0" d="m305.37534 216.00525l43.590546 0l0 46.33069l-43.590546 0z" fill-rule="evenodd"></path><path fill="#000000" d="m319.14096 232.10086l2.0 -3.6875l2.53125 0l-3.109375 5.296875l3.1875 5.375l-2.5625 0l-2.046875 -3.734375l-2.046875 3.734375l-2.5625 0l3.1875 -5.375l-3.109375 -5.296875l2.53125 0l2.0 3.6875z" fill-rule="nonzero"></path><path fill="#000000" fill-opacity="0.0" d="m315.83252 225.02666l33.13385 0l0 36.56694l-33.13385 0z" fill-rule="evenodd"></path><path fill="#000000" d="m327.11377 240.74979l0.8125 0q0.78125 -0.015625 1.21875 -0.40625q0.4375 -0.390625 0.4375 -1.0625q0 -1.5 -1.5 -1.5q-0.703125 0 -1.125 0.40625q-0.40625 0.40625 -0.40625 1.0625l-1.09375 0q0 -1.015625 0.734375 -1.6875q0.75 -0.671875 1.890625 -0.671875q1.203125 0 1.890625 0.640625q0.6875 0.640625 0.6875 1.78125q0 0.5625 -0.359375 1.078125q-0.359375 0.515625 -0.984375 0.78125q0.703125 0.21875 1.078125 0.734375q0.390625 0.515625 0.390625 1.265625q0 1.140625 -0.75 1.828125q-0.75 0.671875 -1.953125 0.671875q-1.1875 0 -1.953125 -0.65625q-0.75 -0.65625 -0.75 -1.71875l1.09375 0q0 0.671875 0.4375 1.078125q0.4375 0.40625 1.1875 0.40625q0.78125 0 1.1875 -0.40625q0.421875 -0.421875 0.421875 -1.1875q0 -0.734375 -0.453125 -1.125q-0.453125 -0.40625 -1.328125 -0.421875l-0.8125 0l0 -0.890625z" fill-rule="nonzero"></path><path fill="#000000" fill-opacity="0.0" d="m348.96588 239.1706l25.35434 0" fill-rule="evenodd"></path><path stroke="#000000" stroke-width="1.0" stroke-linejoin="round" stroke-linecap="butt" d="m348.96588 239.17061l19.35434 0" fill-rule="evenodd"></path><path fill="#000000" stroke="#000000" stroke-width="1.0" stroke-linecap="butt" d="m368.32022 240.82234l4.538086 -1.6517334l-4.538086 -1.6517334z" fill-rule="evenodd"></path><path fill="#000000" fill-opacity="0.0" d="m305.37534 312.35168l43.590546 0l0 46.33072l-43.590546 0z" fill-rule="evenodd"></path><path fill="#000000" d="m319.14096 328.44733l2.0 -3.6875l2.53125 0l-3.109375 5.296875l3.1875 5.375l-2.5625 0l-2.046875 -3.734375l-2.046875 3.734375l-2.5625 0l3.1875 -5.375l-3.109375 -5.296875l2.53125 0l2.0 3.6875z" fill-rule="nonzero"></path><path fill="#000000" fill-opacity="0.0" d="m315.83252 321.3731l33.13385 0l0 36.566925l-33.13385 0z" fill-rule="evenodd"></path><path fill="#000000" d="m326.67627 335.54935l0.03125 0.796875q0.734375 -0.90625 1.90625 -0.90625q2.015625 0 2.03125 2.265625l0 4.1875l-1.09375 0l0 -4.203125q0 -0.671875 -0.3125 -1.0q-0.296875 -0.328125 -0.953125 -0.328125q-0.53125 0 -0.9375 0.28125q-0.390625 0.28125 -0.609375 0.734375l0 4.515625l-1.078125 0l0 -6.34375l1.015625 0z" fill-rule="nonzero"></path><path fill="#000000" fill-opacity="0.0" d="m348.96588 335.51706l25.35434 0" fill-rule="evenodd"></path><path stroke="#000000" stroke-width="1.0" stroke-linejoin="round" stroke-linecap="butt" d="m348.96588 335.51706l19.35434 0" fill-rule="evenodd"></path><path fill="#000000" stroke="#000000" stroke-width="1.0" stroke-linecap="butt" d="m368.32022 337.1688l4.538086 -1.6517334l-4.538086 -1.6517334z" fill-rule="evenodd"></path><path fill="#000000" fill-opacity="0.0" d="m315.83203 255.20473l18.771637 0l0 48.7874l-18.771637 0z" fill-rule="evenodd"></path><path fill="#000000" d="m325.5039 273.6791q0 -0.375 0.25 -0.59375q0.25 -0.234375 0.625 -0.234375q0.390625 0 0.640625 0.234375q0.25 0.21875 0.25 0.59375q0 0.375 -0.25 0.609375q-0.25 0.21875 -0.640625 0.21875q-0.375 0 -0.625 -0.21875q-0.25 -0.234375 -0.25 -0.609375z" fill-rule="nonzero"></path><path fill="#000000" d="m325.5039 286.6791q0 -0.375 0.25 -0.59375q0.25 -0.234375 0.625 -0.234375q0.390625 0 0.640625 0.234375q0.25 0.21875 0.25 0.59375q0 0.375 -0.25 0.609375q-0.25 0.21875 -0.640625 0.21875q-0.375 0 -0.625 -0.21875q-0.25 -0.234375 -0.25 -0.609375z" fill-rule="nonzero"></path><path fill="#000000" d="m325.5039 299.6791q0 -0.375 0.25 -0.59375q0.25 -0.234375 0.625 -0.234375q0.390625 0 0.640625 0.234375q0.25 0.21875 0.25 0.59375q0 0.375 -0.25 0.609375q-0.25 0.21875 -0.640625 0.21875q-0.375 0 -0.625 -0.21875q-0.25 -0.234375 -0.25 -0.609375z" fill-rule="nonzero"></path><path fill="#000000" fill-opacity="0.0" d="m371.1076 56.24147l62.519684 0l0 36.566925l-62.519684 0z" fill-rule="evenodd"></path><path fill="#000000" d="m387.6946 73.27709l-3.375 0l0 3.484375l-1.75 0l0 -8.53125l5.546875 0l0 1.421875l-3.796875 0l0 2.203125l3.375 0l0 1.421875zm4.2460938 3.609375q-1.390625 0 -2.265625 -0.859375q-0.875 -0.859375 -0.875 -2.28125l0 -0.171875q0 -0.953125 0.359375 -1.703125q0.375 -0.75 1.046875 -1.15625q0.6875 -0.40625 1.546875 -0.40625q1.3125 0 2.046875 0.828125q0.75 0.8125 0.75 2.3125l0 0.6875l-4.03125 0q0.078125 0.625 0.484375 1.0q0.421875 0.375 1.0625 0.375q0.96875 0 1.515625 -0.703125l0.84375 0.921875q-0.390625 0.546875 -1.046875 0.859375q-0.640625 0.296875 -1.4375 0.296875zm-0.1875 -5.21875q-0.5 0 -0.8125 0.34375q-0.3125 0.34375 -0.40625 0.96875l2.359375 0l0 -0.125q-0.015625 -0.5625 -0.3125 -0.875q-0.28125 -0.3125 -0.828125 -0.3125zm7.439453 5.09375q-0.125 -0.234375 -0.171875 -0.5625q-0.609375 0.6875 -1.59375 0.6875q-0.9375 0 -1.546875 -0.546875q-0.609375 -0.546875 -0.609375 -1.359375q0 -1.015625 0.734375 -1.546875q0.75 -0.546875 2.171875 -0.546875l0.765625 0l0 -0.359375q0 -0.4375 -0.21875 -0.703125q-0.21875 -0.265625 -0.71875 -0.265625q-0.421875 0 -0.671875 0.203125q-0.234375 0.203125 -0.234375 0.5625l-1.6875 0q0 -0.546875 0.328125 -1.015625q0.34375 -0.46875 0.96875 -0.734375q0.625 -0.265625 1.390625 -0.265625q1.171875 0 1.859375 0.59375q0.6875 0.578125 0.6875 1.640625l0 2.75q0.015625 0.90625 0.25 1.375l0 0.09375l-1.703125 0zm-1.40625 -1.171875q0.375 0 0.6875 -0.171875q0.328125 -0.171875 0.46875 -0.453125l0 -1.09375l-0.625 0q-1.265625 0 -1.359375 0.890625l0 0.09375q0 0.3125 0.21875 0.53125q0.21875 0.203125 0.609375 0.203125zm6.1835938 -6.734375l0 1.5625l1.09375 0l0 1.25l-1.09375 0l0 3.15625q0 0.359375 0.140625 0.515625q0.140625 0.140625 0.515625 0.140625q0.28125 0 0.5 -0.03125l0 1.28125q-0.5 0.15625 -1.03125 0.15625q-1.78125 0 -1.8125 -1.8125l0 -3.40625l-0.921875 0l0 -1.25l0.921875 0l0 -1.5625l1.6875 0zm5.8359375 7.265625q-0.625 0.765625 -1.734375 0.765625q-1.03125 0 -1.5625 -0.59375q-0.53125 -0.59375 -0.546875 -1.71875l0 -4.15625l1.6875 0l0 4.09375q0 1.0 0.90625 1.0q0.859375 0 1.1875 -0.609375l0 -4.484375l1.703125 0l0 6.34375l-1.59375 0l-0.046875 -0.640625zm6.4804688 -4.109375q-0.34375 -0.046875 -0.609375 -0.046875q-0.96875 0 -1.265625 0.640625l0 4.15625l-1.6875 0l0 -6.34375l1.59375 0l0.046875 0.765625q0.515625 -0.875 1.40625 -0.875q0.28125 0 0.53125 0.078125l-0.015625 1.625zm3.7207031 4.875q-1.390625 0 -2.265625 -0.859375q-0.875 -0.859375 -0.875 -2.28125l0 -0.171875q0 -0.953125 0.359375 -1.703125q0.375 -0.75 1.046875 -1.15625q0.6875 -0.40625 1.546875 -0.40625q1.3125 0 2.046875 0.828125q0.75 0.8125 0.75 2.3125l0 0.6875l-4.03125 0q0.078125 0.625 0.484375 1.0q0.421875 0.375 1.0625 0.375q0.96875 0 1.515625 -0.703125l0.84375 0.921875q-0.390625 0.546875 -1.046875 0.859375q-0.640625 0.296875 -1.4375 0.296875zm-0.1875 -5.21875q-0.5 0 -0.8125 0.34375q-0.3125 0.34375 -0.40625 0.96875l2.359375 0l0 -0.125q-0.015625 -0.5625 -0.3125 -0.875q-0.28125 -0.3125 -0.828125 -0.3125z" fill-rule="nonzero"></path><path fill="#000000" fill-opacity="0.0" d="m410.47763 64.79527l37.322845 0l0 36.566933l-37.322845 0z" fill-rule="evenodd"></path><path fill="#000000" d="m423.74326 85.31528l-1.078125 0l0 -7.21875l-2.1875 0.796875l0 -0.984375l3.109375 -1.171875l0.15625 0l0 8.578125z" fill-rule="nonzero"></path><path fill="#000000" fill-opacity="0.0" d="m402.36746 92.808395l0 24.409454" fill-rule="evenodd"></path><path stroke="#000000" stroke-width="1.0" stroke-linejoin="round" stroke-linecap="butt" d="m402.36746 92.808395l0 18.409454" fill-rule="evenodd"></path><path fill="#000000" stroke="#000000" stroke-width="1.0" stroke-linecap="butt" d="m400.71573 111.21785l1.6517334 4.5380936l1.6517334 -4.5380936z" fill-rule="evenodd"></path><path fill="#000000" fill-opacity="0.0" d="m420.11548 56.225723l62.519684 0l0 36.566925l-62.519684 0z" fill-rule="evenodd"></path><path fill="#000000" d="m436.70248 73.261345l-3.375 0l0 3.484375l-1.75 0l0 -8.53125l5.546875 0l0 1.421875l-3.796875 0l0 2.203125l3.375 0l0 1.421875zm4.2460938 3.609375q-1.390625 0 -2.265625 -0.859375q-0.875 -0.859375 -0.875 -2.28125l0 -0.171875q0 -0.953125 0.359375 -1.703125q0.375 -0.75 1.046875 -1.15625q0.6875 -0.40625 1.546875 -0.40625q1.3125 0 2.046875 0.828125q0.75 0.8125 0.75 2.3125l0 0.6875l-4.03125 0q0.078125 0.625 0.484375 1.0q0.421875 0.375 1.0625 0.375q0.96875 0 1.515625 -0.703125l0.84375 0.921875q-0.390625 0.546875 -1.046875 0.859375q-0.640625 0.296875 -1.4375 0.296875zm-0.1875 -5.21875q-0.5 0 -0.8125 0.34375q-0.3125 0.34375 -0.40625 0.96875l2.359375 0l0 -0.125q-0.015625 -0.5625 -0.3125 -0.875q-0.28125 -0.3125 -0.828125 -0.3125zm7.439453 5.09375q-0.125 -0.234375 -0.171875 -0.5625q-0.609375 0.6875 -1.59375 0.6875q-0.9375 0 -1.546875 -0.546875q-0.609375 -0.546875 -0.609375 -1.359375q0 -1.015625 0.734375 -1.546875q0.75 -0.546875 2.171875 -0.546875l0.765625 0l0 -0.359375q0 -0.4375 -0.21875 -0.703125q-0.21875 -0.265625 -0.71875 -0.265625q-0.421875 0 -0.671875 0.203125q-0.234375 0.203125 -0.234375 0.5625l-1.6875 0q0 -0.546875 0.328125 -1.015625q0.34375 -0.46875 0.96875 -0.734375q0.625 -0.265625 1.390625 -0.265625q1.171875 0 1.859375 0.59375q0.6875 0.578125 0.6875 1.640625l0 2.75q0.015625 0.90625 0.25 1.375l0 0.09375l-1.703125 0zm-1.40625 -1.171875q0.375 0 0.6875 -0.171875q0.328125 -0.171875 0.46875 -0.453125l0 -1.09375l-0.625 0q-1.265625 0 -1.359375 0.890625l0 0.09375q0 0.3125 0.21875 0.53125q0.21875 0.203125 0.609375 0.203125zm6.1835938 -6.734375l0 1.5625l1.09375 0l0 1.25l-1.09375 0l0 3.15625q0 0.359375 0.140625 0.515625q0.140625 0.140625 0.515625 0.140625q0.28125 0 0.5 -0.03125l0 1.28125q-0.5 0.15625 -1.03125 0.15625q-1.78125 0 -1.8125 -1.8125l0 -3.40625l-0.921875 0l0 -1.25l0.921875 0l0 -1.5625l1.6875 0zm5.8359375 7.265625q-0.625 0.765625 -1.734375 0.765625q-1.03125 0 -1.5625 -0.59375q-0.53125 -0.59375 -0.546875 -1.71875l0 -4.15625l1.6875 0l0 4.09375q0 1.0 0.90625 1.0q0.859375 0 1.1875 -0.609375l0 -4.484375l1.703125 0l0 6.34375l-1.59375 0l-0.046875 -0.640625zm6.4804688 -4.109375q-0.34375 -0.046875 -0.609375 -0.046875q-0.96875 0 -1.265625 0.640625l0 4.15625l-1.6875 0l0 -6.34375l1.59375 0l0.046875 0.765625q0.515625 -0.875 1.40625 -0.875q0.28125 0 0.53125 0.078125l-0.015625 1.625zm3.7207031 4.875q-1.390625 0 -2.265625 -0.859375q-0.875 -0.859375 -0.875 -2.28125l0 -0.171875q0 -0.953125 0.359375 -1.703125q0.375 -0.75 1.046875 -1.15625q0.6875 -0.40625 1.546875 -0.40625q1.3125 0 2.046875 0.828125q0.75 0.8125 0.75 2.3125l0 0.6875l-4.03125 0q0.078125 0.625 0.484375 1.0q0.421875 0.375 1.0625 0.375q0.96875 0 1.515625 -0.703125l0.84375 0.921875q-0.390625 0.546875 -1.046875 0.859375q-0.640625 0.296875 -1.4375 0.296875zm-0.1875 -5.21875q-0.5 0 -0.8125 0.34375q-0.3125 0.34375 -0.40625 0.96875l2.359375 0l0 -0.125q-0.015625 -0.5625 -0.3125 -0.875q-0.28125 -0.3125 -0.828125 -0.3125z" fill-rule="nonzero"></path><path fill="#000000" fill-opacity="0.0" d="m459.4855 64.779526l37.322845 0l0 36.566933l-37.322845 0z" fill-rule="evenodd"></path><path fill="#000000" d="m474.78238 85.29953l-5.59375 0l0 -0.78125l2.953125 -3.28125q0.65625 -0.75 0.90625 -1.203125q0.25 -0.46875 0.25 -0.96875q0 -0.671875 -0.40625 -1.09375q-0.390625 -0.4375 -1.078125 -0.4375q-0.796875 0 -1.25 0.46875q-0.453125 0.453125 -0.453125 1.28125l-1.078125 0q0 -1.1875 0.75 -1.90625q0.765625 -0.734375 2.03125 -0.734375q1.203125 0 1.890625 0.625q0.6875 0.625 0.6875 1.671875q0 1.25 -1.609375 3.0l-2.28125 2.46875l4.28125 0l0 0.890625z" fill-rule="nonzero"></path><path fill="#000000" fill-opacity="0.0" d="m451.37534 92.79265l0 24.409454" fill-rule="evenodd"></path><path stroke="#000000" stroke-width="1.0" stroke-linejoin="round" stroke-linecap="butt" d="m451.37534 92.79265l0 18.409454" fill-rule="evenodd"></path><path fill="#000000" stroke="#000000" stroke-width="1.0" stroke-linecap="butt" d="m449.7236 111.2021l1.6517334 4.5380936l1.6517334 -4.5380936z" fill-rule="evenodd"></path><path fill="#000000" fill-opacity="0.0" d="m532.30444 56.225723l62.519714 0l0 36.566925l-62.519714 0z" fill-rule="evenodd"></path><path fill="#000000" d="m547.19507 73.261345l-3.375 0l0 3.484375l-1.75 0l0 -8.53125l5.546875 0l0 1.421875l-3.796875 0l0 2.203125l3.375 0l0 1.421875zm4.2460938 3.609375q-1.390625 0 -2.265625 -0.859375q-0.875 -0.859375 -0.875 -2.28125l0 -0.171875q0 -0.953125 0.359375 -1.703125q0.375 -0.75 1.046875 -1.15625q0.6875 -0.40625 1.546875 -0.40625q1.3125 0 2.046875 0.828125q0.75 0.8125 0.75 2.3125l0 0.6875l-4.03125 0q0.078125 0.625 0.484375 1.0q0.421875 0.375 1.0625 0.375q0.96875 0 1.515625 -0.703125l0.84375 0.921875q-0.390625 0.546875 -1.046875 0.859375q-0.640625 0.296875 -1.4375 0.296875zm-0.1875 -5.21875q-0.5 0 -0.8125 0.34375q-0.3125 0.34375 -0.40625 0.96875l2.359375 0l0 -0.125q-0.015625 -0.5625 -0.3125 -0.875q-0.28125 -0.3125 -0.828125 -0.3125zm7.439453 5.09375q-0.125 -0.234375 -0.171875 -0.5625q-0.609375 0.6875 -1.59375 0.6875q-0.9375 0 -1.546875 -0.546875q-0.609375 -0.546875 -0.609375 -1.359375q0 -1.015625 0.734375 -1.546875q0.75 -0.546875 2.171875 -0.546875l0.765625 0l0 -0.359375q0 -0.4375 -0.21875 -0.703125q-0.21875 -0.265625 -0.71875 -0.265625q-0.421875 0 -0.671875 0.203125q-0.234375 0.203125 -0.234375 0.5625l-1.6875 0q0 -0.546875 0.328125 -1.015625q0.34375 -0.46875 0.96875 -0.734375q0.625 -0.265625 1.390625 -0.265625q1.171875 0 1.859375 0.59375q0.6875 0.578125 0.6875 1.640625l0 2.75q0.015625 0.90625 0.25 1.375l0 0.09375l-1.703125 0zm-1.40625 -1.171875q0.375 0 0.6875 -0.171875q0.328125 -0.171875 0.46875 -0.453125l0 -1.09375l-0.625 0q-1.265625 0 -1.359375 0.890625l0 0.09375q0 0.3125 0.21875 0.53125q0.21875 0.203125 0.609375 0.203125zm6.1835938 -6.734375l0 1.5625l1.09375 0l0 1.25l-1.09375 0l0 3.15625q0 0.359375 0.140625 0.515625q0.140625 0.140625 0.515625 0.140625q0.28125 0 0.5 -0.03125l0 1.28125q-0.5 0.15625 -1.03125 0.15625q-1.78125 0 -1.8125 -1.8125l0 -3.40625l-0.921875 0l0 -1.25l0.921875 0l0 -1.5625l1.6875 0zm5.8359375 7.265625q-0.625 0.765625 -1.734375 0.765625q-1.03125 0 -1.5625 -0.59375q-0.53125 -0.59375 -0.546875 -1.71875l0 -4.15625l1.6875 0l0 4.09375q0 1.0 0.90625 1.0q0.859375 0 1.1875 -0.609375l0 -4.484375l1.703125 0l0 6.34375l-1.59375 0l-0.046875 -0.640625zm6.4804688 -4.109375q-0.34375 -0.046875 -0.609375 -0.046875q-0.96875 0 -1.265625 0.640625l0 4.15625l-1.6875 0l0 -6.34375l1.59375 0l0.046875 0.765625q0.515625 -0.875 1.40625 -0.875q0.28125 0 0.53125 0.078125l-0.015625 1.625zm3.7207031 4.875q-1.390625 0 -2.265625 -0.859375q-0.875 -0.859375 -0.875 -2.28125l0 -0.171875q0 -0.953125 0.359375 -1.703125q0.375 -0.75 1.046875 -1.15625q0.6875 -0.40625 1.546875 -0.40625q1.3125 0 2.046875 0.828125q0.75 0.8125 0.75 2.3125l0 0.6875l-4.03125 0q0.078125 0.625 0.484375 1.0q0.421875 0.375 1.0625 0.375q0.96875 0 1.515625 -0.703125l0.84375 0.921875q-0.390625 0.546875 -1.046875 0.859375q-0.640625 0.296875 -1.4375 0.296875zm-0.1875 -5.21875q-0.5 0 -0.8125 0.34375q-0.3125 0.34375 -0.40625 0.96875l2.359375 0l0 -0.125q-0.015625 -0.5625 -0.3125 -0.875q-0.28125 -0.3125 -0.828125 -0.3125z" fill-rule="nonzero"></path><path fill="#000000" fill-opacity="0.0" d="m571.6745 64.779526l37.322815 0l0 36.566933l-37.322815 0z" fill-rule="evenodd"></path><path fill="#000000" d="m582.51825 78.95578l0.03125 0.703125q0.6875 -0.8125 1.875 -0.8125q1.328125 0 1.8125 1.015625q0.3125 -0.453125 0.8125 -0.734375q0.515625 -0.28125 1.203125 -0.28125q2.09375 0 2.125 2.203125l0 4.25l-1.078125 0l0 -4.1875q0 -0.671875 -0.3125 -1.0q-0.3125 -0.34375 -1.046875 -0.34375q-0.609375 0 -1.015625 0.359375q-0.390625 0.359375 -0.453125 0.96875l0 4.203125l-1.078125 0l0 -4.15625q0 -1.375 -1.359375 -1.375q-1.0625 0 -1.453125 0.90625l0 4.625l-1.09375 0l0 -6.34375l1.03125 0z" fill-rule="nonzero"></path><path fill="#000000" fill-opacity="0.0" d="m563.56433 92.79265l0 24.409454" fill-rule="evenodd"></path><path stroke="#000000" stroke-width="1.0" stroke-linejoin="round" stroke-linecap="butt" d="m563.56433 92.79265l0 18.409454" fill-rule="evenodd"></path><path fill="#000000" stroke="#000000" stroke-width="1.0" stroke-linecap="butt" d="m561.9126 111.2021l1.6517334 4.5380936l1.6517334 -4.5380936z" fill-rule="evenodd"></path><path fill="#000000" fill-opacity="0.0" d="m495.2021 93.74016l37.322876 0l0 7.6220474l-37.322876 0z" fill-rule="evenodd"></path><path fill="#000000" fill-opacity="0.0" d="m488.81366 99.215225l43.590515 0l0 7.6220474l-43.590515 0z" fill-rule="evenodd"></path><path fill="#000000" fill-opacity="0.0" d="m538.95013 80.44357l0 18.771652l-48.787415 0l0 -18.771652z" fill-rule="evenodd"></path><path fill="#000000" d="m520.47577 88.95331q0.375 0 0.59375 0.25q0.234375 0.25 0.234375 0.625q0 0.390625 -0.234375 0.640625q-0.21875 0.25 -0.59375 0.25q-0.375 0 -0.609375 -0.25q-0.21875 -0.25 -0.21875 -0.640625q0 -0.375 0.21875 -0.625q0.234375 -0.25 0.609375 -0.25z" fill-rule="nonzero"></path><path fill="#000000" d="m507.47577 88.95331q0.375 0 0.59375 0.25q0.234375 0.25 0.234375 0.625q0 0.390625 -0.234375 0.640625q-0.21875 0.25 -0.59375 0.25q-0.375 0 -0.609375 -0.25q-0.21875 -0.25 -0.21875 -0.640625q0 -0.375 0.21875 -0.625q0.234375 -0.25 0.609375 -0.25z" fill-rule="nonzero"></path><path fill="#000000" d="m494.47577 88.95331q0.375 0 0.59375 0.25q0.234375 0.25 0.234375 0.625q0 0.390625 -0.234375 0.640625q-0.21875 0.25 -0.59375 0.25q-0.375 0 -0.609375 -0.25q-0.21875 -0.25 -0.21875 -0.640625q0 -0.375 0.21875 -0.625q0.234375 -0.25 0.609375 -0.25z" fill-rule="nonzero"></path><path fill="#6fa8dc" d="m374.32022 165.99738l56.094482 0l0 48.7874l-56.094482 0z" fill-rule="evenodd"></path><path stroke="#000000" stroke-width="1.0" stroke-linejoin="round" stroke-linecap="butt" d="m374.32022 165.99738l56.094482 0l0 48.7874l-56.094482 0z" fill-rule="evenodd"></path><path fill="#000000" d="m399.69202 191.25357q0 2.0625 -0.703125 3.0625q-0.703125 1.0 -2.203125 1.0q-1.484375 0 -2.203125 -0.96875q-0.703125 -0.984375 -0.71875 -2.9375l0 -1.5625q0 -2.046875 0.703125 -3.03125q0.703125 -1.0 2.203125 -1.0q1.5 0 2.203125 0.96875q0.703125 0.953125 0.71875 2.9375l0 1.53125zm-1.171875 -1.609375q0 -1.5 -0.421875 -2.171875q-0.421875 -0.6875 -1.328125 -0.6875q-0.890625 0 -1.3125 0.6875q-0.40625 0.671875 -0.421875 2.078125l0 1.875q0 1.5 0.4375 2.21875q0.4375 0.71875 1.3125 0.71875q0.875 0 1.296875 -0.671875q0.421875 -0.671875 0.4375 -2.125l0 -1.921875zm3.0153198 4.9375q0 -0.3125 0.171875 -0.515625q0.1875 -0.203125 0.546875 -0.203125q0.359375 0 0.546875 0.203125q0.1875 0.203125 0.1875 0.515625q0 0.28125 -0.1875 0.484375q-0.1875 0.1875 -0.546875 0.1875q-0.359375 0 -0.546875 -0.1875q-0.171875 -0.203125 -0.171875 -0.484375zm9.320251 -7.96875l-3.828125 8.578125l-1.234375 0l3.8125 -8.28125l-5.0 0l0 -0.96875l6.25 0l0 0.671875z" fill-rule="nonzero"></path></g></svg>

